<?xml version="1.0" encoding="utf-8"?>
<!-- Generator: Adobe Illustrator 24.3.0, SVG Export Plug-In . SVG Version: 6.00 Build 0)  -->
<svg version="1.1" id="Layer_1" xmlns="http://www.w3.org/2000/svg" xmlns:xlink="http://www.w3.org/1999/xlink" x="0px" y="0px"
	 viewBox="0 0 635.1 722.6" style="enable-background:new 0 0 635.1 722.6;" xml:space="preserve">
<style type="text/css">
	.st0{fill:#73FF8F;}
	.st1{fill:#00FFF4;}
	.st2{fill:#0FCE7C;}
	.st3{fill:#15003E;}
	.st4{fill:#5D5D5D;}
	.st5{fill:#7E4A1B;}
	.st6{fill:#E5C420;}
	.st7{fill:#E4AC00;}
	.st8{fill:#AC8200;}
	.st9{fill:#EDC624;}
	.st10{fill:none;stroke:#E09D3C;stroke-width:4;stroke-miterlimit:10;}
	.st11{fill:none;stroke:#F6C16B;stroke-width:0.75;stroke-miterlimit:10;}
	.st12{fill:none;stroke:#E09D3C;stroke-miterlimit:10;}
	.st13{fill:none;stroke:#E09D3C;stroke-width:2;stroke-miterlimit:10;}
	.st14{fill:#7F7D7C;}
	.st15{fill:none;stroke:#E09D3C;stroke-width:3;stroke-miterlimit:10;}
	.st16{fill:#423C34;stroke:#E09D3C;stroke-width:2;stroke-miterlimit:10;}
	.st17{fill:#7E4A1B;stroke:#E09D3C;stroke-width:4;stroke-miterlimit:10;}
	.st18{fill:none;}
	.st19{fill:#7E4A1B;stroke:#E09D3C;stroke-width:2;stroke-miterlimit:10;}
</style>
<g>
	<polygon class="st0" points="551,496.2 551,226.7 317.6,92 84.2,226.7 84.2,496.2 317.6,631 	"/>
	<path class="st1" d="M317.6,18.3l-297,171.5v343l297,171.5l297-171.5v-343L317.6,18.3z M563.4,503.2L317.7,645.1L71.9,503.2V219.4
		l245.8-142l245.7,142V503.2z"/>
	<path class="st2" d="M317.6,77.5L71.8,219.4v283.8l245.8,141.9l245.7-141.9V219.4L317.6,77.5z M551,496.1L317.6,630.8L84.2,496.1
		V226.6L317.6,91.8L551,226.6V496.1z"/>
	<path class="st3" d="M246.4,649.7c-1.8-7.5-3.6-14.8-5.5-22.3c-2.6,4.5-5.1,8.8-7.6,13.2c-1-0.6-1.9-1.1-2.8-1.6
		c3.8-6.7,7.7-13.3,11.6-20.1c1.8,7.5,3.6,14.9,5.5,22.4c2.6-4.5,5.1-8.8,7.6-13.2c1,0.6,1.9,1.1,2.8,1.6
		C254.1,636.3,250.3,642.9,246.4,649.7z"/>
	<path class="st3" d="M129.1,559.9c-1,0.2-2,0.5-3,0.7c-0.2-0.8-0.4-1.6-0.7-2.3c-2.1-5.8-9.6-7.1-13.6-2.4c-3.4,4-2.7,9.5,1.6,12.4
		c3,2.1,7.5,0.8,8.6-1.5c-1.5-0.9-3-1.7-4.6-2.6c0.5-0.9,1-1.8,1.5-2.7c1.3,0.8,2.6,1.5,3.9,2.2c1.3,0.7,2.5,1.5,3.8,2.2
		c-2.5,6.1-9,8.3-14.4,5.3c-4.2-2.3-6.5-7.1-5.7-11.7c0.9-4.8,4.7-8.7,9.5-9.4C122.3,549.1,128.3,553.5,129.1,559.9z"/>
	<path class="st3" d="M179.7,604c-0.5,0.9-1,1.6-1.4,2.4c-0.4,0.8-0.9,0.9-1.7,0.8c-7-0.8-11.7-7.1-10.2-13.8c1-4.4,4.7-7.9,9.3-8.8
		c4.3-0.8,8.9,1.3,11.4,5c0.4,0.6,0.4,1,0,1.5c-0.5,0.7-0.9,1.5-1.5,2.5c-1.3-3-3.2-5.2-6.3-5.9c-1.8-0.4-3.6-0.1-5.2,0.7
		c-3.5,1.7-5.4,5.8-4.5,9.5C170.7,602.2,173.8,604,179.7,604z"/>
	<path class="st3" d="M159.8,576.5c-3.2,5.5-6.2,10.8-9.4,16.2c-1-0.6-1.8-1.1-2.8-1.6c3.1-5.4,6.2-10.7,9.4-16.2
		c-1.5-0.9-2.9-1.7-4.3-2.5c0.5-0.9,1-1.7,1.5-2.6c3.8,2.2,7.6,4.4,11.5,6.6c-0.5,0.8-0.9,1.6-1.5,2.6
		C162.7,578.2,161.3,577.4,159.8,576.5z"/>
	<path class="st3" d="M142.2,562.9c0.9,0.5,1.8,1,2.7,1.6c-3.6,6.3-7.3,12.6-10.9,18.9c-0.9-0.5-1.7-1-2.7-1.6
		C134.9,575.5,138.5,569.2,142.2,562.9z"/>
	<path class="st3" d="M219.1,632.5c-0.9-0.5-1.8-1-2.7-1.5c3.6-6.3,7.2-12.5,10.9-18.9c0.9,0.5,1.7,1,2.7,1.5
		C226.4,619.9,222.8,626.1,219.1,632.5z"/>
	<circle class="st3" cx="202" cy="608.9" r="11.5"/>
	<path class="st4" d="M495.4,335.9c-7.9-2.2-19.1,1-27.3,6.3c-2.9,1.9-5.9,3.9-9.1,5.1c-14.9,5.6-29.4,7.6-43.2-3.8
		c-9.3-7.7-19.8-14.1-32.8-14.3c1.5-0.9,2.9-1.5,4.4-1.7c7.1-1.1,14.1-2,21.2-3.2c9.2-1.6,18.6-2.6,27.3-5.6
		c11.8-4,23.1-9.5,34.6-14.6c0.5-0.2,1-0.4,1.4-0.5c-0.6-0.4-1.5-0.7-1.7-1.1c-1.3,1.2-3.7,1.9-7.9,3.2c-0.6,0.2-1.1,0.3-1.7,0.5
		c-21,4.4-41.9,8.9-62.9,13.1c-5.6,1.1-11.4,1.3-17.1,1.9c5.1-9.5,11.8-16.9,19.9-23c9.4-7.1,19.2-13.8,28.5-21
		c0.5-0.4,0.9-0.6,1.3-0.8c-2-0.4-1.6-2.5-3.1-3.2c-17.1,9.4-30.5,24.1-45.8,36.5c-15.4,12.5-31.7,24-47.8,36.1
		c-0.2-1.1-0.7-2.6-0.8-4.1c-0.4-7.8,2.7-14.1,8.3-19.5c11-10.6,16.9-23.4,17.9-38.7c0.8-13.4,2.2-26.7,3.3-40.1
		c0.7-7.8,5-12.8,12.5-14.9c1.6-0.4,2.9-1.8,4.3-2.7c-1-1.1-2.1-2.2-3.5-3.7c1-1.1,2.1-3.2,3.7-4c4.9-2.4,10.1-4.3,15-6.6
		c1-0.5,1.6-1.8,2.4-2.7c-1.1-0.6-2.3-1.9-3.2-1.6c-3.1,0.8-6.2,1.8-8.9,3.3c-9.1,5.3-14.7,14-20.6,22.3c-1.6,2.2-3.1,4.4-4.6,6.7
		c-0.5,0.1-1.1,0.1-1.6,0.2c-4.3-11.5-8.6-23-12.8-34.5c-0.4-1,0-2.3-0.1-3.5c-0.1-0.9,0-1.5,0.2-2.1c-0.8,0-1.6,0-2.5,0
		c-0.1,7.6,2.1,15,6,22c3.4,6,5.1,12.4,6.2,19.4c2.4,15.2,0.9,30.2-0.8,45.3c-0.2,1.7-1.5,3.2-2.4,5c-7.4-12.7-14.4-24.6-21.3-36.4
		c-0.3,2.2-0.2,4.4,0.7,6c3.2,5.9,6.8,11.5,9.9,17.4c2.2,4.2,4.8,8.4,5.8,13c1.9,8.8-1.7,16.3-7.8,22.6
		c-6.4,6.8-11.8,14.1-12.8,23.8c-0.1,1.3-1,2.4-1.6,3.6c-1.1-0.8-2.4-1.4-3.3-2.4c-8.5-10.1-14.2-21.7-18.1-34.2
		c-1.5-4.9-2.7-9.9-4.3-15.5c-0.8,2.1-1.4,3.5-2.3,5.8c-11.3-8.1-22.3-15.8-33-23.8c-1.3-1-2.2-3.7-2-5.5c1.2-11.8,6.7-21.2,16.6-28
		c0.9-0.6,1.3-2,2-3.1c-0.4-0.2-0.7-0.4-1.1-0.6c-10.9,6.7-17.5,15.6-20.5,27.7c-0.3,1.4-1.3,3.1-2.4,3.6c-0.7,0.4-2.6-0.9-3.5-1.8
		c-6.5-7.1-10.4-15.4-11.1-25.1c-0.3-5-0.6-10-1-15.9c-1.4,1.8-2.2,2.9-3.4,4.5c-1.6-2.4-5.3-2.6-6.3-5.1c-0.5,0.6-1.1,1.3-1.4,1.9
		c6.8,3.9,8.9,10,9.7,17c2,16.9,10.3,29.8,24.5,39c3.7,2.4,7.1,5.1,10.8,7.5c10.8,6.9,18.9,16.4,25.6,27.2c1.3,2.2,2.1,4.7,3.1,7.1
		c-1.1,0.5-1.4,0.7-1.7,0.7c-13.5-0.4-27.1-1.1-40.6-1.1c-11.3,0-22-1.8-32.2-6.7c-8.1-3.9-12.8-10.3-14.1-19.2
		c-0.4-3.2-0.7-6.4-1-9.6c-0.3,0-0.5,0-0.8,0c-0.4,4.2-0.8,8.3-1.2,12.5c-2.4-1.5-4.1-3.2-5-5.2c-1.9-3.9-3.4-8.1-5.3-12
		c-0.9-1.8-1.4-3.5-1.5-5.2c-0.7,0.7-1.4,1.4-2.1,2.1c7.1,23.8,23.8,39.9,48.7,47.5c-7.4,13-43.9,28.7-58.2,25.4c0,1.1,0,2.5,0,3.8
		c0.5-0.2,0.9-0.3,1.4-0.4c1.8-0.5,3.8,0,5.7-0.1c6.5-0.6,12.9-1.3,19.8-2c-1.6,4.8-3.2,9.4-4.9,14c1.3,0.4,2.5,2.2,3.8,2.2
		c-0.1-0.3-0.1-0.7,0-0.9c4.8-14.8,12.3-27.4,28.4-32.4c6.3-1.9,12.4-4.2,18.6-6.5c8.9-3.3,17.9-3.8,27.1-1.4
		c17,4.4,25.9,14,27.5,31.3c0.8,8.3,0.4,16.9-0.6,25.3c-1.6,13.6-4.8,27-6.3,40.6c-3.3,30.4-0.6,60.5,5.1,90.5
		c0.1,0.3,0.1,0.7,0.2,1.1h25.6c-5.1-8.4-8.7-17.7-10.8-27.7c-2.5-12.2-2.6-24.9-3.3-37.4c-1.3-22.9,3-45.3,7.8-67.6
		c1.8-8.4,3.6-17.1,7.5-24.5c6.2-11.8,15.6-20.9,30-21.8c7.4-0.5,14.9-0.1,22.3,0.4c2.9,0.2,6,1.4,8.5,3c8.1,4.9,13.8,12,18,20.5
		h0.5c-0.4-1.9-0.8-3.8-1.2-6.1c2.1,0,3.8,0,5.4,0c7.7-0.1,15.4-0.3,23.1-0.2c6.2,0.1,12.6,0,18.6,1.2c4.3,0.8,6,1.5,6.6,3.6
		c1.2-1.4,1.7-3.2,2.5-5.2c-2.9-1.6-5.8-3.1-9-4.9c7.9-6.5,15.6-12,26-11.7C493,337.3,494.2,336.4,495.4,335.9z"/>
	<path class="st5" d="M313.5,521.4c-3.9,10.5-11.4,17-22.5,19.2c-6.1,1.2-12.3,2.6-18.2,4.5c-3.5,1.1-7.1,2.8-10,5.1
		c-7.4,5.9-14.3,12.4-21.4,18.6c-0.8,0.7-1.5,1.6-2.5,2.6c4,2.4,6.6,0.3,9.2-1.9c6.9-5.8,13.8-11.6,20.9-17.1
		c1.7-1.3,4.3-1.6,6.8-2.6c-0.3,5.2-0.6,9.4-0.9,13.5c0.4,0,0.8,0.1,1.2,0.1c0.3-0.9,0.6-1.8,0.7-2.8c1.2-6.5,4.5-10.9,11.1-12.7
		c3.9-1.1,7.8-2.6,11.6-3.9c7.3-2.6,13.8-6.3,17.7-13.4c1-1.8,2.7-3.1,4.9-5.5c0.8,2.6,1.6,4.1,1.6,5.6c0.1,4.8-0.5,9.6,0,14.4
		c0.6,5.6,0.9,11.5,3.3,16.4c3.2,6.8,8.2,12.7,12.5,18.9c0.6,0.9,1.5,1.5,2.3,2.2c0.5-0.3,0.9-0.7,1.4-1
		c-3.7-5.8-7.5-11.6-11.8-18.4c4.6,0.4,7.5,0.7,10.5,1c-2.4-1.5-5.2-2.1-7.4-3.5c-1.5-0.9-3.3-2.9-3.4-4.4
		c-0.3-9.9-0.2-19.7-0.2-29.6c0.6-0.3,1.3-0.7,1.9-1c5.5,4.4,11,8.7,16.5,13.1c3.5,2.8,6.7,6.2,10.6,8.3c5.3,2.9,11.2,4.9,16.8,7.2
		c8.4,3.4,16.8,6.7,24.8,9.9c-3.4-6.3-9.3-10.1-16.7-12.1c-2.9-0.8-5.7-2.1-8.5-3.2c0.1-0.7,0.1-1.3,0.2-2
		c9.7-2.4,19.4-4.7,29.1-7.1c-1.9-1.2-3.9-2.2-5.7-1.9c-4.3,0.7-8.6,1.6-12.6,3.1c-11.2,4.2-21.6,2.6-30.4-4.9
		c-7-6-12.9-13-17.5-20.6h-25.6C314.1,517.6,314.1,519.7,313.5,521.4z"/>
	<path d="M420.2,362.1c-0.1-0.5-0.2-1-0.3-1.5h-0.5C419.6,361.1,419.9,361.6,420.2,362.1z"/>
	<path class="st4" d="M314,459.6c-18.5-12.4-33.4-27.1-42.1-47.1c-12.8-29.4-17.4-52.8-12.1-61.6c2.3,14,4.6,27.9,7.3,44.5
		c5.7-5.3,8.2-7.6,9.6-8.9c-1.2,4.8-5.3,11.3-3.7,16c7.1,20.7,21.3,36.5,40.3,47.8c2.7,1.6,7.5,3,9.9,2l-11.6,9.7
		C312.3,461.2,313.1,460.4,314,459.6z"/>
	<path class="st4" d="M329.4,451.9c5.9-8.9,10.6-18.6,15.6-28c6.5-12.3,15.5-18.9,30-14.4c0.4,0.1,1.1-0.9,2.7-2.1
		c-5.5-1.3-10.1-2.4-14.8-3.5c2-4,3.7-7.4,7.5-15.1c-10.2,10-16.7,16.4-25.7,25.2c-0.8-7.5-1.4-13.6-2-19.2
		c1.2,25-10.8,45.6-26.6,66.4l6.2,17.8C321.8,470,323.4,461,329.4,451.9z"/>
	<g>
		<path class="st6" d="M369.5,395c-8.3,0-14.8-6.5-14.8-15c0-7.9,6.7-14.5,14.7-14.6c7.9-0.1,14.7,6.7,14.7,14.8
			C384.2,388.3,377.6,395,369.5,395z M381.1,380.3c0-6.6-5.1-11.8-11.6-11.9c-6.6,0-11.9,5.2-11.9,11.8c0,6.4,5.2,11.8,11.5,11.8
			C375.9,392.2,381.1,387.1,381.1,380.3z"/>
		<ellipse class="st7" cx="369.4" cy="380.3" rx="11.8" ry="11.8"/>
		<path class="st8" d="M369.4,385.7c-0.3,0.5-0.4,1.3-0.9,1.5c-0.8,0.4-1.3-0.1-1.3-1c0-0.7-0.2-1.2-1-1.1c-0.3,0-0.9-0.3-0.9-0.4
			c0-0.5,0.1-1.3,0.4-1.5c0.8-0.4,0.8-0.9,0.8-1.6c0-1.3,0-2.5,0-3.8c0-0.3-0.4-0.7-0.6-1c-0.2-0.4-0.6-0.8-0.6-1.2
			c0-0.2,0.6-0.6,0.9-0.7c0.6-0.1,1.1-0.1,1.1-0.8c0-0.7,0-1.6,1-1.3c0.5,0.1,0.8,0.8,1.2,1.2c-0.1,0.1-0.1,0.2-0.2,0.2
			c0-0.2-0.1-0.5,0-0.7c0.2-0.3,0.5-0.7,0.8-0.8c0.6-0.1,1,0.2,0.9,0.8c-0.1,0.9,0.3,1.3,1.1,1.7c1.7,0.6,2,2.1,1,4.2
			c2.1,2,1.6,4.5-1.1,5.6c-0.4,0.1-0.8,0.6-0.8,1c-0.1,0.7-0.1,1.4-1.1,1.4c-1,0-0.8-0.8-0.9-1.4c0-0.1,0-0.2,0-0.3
			C369.3,385.7,369.3,385.7,369.4,385.7z M368,386.8l0.3,0c0-0.5,0-0.9,0.2-1.4c0.1-0.2,0.4-0.4,0.6-0.6c0.2,0.2,0.4,0.4,0.5,0.6
			c0.1,0.4,0.1,0.9,0.1,1.4l0.3,0c0.1-0.2,0.3-0.5,0.2-0.7c-0.1-1,0.2-1.5,1.3-1.6c1.1-0.1,1.7-1,1.8-2.1c0.2-1.3-0.1-2.4-1.4-2.9
			c1.5-2,1.1-3.3-1.1-4.2c-0.3-0.1-0.5-0.7-0.6-1c-0.1-0.3-0.2-0.7-0.3-1.1c-0.2,0-0.2,0-0.4,0c0,0.4,0,0.9-0.1,1.3
			c-0.1,0.3-0.3,0.5-0.5,0.7c-0.2-0.2-0.5-0.4-0.6-0.7c-0.1-0.4-0.1-0.9-0.2-1.5c-0.3,0.2-0.4,0.3-0.4,0.3c0,1.3-0.3,2.2-1.8,1.9
			c-0.1,0-0.3,0.3-0.3,0.4c0,0.2,0.1,0.5,0.3,0.5c1.2,0.2,1,1.1,1,1.9c0,1.4,0,2.8,0,4.1c0,0.6,0,1.1-0.8,1.3
			c-0.2,0-0.4,0.4-0.4,0.7c0,0.1,0.3,0.4,0.4,0.4c1.5-0.2,1.7,0.7,1.6,1.9C367.8,386.6,367.9,386.7,368,386.8z"/>
		<path class="st9" d="M368,386.8c-0.1-0.1-0.2-0.2-0.2-0.3c0.1-1.1-0.1-2.1-1.6-1.9c-0.1,0-0.4-0.3-0.4-0.4
			c0.1-0.3,0.2-0.6,0.4-0.7c0.8-0.2,0.8-0.7,0.8-1.3c0-1.4,0-2.8,0-4.1c0-0.8,0.1-1.7-1-1.9c-0.1,0-0.3-0.3-0.3-0.5
			c0-0.1,0.2-0.4,0.3-0.4c1.6,0.2,1.9-0.7,1.8-1.9c0-0.1,0.2-0.1,0.4-0.3c0.1,0.6,0.1,1,0.2,1.5c0.1,0.3,0.4,0.5,0.6,0.7
			c0.2-0.2,0.5-0.4,0.5-0.7c0.1-0.4,0.1-0.9,0.1-1.3c0.2,0,0.2,0,0.4,0c0.1,0.4,0.1,0.8,0.3,1.1c0.1,0.4,0.3,0.9,0.6,1
			c2.2,0.9,2.6,2.3,1.1,4.2c1.4,0.5,1.6,1.6,1.4,2.9c-0.1,1.1-0.7,1.9-1.8,2.1c-1.1,0.1-1.4,0.6-1.3,1.6c0,0.2-0.2,0.5-0.2,0.7
			l-0.3,0c0-0.5,0-0.9-0.1-1.4c-0.1-0.2-0.3-0.4-0.5-0.6c-0.2,0.2-0.5,0.4-0.6,0.6c-0.1,0.4-0.1,0.9-0.2,1.4L368,386.8z
			 M369.4,383.5c1.5,0,2.3-0.6,2.2-1.6c0-1-0.9-1.6-2.2-1.6c-1.5,0-0.9,1.1-0.9,1.8C368.4,382.8,368.3,383.7,369.4,383.5z
			 M369.3,376.4c-1-0.1-0.9,0.7-0.8,1.3c0.1,0.6-0.5,1.7,0.9,1.6c1.1,0,1.8-0.6,1.8-1.5C371.2,377,370.5,376.4,369.3,376.4z"/>
	</g>
	<g>
		<path class="st6" d="M335.1,209.4c-14.8,0.1-26.5-11.8-26.5-26.9c0-14.1,12-26.1,26.4-26.2c14.2-0.1,26.4,12.1,26.4,26.5
			C361.5,197.4,349.6,209.3,335.1,209.4z M356,183c0-11.8-9.2-21.2-20.8-21.3c-11.8,0-21.4,9.4-21.4,21.1
			c-0.1,11.4,9.4,21.2,20.7,21.3C346.6,204.2,355.9,195.1,356,183z"/>
		<ellipse class="st7" cx="335" cy="182.9" rx="21.2" ry="21.2"/>
		<path class="st8" d="M335,192.7c-0.5,0.9-0.8,2.3-1.5,2.7c-1.4,0.7-2.4-0.1-2.3-1.8c0.1-1.3-0.3-2.1-1.8-2c-0.6,0-1.6-0.5-1.6-0.7
			c0.1-1,0.2-2.4,0.8-2.7c1.4-0.7,1.4-1.7,1.4-2.9c0-2.3,0.1-4.5-0.1-6.8c0-0.6-0.8-1.2-1.2-1.8c-0.4-0.7-1-1.5-1.1-2.2
			c0-0.4,1-1.1,1.7-1.2c1-0.2,1.9-0.1,1.9-1.5c0-1.3,0-2.8,1.8-2.4c0.8,0.2,1.4,1.4,2.2,2.2c-0.1,0.1-0.2,0.3-0.4,0.4
			c0-0.4-0.2-0.9,0-1.2c0.4-0.6,0.9-1.3,1.5-1.5c1-0.3,1.8,0.4,1.6,1.5c-0.2,1.6,0.5,2.4,2,3c3.1,1.2,3.6,3.8,1.7,7.5
			c3.8,3.5,2.9,8.2-1.9,10c-0.7,0.2-1.4,1.1-1.5,1.8c-0.2,1.3-0.1,2.5-2,2.5c-1.9-0.1-1.5-1.4-1.5-2.5c0-0.2-0.1-0.4-0.1-0.6
			C334.7,192.6,334.8,192.7,335,192.7z M332.4,194.7l0.6,0c0.1-0.8,0.1-1.7,0.3-2.5c0.1-0.4,0.7-0.7,1.1-1.1
			c0.3,0.4,0.7,0.7,0.8,1.1c0.2,0.8,0.2,1.6,0.3,2.5l0.6,0.1c0.2-0.4,0.5-0.9,0.4-1.3c-0.2-1.8,0.4-2.7,2.4-2.9c2-0.2,3-1.7,3.3-3.7
			c0.3-2.3-0.1-4.2-2.6-5.2c2.7-3.5,2-5.9-1.9-7.6c-0.5-0.2-0.8-1.2-1.1-1.9c-0.2-0.6-0.3-1.3-0.5-2c-0.4,0-0.3,0-0.7,0
			c-0.1,0.8,0,1.6-0.2,2.4c-0.1,0.5-0.6,0.8-1,1.2c-0.3-0.4-0.8-0.8-1-1.2c-0.2-0.8-0.2-1.6-0.4-2.6c-0.5,0.4-0.8,0.5-0.8,0.6
			c0.1,2.3-0.4,3.9-3.2,3.5c-0.2,0-0.6,0.5-0.6,0.7c0,0.3,0.2,0.9,0.5,1c2.1,0.3,1.8,1.9,1.9,3.3c0,2.5,0,4.9,0,7.4
			c0,1.1-0.1,2-1.5,2.3c-0.3,0.1-0.6,0.8-0.7,1.2c0,0.2,0.5,0.8,0.7,0.7c2.7-0.4,3,1.3,2.9,3.4C332,194.3,332.3,194.5,332.4,194.7z"
			/>
		<path class="st9" d="M332.4,194.7c-0.1-0.2-0.4-0.4-0.4-0.6c0.1-2.1-0.2-3.7-2.9-3.4c-0.2,0-0.8-0.5-0.7-0.7
			c0.1-0.5,0.4-1.2,0.7-1.2c1.4-0.3,1.5-1.3,1.5-2.3c0-2.5,0-4.9,0-7.4c0-1.4,0.2-3-1.9-3.3c-0.2,0-0.5-0.6-0.5-1
			c0-0.2,0.4-0.7,0.6-0.7c2.8,0.4,3.3-1.2,3.2-3.5c0-0.1,0.3-0.2,0.8-0.6c0.1,1,0.1,1.9,0.4,2.6c0.1,0.5,0.7,0.8,1,1.2
			c0.3-0.4,0.8-0.8,1-1.2c0.2-0.7,0.1-1.6,0.2-2.4c0.4,0,0.3,0,0.7,0c0.1,0.7,0.2,1.4,0.5,2c0.3,0.7,0.6,1.6,1.1,1.9
			c3.9,1.7,4.6,4.1,1.9,7.6c2.5,0.9,2.9,2.9,2.6,5.2c-0.2,2-1.3,3.5-3.3,3.7c-2,0.2-2.6,1.1-2.4,2.9c0,0.4-0.3,0.9-0.4,1.3l-0.6-0.1
			c-0.1-0.8-0.1-1.7-0.3-2.5c-0.1-0.4-0.5-0.8-0.8-1.1c-0.4,0.4-1,0.7-1.1,1.1c-0.2,0.8-0.2,1.7-0.3,2.5L332.4,194.7z M335,188.7
			c2.7,0,4.1-1.1,4-2.9c0-1.8-1.5-2.8-4-2.8c-2.7,0-1.6,2-1.7,3.3C333.2,187.5,333,189,335,188.7z M334.8,176
			c-1.8-0.2-1.6,1.2-1.5,2.4c0.1,1.1-0.8,3,1.6,2.9c2-0.1,3.3-1,3.3-2.6C338.2,177,336.9,176,334.8,176z"/>
	</g>
	<g>
		<path class="st6" d="M175.5,290.8c-14.8,0.1-26.5-11.8-26.5-26.9c0-14.1,12-26.1,26.4-26.2c14.2-0.1,26.4,12.1,26.4,26.5
			C201.9,278.7,190,290.7,175.5,290.8z M196.4,264.4c0-11.8-9.2-21.2-20.8-21.3c-11.8,0-21.4,9.4-21.4,21.1
			c-0.1,11.4,9.4,21.2,20.7,21.3C187.1,285.6,196.4,276.5,196.4,264.4z"/>
		<ellipse class="st7" cx="175.5" cy="264.3" rx="21.2" ry="21.2"/>
		<path class="st8" d="M175.4,274.1c-0.5,0.9-0.8,2.3-1.5,2.7c-1.4,0.7-2.4-0.1-2.3-1.8c0.1-1.3-0.3-2.1-1.8-2
			c-0.6,0-1.6-0.5-1.6-0.7c0.1-1,0.2-2.4,0.8-2.7c1.4-0.7,1.4-1.7,1.4-2.9c0-2.3,0.1-4.5-0.1-6.8c0-0.6-0.8-1.2-1.2-1.8
			c-0.4-0.7-1-1.5-1.1-2.2c0-0.4,1-1.1,1.7-1.2c1-0.2,1.9-0.1,1.9-1.5c0-1.3,0-2.8,1.8-2.4c0.8,0.2,1.4,1.4,2.2,2.2
			c-0.1,0.1-0.2,0.3-0.4,0.4c0-0.4-0.2-0.9,0-1.2c0.4-0.6,0.9-1.3,1.5-1.5c1-0.3,1.8,0.4,1.6,1.5c-0.2,1.6,0.5,2.4,2,3
			c3.1,1.2,3.6,3.8,1.7,7.5c3.8,3.5,2.9,8.2-1.9,10c-0.7,0.2-1.4,1.1-1.5,1.8c-0.2,1.3-0.1,2.5-2,2.5c-1.9-0.1-1.5-1.4-1.5-2.5
			c0-0.2-0.1-0.4-0.1-0.6C175.2,274,175.3,274,175.4,274.1z M172.9,276.1l0.6,0c0.1-0.8,0.1-1.7,0.3-2.5c0.1-0.4,0.7-0.7,1.1-1.1
			c0.3,0.4,0.7,0.7,0.8,1.1c0.2,0.8,0.2,1.6,0.3,2.5l0.6,0.1c0.2-0.4,0.5-0.9,0.4-1.3c-0.2-1.8,0.4-2.7,2.4-2.9c2-0.2,3-1.7,3.3-3.7
			c0.3-2.3-0.1-4.2-2.6-5.2c2.7-3.5,2-5.9-1.9-7.6c-0.5-0.2-0.8-1.2-1.1-1.9c-0.2-0.6-0.3-1.3-0.5-2c-0.4,0-0.3,0-0.7,0
			c-0.1,0.8,0,1.6-0.2,2.4c-0.1,0.5-0.6,0.8-1,1.2c-0.3-0.4-0.8-0.8-1-1.2c-0.2-0.8-0.2-1.6-0.4-2.6c-0.5,0.4-0.8,0.5-0.8,0.6
			c0.1,2.3-0.4,3.9-3.2,3.5c-0.2,0-0.6,0.5-0.6,0.7c0,0.3,0.2,0.9,0.5,1c2.1,0.3,1.8,1.9,1.9,3.3c0,2.5,0,4.9,0,7.4
			c0,1.1-0.1,2-1.5,2.3c-0.3,0.1-0.6,0.8-0.7,1.2c0,0.2,0.5,0.8,0.7,0.7c2.7-0.4,3,1.3,2.9,3.4C172.5,275.7,172.7,275.9,172.9,276.1
			z"/>
		<path class="st9" d="M172.9,276.1c-0.1-0.2-0.4-0.4-0.4-0.6c0.1-2.1-0.2-3.7-2.9-3.4c-0.2,0-0.8-0.5-0.7-0.7
			c0.1-0.5,0.4-1.2,0.7-1.2c1.4-0.3,1.5-1.3,1.5-2.3c0-2.5,0-4.9,0-7.4c0-1.4,0.2-3-1.9-3.3c-0.2,0-0.5-0.6-0.5-1
			c0-0.2,0.4-0.7,0.6-0.7c2.8,0.4,3.3-1.2,3.2-3.5c0-0.1,0.3-0.2,0.8-0.6c0.1,1,0.1,1.9,0.4,2.6c0.1,0.5,0.7,0.8,1,1.2
			c0.3-0.4,0.8-0.8,1-1.2c0.2-0.7,0.1-1.6,0.2-2.4c0.4,0,0.3,0,0.7,0c0.1,0.7,0.2,1.4,0.5,2c0.3,0.7,0.6,1.6,1.1,1.9
			c3.9,1.7,4.6,4.1,1.9,7.6c2.5,0.9,2.9,2.9,2.6,5.2c-0.2,2-1.3,3.5-3.3,3.7c-2,0.2-2.6,1.1-2.4,2.9c0,0.4-0.3,0.9-0.4,1.3L176,276
			c-0.1-0.8-0.1-1.7-0.3-2.5c-0.1-0.4-0.5-0.8-0.8-1.1c-0.4,0.4-1,0.7-1.1,1.1c-0.2,0.8-0.2,1.7-0.3,2.5L172.9,276.1z M175.4,270
			c2.7,0,4.1-1.1,4-2.9c0-1.8-1.5-2.8-4-2.8c-2.7,0-1.6,2-1.7,3.3C173.6,268.9,173.4,270.4,175.4,270z M175.2,257.3
			c-1.8-0.2-1.6,1.2-1.5,2.4c0.1,1.1-0.8,3,1.6,2.9c2-0.1,3.3-1,3.3-2.6C178.6,258.4,177.4,257.4,175.2,257.3z"/>
	</g>
	<g>
		<circle class="st8" cx="411.4" cy="193.5" r="25"/>
		<circle class="st10" cx="411.4" cy="193.5" r="26.2"/>
		<g>
			<g>
				<path class="st11" d="M422.5,193.9c0,0-0.1,0.1-0.1,0.1c-0.5,0.3-1.1,0.6-1.6,0.9c-1.7,1-3.3,1.9-5,2.9c-1.5,0.9-3,1.8-4.5,2.7
					c-0.1,0.1-0.2,0.1-0.3,0c-1.2-0.7-2.5-1.5-3.7-2.2c-1.4-0.8-2.7-1.6-4.1-2.4c-1.1-0.6-2.2-1.3-3.2-1.9c-0.1-0.1-0.1-0.1-0.1-0.3
					c0.9-1.5,1.8-3,2.8-4.6c0.9-1.4,1.7-2.9,2.6-4.3c1.1-1.8,2.2-3.7,3.3-5.5c0.8-1.3,1.6-2.7,2.4-4c0.1-0.2,0.2-0.2,0.3,0
					c1,1.6,1.9,3.2,2.9,4.8c1.3,2.2,2.6,4.3,3.9,6.5c1.2,2,2.4,3.9,3.5,5.9c0.2,0.4,0.5,0.8,0.7,1.2
					C422.5,193.8,422.5,193.9,422.5,193.9z M411.1,176C411.1,176,411.1,176,411.1,176c-3.6,5.8-7.1,11.7-10.6,17.6
					c0.1,0,0.1,0,0.1,0c0.7-0.3,1.5-0.7,2.2-1c1.3-0.6,2.7-1.2,4-1.8c1.4-0.6,2.8-1.3,4.1-1.9c0.1-0.1,0.2-0.1,0.2-0.3
					c0-2.2,0-4.5,0-6.7c0-1.8,0-3.6,0-5.4C411.1,176.3,411.1,176.1,411.1,176z M421.9,193.6C421.9,193.5,422,193.5,421.9,193.6
					c-3.5-5.9-7-11.7-10.5-17.6c0,0,0,0,0,0c0,0.1,0,0.1,0,0.2c0,1.4,0,2.7,0,4.1c0,2.8,0,5.6,0,8.4c0,0.1,0,0.2,0.1,0.2
					c1.5,0.7,3,1.3,4.4,2c1.2,0.6,2.5,1.1,3.7,1.7C420.4,192.9,421.2,193.2,421.9,193.6z M400.4,193.9c3.6,2.1,7.1,4.2,10.7,6.3
					c0-3.7,0-7.5,0-11.2C407.5,190.7,404,192.3,400.4,193.9z M411.4,189.1c0,3.7,0,7.5,0,11.2c3.6-2.1,7.1-4.2,10.7-6.3
					C418.5,192.3,414.9,190.7,411.4,189.1z"/>
				<path class="st11" d="M422.6,195.9C422.6,195.9,422.6,196,422.6,195.9c-0.8,1.2-1.6,2.3-2.4,3.4c-0.6,0.8-1.2,1.7-1.8,2.5
					c-1.2,1.7-2.5,3.5-3.7,5.2c-0.8,1.2-1.7,2.4-2.5,3.5c-0.3,0.4-0.6,0.8-0.8,1.2c-0.1,0.2-0.2,0.2-0.3,0c-0.8-1.2-1.7-2.4-2.5-3.6
					c-1.1-1.5-2.1-3-3.2-4.4c-0.8-1.1-1.6-2.3-2.4-3.4c-0.9-1.2-1.7-2.5-2.6-3.7c-0.2-0.2-0.3-0.4-0.5-0.7c0,0,0-0.1,0-0.2
					c0.1,0,0.1,0,0.2,0c1.7,1,3.5,2,5.2,3.1c1.7,1,3.4,2,5.1,3c0.3,0.2,0.5,0.3,0.8,0.5c0,0,0.1,0,0.2,0c1.5-0.9,2.9-1.7,4.4-2.6
					c1.5-0.9,2.9-1.7,4.4-2.6c0.8-0.5,1.6-0.9,2.3-1.4C422.5,195.8,422.5,195.8,422.6,195.9C422.6,195.8,422.6,195.9,422.6,195.9z
					 M400.7,196.5C400.7,196.5,400.7,196.5,400.7,196.5c3.4,4.9,6.9,9.8,10.4,14.7c0,0,0,0,0,0c0-0.1,0-0.1,0-0.2c0-2.7,0-5.5,0-8.2
					c0-0.1,0-0.2-0.1-0.3c-1-0.6-2-1.2-3-1.7c-1.1-0.6-2.1-1.3-3.2-1.9c-0.9-0.5-1.8-1.1-2.7-1.6
					C401.6,197.1,401.2,196.8,400.7,196.5z M421.8,196.6C421.8,196.6,421.8,196.5,421.8,196.6c-0.1,0-0.1,0-0.2,0.1
					c-2.2,1.3-4.3,2.6-6.5,3.8c-1.2,0.7-2.4,1.4-3.6,2.1c-0.1,0.1-0.1,0.1-0.1,0.2c0,0.4,0,0.8,0,1.2c0,2.4,0,4.7,0,7.1
					c0,0,0,0.1,0,0.1c0,0,0,0,0,0C414.9,206.4,418.3,201.5,421.8,196.6z"/>
				<g>
					<path class="st11" d="M411.1,176c0,0.2,0,0.3,0,0.5c0,1.8,0,3.6,0,5.4c0,2.2,0,4.5,0,6.7c0,0.1,0,0.2-0.2,0.3
						c-1.4,0.6-2.8,1.2-4.1,1.9c-1.3,0.6-2.7,1.2-4,1.8c-0.7,0.3-1.5,0.7-2.2,1c0,0,0,0-0.1,0C404,187.7,407.5,181.8,411.1,176
						C411.1,176,411.1,176,411.1,176z"/>
				</g>
				<g>
					<path class="st11" d="M421.9,193.6c-0.8-0.4-1.5-0.7-2.3-1.1c-1.2-0.6-2.5-1.1-3.7-1.7c-1.5-0.7-2.9-1.3-4.4-2
						c-0.1,0-0.1-0.1-0.1-0.2c0-2.8,0-5.6,0-8.4c0-1.4,0-2.7,0-4.1c0-0.1,0-0.1,0-0.2c0,0,0,0,0,0
						C414.9,181.8,418.4,187.7,421.9,193.6C422,193.5,421.9,193.5,421.9,193.6z"/>
				</g>
				<g>
					<path class="st11" d="M400.4,193.9c3.6-1.6,7.1-3.2,10.7-4.9c0,3.7,0,7.5,0,11.2C407.5,198.1,404,196,400.4,193.9z"/>
				</g>
				<g>
					<path class="st11" d="M411.4,189.1c3.6,1.6,7.1,3.2,10.7,4.9c-3.6,2.1-7.1,4.2-10.7,6.3C411.4,196.5,411.4,192.8,411.4,189.1z"
						/>
				</g>
				<g>
					<path class="st11" d="M400.7,196.5c0.5,0.3,0.9,0.6,1.4,0.8c0.9,0.5,1.8,1.1,2.7,1.6c1.1,0.6,2.1,1.3,3.2,1.9
						c1,0.6,2,1.2,3,1.7c0.1,0.1,0.1,0.1,0.1,0.3c0,2.7,0,5.5,0,8.2c0,0.1,0,0.1,0,0.2c0,0,0,0,0,0
						C407.6,206.4,404.1,201.5,400.7,196.5C400.7,196.5,400.7,196.5,400.7,196.5z"/>
				</g>
				<g>
					<path class="st11" d="M421.8,196.6c-3.5,4.9-6.9,9.8-10.4,14.7c0,0,0,0,0,0c0,0,0-0.1,0-0.1c0-2.4,0-4.7,0-7.1
						c0-0.4,0-0.8,0-1.2c0-0.1,0-0.2,0.1-0.2c1.2-0.7,2.4-1.4,3.6-2.1c2.2-1.3,4.3-2.6,6.5-3.8C421.7,196.6,421.7,196.6,421.8,196.6
						C421.8,196.5,421.8,196.6,421.8,196.6z"/>
				</g>
			</g>
		</g>
	</g>
	<g>
		<circle class="st8" cx="343.3" cy="395" r="9.3"/>
		<circle class="st12" cx="343.3" cy="395" r="9.7"/>
		<g>
			<g>
				<path class="st11" d="M347.4,395.2C347.4,395.2,347.4,395.2,347.4,395.2c-0.2,0.2-0.4,0.3-0.6,0.4c-0.6,0.4-1.2,0.7-1.8,1.1
					c-0.6,0.3-1.1,0.7-1.7,1c0,0-0.1,0-0.1,0c-0.5-0.3-0.9-0.5-1.4-0.8c-0.5-0.3-1-0.6-1.5-0.9c-0.4-0.2-0.8-0.5-1.2-0.7
					c0,0-0.1,0,0-0.1c0.3-0.6,0.7-1.1,1-1.7c0.3-0.5,0.6-1.1,1-1.6c0.4-0.7,0.8-1.4,1.2-2.1c0.3-0.5,0.6-1,0.9-1.5
					c0-0.1,0.1-0.1,0.1,0c0.4,0.6,0.7,1.2,1.1,1.8c0.5,0.8,1,1.6,1.5,2.4c0.4,0.7,0.9,1.5,1.3,2.2
					C347.2,394.8,347.3,395,347.4,395.2C347.4,395.2,347.4,395.2,347.4,395.2z M343.2,388.5C343.2,388.5,343.2,388.5,343.2,388.5
					c-1.3,2.2-2.6,4.3-4,6.5c0,0,0,0,0,0c0.3-0.1,0.5-0.2,0.8-0.4c0.5-0.2,1-0.5,1.5-0.7c0.5-0.2,1-0.5,1.5-0.7c0,0,0.1-0.1,0.1-0.1
					c0-0.8,0-1.7,0-2.5c0-0.7,0-1.3,0-2C343.2,388.6,343.2,388.6,343.2,388.5z M347.2,395.1C347.2,395,347.2,395,347.2,395.1
					c-1.3-2.2-2.6-4.4-3.9-6.5c0,0,0,0,0,0c0,0,0,0,0,0.1c0,0.5,0,1,0,1.5c0,1,0,2.1,0,3.1c0,0,0,0.1,0.1,0.1
					c0.5,0.2,1.1,0.5,1.6,0.7c0.5,0.2,0.9,0.4,1.4,0.6C346.7,394.8,346.9,394.9,347.2,395.1z M339.2,395.2c1.3,0.8,2.6,1.6,4,2.3
					c0-1.4,0-2.8,0-4.2C341.9,394,340.6,394.6,339.2,395.2z M343.3,393.4c0,1.4,0,2.8,0,4.2c1.3-0.8,2.6-1.6,4-2.3
					C345.9,394.6,344.6,394,343.3,393.4z"/>
				<path class="st11" d="M347.5,395.9C347.5,395.9,347.5,395.9,347.5,395.9c-0.3,0.4-0.6,0.9-0.9,1.3c-0.2,0.3-0.4,0.6-0.7,0.9
					c-0.5,0.6-0.9,1.3-1.4,1.9c-0.3,0.4-0.6,0.9-0.9,1.3c-0.1,0.1-0.2,0.3-0.3,0.4c0,0.1-0.1,0.1-0.1,0c-0.3-0.4-0.6-0.9-0.9-1.3
					c-0.4-0.6-0.8-1.1-1.2-1.7c-0.3-0.4-0.6-0.8-0.9-1.3c-0.3-0.5-0.6-0.9-1-1.4c-0.1-0.1-0.1-0.2-0.2-0.3c0,0,0,0,0-0.1
					c0,0,0.1,0,0.1,0c0.6,0.4,1.3,0.8,1.9,1.1c0.6,0.4,1.3,0.8,1.9,1.1c0.1,0.1,0.2,0.1,0.3,0.2c0,0,0,0,0.1,0
					c0.5-0.3,1.1-0.6,1.6-1c0.5-0.3,1.1-0.6,1.6-1C346.8,396.2,347.1,396.1,347.5,395.9C347.4,395.9,347.4,395.9,347.5,395.9
					C347.5,395.9,347.5,395.9,347.5,395.9z M339.3,396.2C339.3,396.2,339.3,396.2,339.3,396.2c1.3,1.8,2.6,3.6,3.9,5.5c0,0,0,0,0,0
					c0,0,0,0,0-0.1c0-1,0-2,0-3.1c0,0,0-0.1-0.1-0.1c-0.4-0.2-0.7-0.4-1.1-0.6c-0.4-0.2-0.8-0.5-1.2-0.7c-0.3-0.2-0.7-0.4-1-0.6
					C339.7,396.4,339.5,396.3,339.3,396.2z M347.2,396.2C347.2,396.2,347.2,396.2,347.2,396.2C347.1,396.2,347.1,396.2,347.2,396.2
					c-0.9,0.5-1.7,1-2.5,1.4c-0.4,0.3-0.9,0.5-1.3,0.8c0,0,0,0,0,0.1c0,0.1,0,0.3,0,0.4c0,0.9,0,1.8,0,2.6c0,0,0,0,0,0.1
					c0,0,0,0,0,0C344.6,399.8,345.9,398,347.2,396.2z"/>
				<g>
					<path class="st11" d="M343.2,388.5c0,0.1,0,0.1,0,0.2c0,0.7,0,1.3,0,2c0,0.8,0,1.7,0,2.5c0,0.1,0,0.1-0.1,0.1
						c-0.5,0.2-1,0.5-1.5,0.7c-0.5,0.2-1,0.5-1.5,0.7c-0.3,0.1-0.5,0.2-0.8,0.4c0,0,0,0,0,0C340.6,392.9,341.9,390.7,343.2,388.5
						C343.2,388.5,343.2,388.5,343.2,388.5z"/>
				</g>
				<g>
					<path class="st11" d="M347.2,395.1c-0.3-0.1-0.6-0.3-0.9-0.4c-0.5-0.2-0.9-0.4-1.4-0.6c-0.5-0.2-1.1-0.5-1.6-0.7
						c0,0-0.1,0-0.1-0.1c0-1,0-2.1,0-3.1c0-0.5,0-1,0-1.5c0,0,0,0,0-0.1c0,0,0,0,0,0C344.6,390.7,345.9,392.9,347.2,395.1
						C347.2,395,347.2,395,347.2,395.1z"/>
				</g>
				<g>
					<path class="st11" d="M339.2,395.2c1.3-0.6,2.6-1.2,4-1.8c0,1.4,0,2.8,0,4.2C341.9,396.8,340.6,396,339.2,395.2z"/>
				</g>
				<g>
					<path class="st11" d="M343.3,393.4c1.3,0.6,2.6,1.2,4,1.8c-1.3,0.8-2.6,1.6-4,2.3C343.3,396.1,343.3,394.8,343.3,393.4z"/>
				</g>
				<g>
					<path class="st11" d="M339.3,396.2c0.2,0.1,0.4,0.2,0.5,0.3c0.3,0.2,0.7,0.4,1,0.6c0.4,0.2,0.8,0.5,1.2,0.7
						c0.4,0.2,0.7,0.4,1.1,0.6c0,0,0.1,0,0.1,0.1c0,1,0,2,0,3.1c0,0,0,0,0,0.1c0,0,0,0,0,0C341.9,399.8,340.6,398,339.3,396.2
						C339.3,396.2,339.3,396.2,339.3,396.2z"/>
				</g>
				<g>
					<path class="st11" d="M347.2,396.2c-1.3,1.8-2.6,3.6-3.9,5.4c0,0,0,0,0,0c0,0,0,0,0-0.1c0-0.9,0-1.8,0-2.6c0-0.1,0-0.3,0-0.4
						c0,0,0-0.1,0-0.1c0.5-0.3,0.9-0.5,1.3-0.8C345.5,397.1,346.3,396.7,347.2,396.2C347.1,396.2,347.1,396.2,347.2,396.2
						C347.2,396.2,347.2,396.2,347.2,396.2z"/>
				</g>
			</g>
		</g>
	</g>
	<g>
		<circle class="st8" cx="217.5" cy="275.9" r="12.3"/>
		<circle class="st13" cx="217.5" cy="275.9" r="12.9"/>
		<g>
			<g>
				<path class="st11" d="M222.9,276.1C222.9,276.1,222.9,276.2,222.9,276.1c-0.3,0.2-0.6,0.4-0.8,0.5c-0.8,0.5-1.6,1-2.4,1.4
					c-0.7,0.4-1.5,0.9-2.2,1.3c0,0-0.1,0-0.1,0c-0.6-0.4-1.2-0.7-1.8-1.1c-0.7-0.4-1.3-0.8-2-1.2c-0.5-0.3-1.1-0.6-1.6-0.9
					c-0.1,0-0.1-0.1,0-0.1c0.5-0.7,0.9-1.5,1.4-2.2c0.4-0.7,0.9-1.4,1.3-2.1c0.5-0.9,1.1-1.8,1.6-2.7c0.4-0.7,0.8-1.3,1.2-2
					c0-0.1,0.1-0.1,0.1,0c0.5,0.8,0.9,1.6,1.4,2.4c0.6,1.1,1.3,2.1,1.9,3.2c0.6,1,1.2,1.9,1.7,2.9
					C222.7,275.7,222.8,275.9,222.9,276.1C222.9,276.1,222.9,276.1,222.9,276.1z M217.3,267.3C217.3,267.3,217.3,267.3,217.3,267.3
					c-1.8,2.9-3.5,5.7-5.2,8.6c0,0,0,0,0.1,0c0.4-0.2,0.7-0.3,1.1-0.5c0.7-0.3,1.3-0.6,2-0.9c0.7-0.3,1.4-0.6,2-0.9
					c0.1,0,0.1-0.1,0.1-0.1c0-1.1,0-2.2,0-3.3c0-0.9,0-1.8,0-2.6C217.3,267.4,217.3,267.4,217.3,267.3z M222.6,275.9
					C222.7,275.9,222.7,275.9,222.6,275.9c-1.7-2.9-3.4-5.8-5.2-8.6c0,0,0,0,0,0c0,0,0,0,0,0.1c0,0.7,0,1.3,0,2c0,1.4,0,2.7,0,4.1
					c0,0.1,0,0.1,0.1,0.1c0.7,0.3,1.4,0.7,2.2,1c0.6,0.3,1.2,0.6,1.8,0.8C221.9,275.6,222.3,275.8,222.6,275.9z M212.1,276.1
					c1.8,1,3.5,2.1,5.3,3.1c0-1.8,0-3.7,0-5.5C215.6,274.5,213.8,275.3,212.1,276.1z M217.5,273.7c0,1.8,0,3.7,0,5.5
					c1.8-1,3.5-2.1,5.2-3.1C221,275.3,219.2,274.5,217.5,273.7z"/>
				<path class="st11" d="M223,277.1C223,277.1,223,277.1,223,277.1c-0.4,0.6-0.8,1.1-1.2,1.7c-0.3,0.4-0.6,0.8-0.9,1.2
					c-0.6,0.9-1.2,1.7-1.8,2.6c-0.4,0.6-0.8,1.2-1.2,1.7c-0.1,0.2-0.3,0.4-0.4,0.6c-0.1,0.1-0.1,0.1-0.2,0c-0.4-0.6-0.8-1.2-1.2-1.7
					c-0.5-0.7-1-1.5-1.5-2.2c-0.4-0.6-0.8-1.1-1.2-1.7c-0.4-0.6-0.9-1.2-1.3-1.8c-0.1-0.1-0.2-0.2-0.2-0.3c0,0,0-0.1,0-0.1
					c0,0,0.1,0,0.1,0c0.8,0.5,1.7,1,2.5,1.5c0.8,0.5,1.7,1,2.5,1.5c0.1,0.1,0.3,0.2,0.4,0.2c0,0,0.1,0,0.1,0
					c0.7-0.4,1.4-0.8,2.1-1.3c0.7-0.4,1.4-0.9,2.2-1.3C222.1,277.5,222.5,277.3,223,277.1C222.9,277,222.9,277,223,277.1
					C223,277,223,277.1,223,277.1z M212.2,277.4C212.2,277.4,212.2,277.4,212.2,277.4c1.7,2.4,3.4,4.8,5.1,7.2c0,0,0,0,0,0
					c0,0,0,0,0-0.1c0-1.3,0-2.7,0-4c0-0.1,0-0.1-0.1-0.1c-0.5-0.3-1-0.6-1.5-0.9c-0.5-0.3-1-0.6-1.6-0.9c-0.4-0.3-0.9-0.5-1.3-0.8
					C212.7,277.7,212.4,277.5,212.2,277.4z M222.6,277.4C222.6,277.4,222.6,277.4,222.6,277.4C222.6,277.4,222.5,277.4,222.6,277.4
					c-1.2,0.7-2.2,1.3-3.3,1.9c-0.6,0.4-1.2,0.7-1.8,1.1c0,0-0.1,0.1-0.1,0.1c0,0.2,0,0.4,0,0.6c0,1.2,0,2.3,0,3.5c0,0,0,0,0,0.1
					c0,0,0,0,0,0C219.2,282.2,220.9,279.8,222.6,277.4z"/>
				<g>
					<path class="st11" d="M217.3,267.3c0,0.1,0,0.1,0,0.2c0,0.9,0,1.8,0,2.6c0,1.1,0,2.2,0,3.3c0,0.1,0,0.1-0.1,0.1
						c-0.7,0.3-1.4,0.6-2,0.9c-0.7,0.3-1.3,0.6-2,0.9c-0.4,0.2-0.7,0.3-1.1,0.5c0,0,0,0-0.1,0C213.9,273,215.6,270.2,217.3,267.3
						C217.3,267.3,217.3,267.3,217.3,267.3z"/>
				</g>
				<g>
					<path class="st11" d="M222.6,275.9c-0.4-0.2-0.8-0.3-1.1-0.5c-0.6-0.3-1.2-0.6-1.8-0.8c-0.7-0.3-1.4-0.7-2.2-1
						c-0.1,0-0.1-0.1-0.1-0.1c0-1.4,0-2.7,0-4.1c0-0.7,0-1.3,0-2c0,0,0,0,0-0.1c0,0,0,0,0,0C219.2,270.2,220.9,273,222.6,275.9
						C222.7,275.9,222.7,275.9,222.6,275.9z"/>
				</g>
				<g>
					<path class="st11" d="M212.1,276.1c1.8-0.8,3.5-1.6,5.3-2.4c0,1.8,0,3.7,0,5.5C215.6,278.2,213.8,277.2,212.1,276.1z"/>
				</g>
				<g>
					<path class="st11" d="M217.5,273.7c1.7,0.8,3.5,1.6,5.2,2.4c-1.8,1-3.5,2.1-5.2,3.1C217.5,277.4,217.5,275.6,217.5,273.7z"/>
				</g>
				<g>
					<path class="st11" d="M212.2,277.4c0.2,0.1,0.5,0.3,0.7,0.4c0.4,0.3,0.9,0.5,1.3,0.8c0.5,0.3,1,0.6,1.6,0.9
						c0.5,0.3,1,0.6,1.5,0.9c0.1,0,0.1,0.1,0.1,0.1c0,1.3,0,2.7,0,4c0,0,0,0,0,0.1c0,0,0,0,0,0C215.6,282.2,213.9,279.8,212.2,277.4
						C212.2,277.4,212.2,277.4,212.2,277.4z"/>
				</g>
				<g>
					<path class="st11" d="M222.6,277.4c-1.7,2.4-3.4,4.8-5.1,7.2c0,0,0,0,0,0c0,0,0,0,0-0.1c0-1.2,0-2.3,0-3.5c0-0.2,0-0.4,0-0.6
						c0-0.1,0-0.1,0.1-0.1c0.6-0.4,1.2-0.7,1.8-1.1C220.4,278.7,221.4,278.1,222.6,277.4C222.5,277.4,222.6,277.4,222.6,277.4
						C222.6,277.4,222.6,277.4,222.6,277.4z"/>
				</g>
			</g>
		</g>
	</g>
	<g>
		<path class="st6" d="M378.8,434.8c-8.3,0-14.8-6.6-14.8-15c0-7.9,6.7-14.6,14.8-14.6c7.9-0.1,14.7,6.8,14.8,14.8
			C393.6,428.1,386.9,434.8,378.8,434.8z M390.5,420.1c0-6.6-5.1-11.9-11.6-11.9c-6.6,0-11.9,5.2-12,11.8c0,6.4,5.3,11.8,11.5,11.9
			C385.3,431.9,390.5,426.8,390.5,420.1z"/>
		<ellipse class="st7" cx="378.8" cy="420" rx="11.9" ry="11.8"/>
		<path class="st8" d="M375.6,415c0.8-0.1,1.7-0.2,2.8-0.2c1.9,0,3.2,0.4,4.1,1.3c0.9,0.8,1.4,2,1.4,3.6c0,1.7-0.5,3-1.5,3.9
			c-0.9,0.9-2.5,1.5-4.5,1.5c-0.9,0-1.7,0-2.4-0.1V415z M376.9,424c0.3,0.1,0.8,0.1,1.3,0.1c2.8,0,4.3-1.6,4.3-4.3
			c0-2.4-1.3-3.9-4.1-3.9c-0.7,0-1.2,0.1-1.5,0.1V424z"/>
	</g>
	<g>
		<path class="st6" d="M444.7,281.4c-15.4,0.1-27.5-12.2-27.5-27.9c0-14.7,12.5-27.1,27.5-27.2c14.7-0.1,27.4,12.6,27.5,27.6
			C472.2,268.9,459.8,281.4,444.7,281.4z M466.4,254c0-12.3-9.5-22.1-21.6-22.1c-12.2,0-22.2,9.8-22.2,22
			c-0.1,11.9,9.8,22,21.5,22.1C456.7,276.1,466.4,266.6,466.4,254z"/>
		<ellipse class="st7" cx="444.7" cy="254" rx="22.1" ry="22"/>
		<path class="st8" d="M438.8,244.6c1.5-0.2,3.2-0.4,5.2-0.4c3.5,0,6,0.8,7.6,2.3c1.7,1.5,2.7,3.7,2.7,6.8c0,3.1-0.9,5.6-2.7,7.3
			c-1.8,1.8-4.7,2.7-8.3,2.7c-1.7,0-3.2-0.1-4.4-0.2V244.6z M441.2,261.3c0.6,0.1,1.5,0.1,2.5,0.1c5.2,0,8-2.9,8-8
			c0-4.4-2.5-7.3-7.6-7.3c-1.3,0-2.2,0.1-2.8,0.3V261.3z"/>
	</g>
	<g>
		<path class="st6" d="M277.1,258.3c-13.2,0.1-23.6-10.5-23.6-23.9c0-12.6,10.7-23.2,23.5-23.3c12.6-0.1,23.5,10.8,23.5,23.6
			C300.6,247.6,290,258.3,277.1,258.3z M295.7,234.9c0-10.5-8.1-18.9-18.5-18.9c-10.5,0-19,8.4-19,18.8
			c-0.1,10.2,8.4,18.8,18.4,18.9C287.4,253.7,295.7,245.6,295.7,234.9z"/>
		<ellipse class="st7" cx="277.1" cy="234.8" rx="18.9" ry="18.9"/>
		<path class="st8" d="M272,226.8c1.3-0.2,2.8-0.3,4.4-0.3c3,0,5.1,0.7,6.5,2c1.4,1.3,2.3,3.2,2.3,5.8c0,2.6-0.8,4.8-2.3,6.3
			c-1.5,1.5-4,2.3-7.1,2.3c-1.5,0-2.7-0.1-3.8-0.2V226.8z M274.1,241c0.5,0.1,1.3,0.1,2.1,0.1c4.4,0,6.9-2.5,6.9-6.8
			c0-3.8-2.1-6.2-6.5-6.2c-1.1,0-1.9,0.1-2.4,0.2V241z"/>
	</g>
	<g>
		<circle class="st14" cx="489.5" cy="293.9" r="23.2"/>
		<circle class="st15" cx="489.5" cy="293.9" r="24.4"/>
		<path class="st16" d="M485.3,281.3h2.6v17.9h8.6v2.2h-11.2V281.3z"/>
	</g>
	<g>
		<circle class="st14" cx="211.9" cy="388" r="23.2"/>
		<circle class="st15" cx="211.9" cy="388" r="24.4"/>
		<path class="st16" d="M207.7,375.4h2.6v17.9h8.6v2.2h-11.2V375.4z"/>
	</g>
	<g>
		<circle class="st14" cx="259.1" cy="345.3" r="10.9"/>
		<circle class="st15" cx="259.1" cy="345.3" r="11.4"/>
		<path class="st16" d="M257.2,339.5h1.2v8.4h4v1h-5.2V339.5z"/>
	</g>
	<g>
		<circle class="st14" cx="225.7" cy="206.9" r="25.9"/>
		<circle class="st15" cx="225.7" cy="206.9" r="27.2"/>
		<path class="st16" d="M221,193h2.9v20h9.6v2.4H221V193z"/>
	</g>
	<g>
		<circle class="st17" cx="161.8" cy="347.7" r="26.4"/>
		<circle class="st18" cx="161.8" cy="347.7" r="27.7"/>
		<path class="st16" d="M168.1,357c-0.9,0.5-2.8,0.9-5.3,0.9c-5.6,0-9.9-3.6-9.9-10.1c0-6.2,4.2-10.5,10.4-10.5
			c2.5,0,4.1,0.5,4.7,0.9l-0.6,2.1c-1-0.5-2.4-0.8-4-0.8c-4.7,0-7.8,3-7.8,8.2c0,4.9,2.8,8,7.7,8c1.6,0,3.2-0.3,4.2-0.8L168.1,357z"
			/>
	</g>
	<g>
		<circle class="st19" cx="421.6" cy="372.6" r="14.1"/>
		<circle class="st18" cx="421.6" cy="372.6" r="14.9"/>
		<path class="st16" d="M425,377.6c-0.5,0.3-1.5,0.5-2.8,0.5c-3,0-5.3-1.9-5.3-5.4c0-3.3,2.3-5.6,5.6-5.6c1.3,0,2.2,0.3,2.5,0.5
			l-0.3,1.1c-0.5-0.3-1.3-0.4-2.2-0.4c-2.5,0-4.2,1.6-4.2,4.4c0,2.6,1.5,4.3,4.1,4.3c0.8,0,1.7-0.2,2.3-0.4L425,377.6z"/>
	</g>
	<g>
		<path class="st6" d="M286.8,394.7c-7.5,0-13.3-5.9-13.3-13.5c0-7.1,6.1-13.1,13.3-13.2c7.1-0.1,13.3,6.1,13.3,13.3
			C300.1,388.7,294.1,394.7,286.8,394.7z M297.4,381.5c0-5.9-4.6-10.7-10.5-10.7c-5.9,0-10.7,4.7-10.8,10.6
			c0,5.7,4.7,10.6,10.4,10.7C292.7,392.1,297.3,387.6,297.4,381.5z"/>
		<ellipse class="st7" cx="286.8" cy="381.4" rx="10.7" ry="10.7"/>
		<path class="st8" d="M284.9,376.9c0.6-0.1,1.3-0.2,2.3-0.2c1.2,0,2,0.3,2.6,0.8c0.5,0.4,0.8,1.1,0.8,1.9c0,0.8-0.2,1.5-0.7,1.9
			c-0.6,0.7-1.6,1-2.8,1c-0.4,0-0.7,0-0.9-0.1v3.6h-1.2V376.9z M286,381.2c0.3,0.1,0.6,0.1,1,0.1c1.4,0,2.3-0.7,2.3-1.9
			c0-1.2-0.9-1.8-2.2-1.8c-0.5,0-0.9,0-1.1,0.1V381.2z"/>
	</g>
	<g>
		<path class="st6" d="M327.7,270.3c-7.5,0-13.3-5.9-13.3-13.5c0-7.1,6.1-13.1,13.3-13.2c7.1-0.1,13.3,6.1,13.3,13.3
			C340.9,264.2,335,270.2,327.7,270.3z M338.2,257c0-5.9-4.6-10.7-10.5-10.7c-5.9,0-10.7,4.7-10.8,10.6c0,5.7,4.7,10.6,10.4,10.7
			C333.5,267.7,338.1,263.1,338.2,257z"/>
		<ellipse class="st7" cx="327.6" cy="257" rx="10.7" ry="10.7"/>
		<path class="st8" d="M325.7,252.4c0.6-0.1,1.3-0.2,2.3-0.2c1.2,0,2,0.3,2.6,0.8c0.5,0.4,0.8,1.1,0.8,1.9c0,0.8-0.2,1.5-0.7,1.9
			c-0.6,0.7-1.6,1-2.8,1c-0.4,0-0.7,0-0.9-0.1v3.6h-1.2V252.4z M326.8,256.8c0.3,0.1,0.6,0.1,1,0.1c1.4,0,2.3-0.7,2.3-1.9
			c0-1.2-0.9-1.8-2.2-1.8c-0.5,0-0.9,0-1.1,0.1V256.8z"/>
	</g>
	<g>
		<path class="st6" d="M486,381.9c-15.1,0.1-27-12-27.1-27.4c0-14.4,12.3-26.5,27-26.7c14.5-0.1,26.9,12.3,27,27
			C513,369.7,500.8,381.9,486,381.9z M507.3,355.1c0-12.1-9.3-21.6-21.2-21.7c-12,0-21.8,9.6-21.8,21.5
			c-0.1,11.6,9.6,21.6,21.1,21.7C497.8,376.7,507.3,367.4,507.3,355.1z"/>
		<ellipse class="st7" cx="485.9" cy="355" rx="21.7" ry="21.6"/>
		<path class="st8" d="M482,345.7c1.2-0.2,2.7-0.4,4.6-0.4c2.4,0,4.1,0.5,5.2,1.5c1,0.9,1.6,2.2,1.6,3.9c0,1.7-0.5,3-1.4,3.9
			c-1.3,1.3-3.3,2-5.6,2c-0.7,0-1.4,0-1.9-0.2v7.4H482V345.7z M484.4,354.6c0.5,0.1,1.2,0.2,2,0.2c2.9,0,4.6-1.4,4.6-3.9
			c0-2.4-1.7-3.6-4.4-3.6c-1,0-1.8,0.1-2.2,0.2V354.6z"/>
	</g>
	<circle cx="300.1" cy="549.1" r="1.6"/>
	<circle cx="290.9" cy="568.5" r="1.6"/>
	<circle cx="249.1" cy="575.8" r="1.6"/>
	<circle cx="235.5" cy="575.8" r="1.6"/>
	<circle cx="341.7" cy="568.5" r="1.6"/>
	<circle cx="233.9" cy="563.8" r="1.6"/>
	<circle cx="257.5" cy="547.6" r="1.6"/>
	<circle cx="273.5" cy="574.3" r="1.6"/>
	<circle cx="385.7" cy="538.9" r="1.6"/>
	<circle cx="275.1" cy="539.9" r="1.6"/>
	<circle cx="247.5" cy="557.9" r="1.6"/>
	<circle cx="259.1" cy="565.3" r="1.6"/>
	<circle cx="271.9" cy="554.7" r="1.6"/>
	<circle cx="308.2" cy="566.9" r="1.6"/>
	<circle cx="402.5" cy="538.4" r="1.6"/>
	<circle cx="343.3" cy="538.4" r="1.6"/>
	<circle cx="311.4" cy="539.9" r="1.6"/>
	<circle cx="287.7" cy="556.3" r="1.6"/>
	<circle cx="289.3" cy="535.2" r="1.6"/>
	<circle cx="322.2" cy="535.2" r="1.6"/>
	<circle cx="352.6" cy="547.6" r="1.6"/>
	<circle cx="320.7" cy="552.3" r="1.6"/>
	<circle cx="332.5" cy="581" r="1.6"/>
	<circle cx="323.8" cy="566.9" r="1.6"/>
	<circle cx="357.6" cy="568.5" r="1.6"/>
	<circle cx="404.1" cy="566.9" r="1.6"/>
	<circle cx="351" cy="526" r="1.6"/>
	<circle cx="303.3" cy="527.6" r="1.6"/>
	<circle cx="384.2" cy="550.7" r="1.6"/>
	<circle cx="368.4" cy="538.4" r="1.6"/>
	<circle cx="357.6" cy="533.6" r="1.6"/>
	<circle cx="359.2" cy="554.7" r="1.6"/>
	<circle cx="373.5" cy="566.9" r="1.6"/>
	<circle cx="347.5" cy="582.6" r="1.6"/>
	<circle cx="389.5" cy="563.8" r="1.6"/>
	<circle cx="405.6" cy="544.4" r="1.6"/>
	<circle cx="335.6" cy="553.2" r="1.6"/>
	<circle cx="334" cy="533.6" r="1.6"/>
</g>
</svg>
