<?xml version="1.0" encoding="utf-8"?>
<!-- Generator: Adobe Illustrator 24.3.0, SVG Export Plug-In . SVG Version: 6.00 Build 0)  -->
<svg version="1.1" id="Layer_1" xmlns="http://www.w3.org/2000/svg" xmlns:xlink="http://www.w3.org/1999/xlink" x="0px" y="0px"
	 viewBox="0 0 615.2 709.7" style="enable-background:new 0 0 615.2 709.7;" xml:space="preserve">
<style type="text/css">
	.st0{fill:#E1E84D;}
	.st1{fill:#E2DEC7;}
	.st2{fill:#747F57;}
	.st3{fill:#15003E;}
	.st4{fill:#E1E84D;stroke:#0FCE7C;stroke-width:2;stroke-miterlimit:10;}
	.st5{fill:#007E00;}
	.st6{fill:#FEFE00;}
	.st7{fill:#7E3E00;}
	.st8{fill:none;}
	.st9{fill:#DBD9D9;}
	.st10{stroke:#141212;stroke-miterlimit:10;}
	.st11{fill:#FECB01;}
	.st12{fill:#20211F;}
	.st13{fill:#20211F;stroke:#454545;stroke-miterlimit:10;}
	.st14{fill:#1D1D1B;stroke:#606060;stroke-miterlimit:10;}
</style>
<path class="st0" d="M308,11.3L11,182.8v343l297,171.5l297-171.5v-343L308,11.3z M553.8,496.2L308.1,638.1L62.3,496.2V212.4
	l245.8-142l245.7,142V496.2z"/>
<polygon class="st1" points="541,487.5 541,218 307.6,83.3 74.2,218 74.2,487.5 307.6,622.2 "/>
<path class="st2" d="M307.6,68.8L61.8,210.7v283.8l245.8,141.9l245.7-141.9V210.7L307.6,68.8z M541,487.4L307.6,622.1L74.2,487.4
	V217.9L307.6,83.1L541,217.9V487.4z"/>
<g>
	<path class="st3" d="M236.4,641c-1.8-7.5-3.6-14.8-5.5-22.3c-2.6,4.5-5.1,8.8-7.6,13.2c-1-0.6-1.9-1.1-2.8-1.6
		c3.8-6.7,7.7-13.3,11.6-20.1c1.8,7.5,3.6,14.9,5.5,22.4c2.6-4.5,5.1-8.8,7.6-13.2c1,0.6,1.9,1.1,2.8,1.6
		C244.1,627.6,240.3,634.1,236.4,641z"/>
	<path class="st3" d="M119.1,551.2c-1,0.2-2,0.5-3,0.7c-0.2-0.8-0.4-1.6-0.7-2.3c-2.1-5.8-9.6-7.1-13.6-2.4c-3.4,4-2.7,9.5,1.6,12.4
		c3,2.1,7.5,0.8,8.6-1.5c-1.5-0.9-3-1.7-4.6-2.6c0.5-0.9,1-1.8,1.5-2.7c1.3,0.8,2.6,1.5,3.9,2.2c1.3,0.7,2.5,1.5,3.8,2.2
		c-2.5,6.1-9,8.3-14.4,5.3c-4.2-2.3-6.5-7.1-5.7-11.7c0.9-4.8,4.7-8.7,9.5-9.4C112.4,540.4,118.3,544.8,119.1,551.2z"/>
	<path class="st3" d="M169.7,595.3c-0.5,0.9-1,1.6-1.4,2.4c-0.4,0.8-0.9,0.9-1.7,0.8c-7-0.8-11.7-7.1-10.2-13.8
		c1-4.4,4.7-7.9,9.3-8.8c4.3-0.8,8.9,1.3,11.4,5c0.4,0.6,0.4,1,0,1.5c-0.5,0.7-0.9,1.5-1.5,2.5c-1.3-3-3.2-5.2-6.3-5.9
		c-1.8-0.4-3.6-0.1-5.2,0.7c-3.5,1.7-5.4,5.8-4.5,9.5C160.7,593.5,163.8,595.3,169.7,595.3z"/>
	<path class="st3" d="M149.9,567.8c-3.2,5.5-6.2,10.8-9.4,16.2c-1-0.6-1.8-1.1-2.8-1.6c3.1-5.4,6.2-10.7,9.4-16.2
		c-1.5-0.9-2.9-1.7-4.3-2.5c0.5-0.9,1-1.7,1.5-2.6c3.8,2.2,7.6,4.4,11.5,6.6c-0.5,0.8-0.9,1.6-1.5,2.6
		C152.8,569.5,151.4,568.7,149.9,567.8z"/>
	<path class="st3" d="M132.2,554.2c0.9,0.5,1.8,1,2.7,1.6c-3.6,6.3-7.3,12.6-10.9,18.9c-0.9-0.5-1.7-1-2.7-1.6
		C125,566.8,128.6,560.5,132.2,554.2z"/>
	<path class="st3" d="M209.2,623.8c-0.9-0.5-1.8-1-2.7-1.5c3.6-6.3,7.2-12.5,10.9-18.9c0.9,0.5,1.7,1,2.7,1.5
		C216.5,611.2,212.8,617.4,209.2,623.8z"/>
	<circle class="st4" cx="195" cy="598.2" r="11.5"/>
</g>
<g>
	<path class="st5" d="M317.3,426.8l-0.3,8l-0.1,2.8c0,0,3.2,42.2-1.7,64.2l-4.6,28.1l-4.6-1.1l2.7-28.6c0,0,5.8-39,1.4-52.5
		l0.5-13.6L317.3,426.8z"/>
	<path class="st5" d="M355.2,460.1c-16.9-4.9-32.5,6.4-41,24c8.3-1.8,16.4-3.1,24.2-5.4C347.4,476.1,353.2,469.9,355.2,460.1z"/>
	<path class="st5" d="M308.5,521.7c0.3-6.2,0.9-12.5,0.7-18.7c-0.3-11.7-7.9-21.4-18.9-24.7c-5.9,8.8-5.1,19.9,1,27.2
		c5,6,10.8,11.3,16.3,16.8C307.9,522.1,308.2,521.9,308.5,521.7z"/>
	<path class="st6" d="M323.5,402.2c5.4-2.5,9.1-6.3,10.3-12.8c2.8,0.3,5.5,0.5,8.2,1c4.2,0.7,8.4,1.6,12.2,3.6
		c1.9,1,3.4,2.5,4.9,4.2c2.4,2.7,2.4,5.7,1.8,8.9c-1.6,8.7-7.7,15.4-15.7,17.1c-6.5,1.3-12.3-0.1-17-4.9c-0.3-0.4-0.7-0.9-0.7-1.4
		c-0.3-5.3-1.8-10.2-3.8-14.9C323.7,402.7,323.6,402.5,323.5,402.2z"/>
	<path class="st6" d="M269.6,390.1c5.7-3.2,11.8-3.9,18.1-3.7c1.8,0.1,3.6,0.3,5.4,0.5c0.6,0.1,1,0.3,1.1,1.1
		c0.5,2.8,1.7,5.2,3.3,7.4c0.2,0.3,0.3,0.9,0.1,1.3c-2.8,5.6-5.5,11.3-7.3,17.4c-0.2,0.8-0.5,1.5-0.6,2.3c-0.1,1.3-1,1.8-2,2.2
		c-6.6,2.6-12.4,0.8-17.5-3.6c-2-1.7-3.6-3.7-5.4-5.6c0,0-0.1,0.1-0.2,0.3c-0.1-0.2-0.3-0.3-0.4-0.5
		C259.8,402.2,262,394.3,269.6,390.1z"/>
	<path class="st7" d="M329.8,380.2c4.2,7.1,1.7,15.5-5.5,19.3c-4.5,2.3-9.1,2.6-13.9,1.6c-4.8-1.3-8.8-3.7-11.6-7.9
		c-4.9-7.2-2.9-15.8,4.7-20.1C312.2,368.1,324.7,371.5,329.8,380.2z"/>
	<path class="st6" d="M344.9,362.9c-5.6,2.2-10.7,5.1-15.3,9c-0.4,0.3-0.7,0.7-1.1,1c-0.4,0.3-0.7,0.7-1.1,1
		c-4.9-4-10.4-5.7-16.6-5.3c-0.5-3.4-0.5-6.7-0.1-10.1c0.4-3.1,1.1-6,2.4-8.8c3.1-6.6,8-9.6,15.1-8.7c5.6,0.7,10.6,3.2,14.6,7.4
		c3.6,3.8,4.2,8.5,3.2,13.5C345.9,362.4,345.4,362.8,344.9,362.9z"/>
	<path class="st6" d="M357.7,392.8c-0.3,0.2-0.8,0.1-1.1-0.1c-4.4-2.5-9.3-3.6-14.1-4.5c-2.8-0.5-5.6-0.8-8.5-1.1
		c-0.1-4.3-1.9-8.1-4.8-11.4c4.6-4.7,9.7-8.1,15.7-10.3c3.4-1.2,6.8-2.1,10.4-1.8c1.5,0.1,3.1,0.6,4.6,1.1c2.5,0.8,3.9,2.7,4.8,5.1
		c2.2,5.9,2.3,11.7-0.8,17.4C362.3,389.7,360.2,391.5,357.7,392.8z"/>
	<path class="st6" d="M273.7,363.4c7.3-0.6,13.7,1.8,20,5.8c-0.5,0-0.8-0.1-1.1-0.1c1.9,1.7,3.7,3.4,5.7,5.2
		c-2.8,3-4.1,6.5-4.4,10.4c-10.3-1.3-20.1-0.9-29.1,6.1c-0.8-1.1-1.8-2.2-2.4-3.5c-1.7-4-2.5-8.1-1.5-12.5
		C262.6,367.6,266.6,364,273.7,363.4z"/>
	<path class="st6" d="M308.5,368.9c-1.5,0.5-3.1,0.9-4.6,1.6c-1.5,0.7-2.8,1.6-4.3,2.4c-5.7-6.6-13-10.2-21.6-11.5
		c-0.1-3.4,0.9-6.4,3.2-8.7c5.4-5.6,12.1-8.3,19.7-8.2c4.1,0,7.7,3.1,8.9,7.1c0.1,0.3,0.1,0.7,0,1c-1.6,5.3-1.9,10.7-1.3,16.1
		C308.6,368.7,308.6,368.8,308.5,368.9z"/>
	<path class="st8" d="M357.7,392.8c-0.3,0.2-0.8,0.1-1.1-0.1c-4.4-2.5-9.3-3.6-14.1-4.5c-2.8-0.5-5.6-0.8-8.5-1.1
		c-0.1-4.3-1.9-8.1-4.8-11.4c4.6-4.7,9.7-8.1,15.7-10.3c3.4-1.2,6.8-2.1,10.4-1.8c1.5,0.1,3.1,0.6,4.6,1.1c2.5,0.8,3.9,2.7,4.8,5.1
		c2.2,5.9,2.3,11.7-0.8,17.4C362.3,389.7,360.2,391.5,357.7,392.8z"/>
	<path class="st8" d="M344.9,362.9c-5.6,2.2-10.7,5.1-15.3,9c-0.4,0.3-0.7,0.7-1.1,1c-0.4,0.3-0.7,0.7-1.1,1
		c-4.9-4-10.4-5.7-16.6-5.3c-0.5-3.4-0.5-6.7-0.1-10.1c0.4-3.1,1.1-6,2.4-8.8c3.1-6.6,8-9.6,15.1-8.7c5.6,0.7,10.6,3.2,14.6,7.4
		c3.6,3.8,4.2,8.5,3.2,13.5C345.9,362.4,345.4,362.8,344.9,362.9z"/>
	<path class="st8" d="M329.8,380.2c4.2,7.1,1.7,15.5-5.5,19.3c-4.5,2.3-9.1,2.6-13.9,1.6c-4.8-1.3-8.8-3.7-11.6-7.9
		c-4.9-7.2-2.9-15.8,4.7-20.1C312.2,368.1,324.7,371.5,329.8,380.2z"/>
	<path class="st8" d="M323.5,402.2c5.4-2.5,9.1-6.3,10.3-12.8c2.8,0.3,5.5,0.5,8.2,1c4.2,0.7,8.4,1.6,12.2,3.6
		c1.9,1,3.4,2.5,4.9,4.2c2.4,2.7,2.4,5.7,1.8,8.9c-1.6,8.7-7.7,15.4-15.7,17.1c-6.5,1.3-12.3-0.1-17-4.9c-0.3-0.4-0.7-0.9-0.7-1.4
		c-0.3-5.3-1.8-10.2-3.8-14.9C323.7,402.7,323.6,402.5,323.5,402.2z"/>
	<path class="st8" d="M308.5,368.9c-1.5,0.5-3.1,0.9-4.6,1.6c-1.5,0.7-2.8,1.6-4.3,2.4c-5.7-6.6-13-10.2-21.6-11.5
		c-0.1-3.4,0.9-6.4,3.2-8.7c5.4-5.6,12.1-8.3,19.7-8.2c4.1,0,7.7,3.1,8.9,7.1c0.1,0.3,0.1,0.7,0,1c-1.6,5.3-1.9,10.7-1.3,16.1
		C308.6,368.7,308.6,368.8,308.5,368.9z"/>
	<path class="st8" d="M273.7,363.4c7.3-0.6,13.7,1.8,20,5.8c-0.5,0-0.8-0.1-1.1-0.1c1.9,1.7,3.7,3.4,5.7,5.2
		c-2.8,3-4.1,6.5-4.4,10.4c-10.3-1.3-20.1-0.9-29.1,6.1c-0.8-1.1-1.8-2.2-2.4-3.5c-1.7-4-2.5-8.1-1.5-12.5
		C262.6,367.6,266.6,364,273.7,363.4z"/>
	<path class="st8" d="M269.6,390.1c5.7-3.2,11.8-3.9,18.1-3.7c1.8,0.1,3.6,0.3,5.4,0.5c0.6,0.1,1,0.3,1.1,1.1
		c0.5,2.8,1.7,5.2,3.3,7.4c0.2,0.3,0.3,0.9,0.1,1.3c-2.8,5.6-5.5,11.3-7.3,17.4c-0.2,0.8-0.5,1.5-0.6,2.3c-0.1,1.3-1,1.8-2,2.2
		c-6.6,2.6-12.4,0.8-17.5-3.6c-2-1.7-3.6-3.7-5.4-5.6c0,0-0.1,0.1-0.2,0.3c-0.1-0.2-0.3-0.3-0.4-0.5
		C259.8,402.2,262,394.3,269.6,390.1z"/>
	<path class="st9" d="M262.3,366.9c3-3.9,7.1-5.3,11.7-5.5c0.5,0,1.1,0,1.6,0c0.1,0,0.2,0,0.1,0c0.5-2.1,0.8-4.3,1.6-6.2
		c1.9-4.4,5.5-7.2,9.6-9.3c4.3-2.1,8.8-3.7,13.6-3.5c4.4,0.2,7.8,2.1,10.1,6c0.1,0.2,0.3,0.5,0.4,0.6c1.4-1.9,2.6-4,4.2-5.6
		c3.5-3.7,7.8-4.8,12.7-4.3c0.4,0,0.7,0,1.1,0c1.3,0.3,2.6,0.6,3.9,0.9c2.5,1.2,5.1,2.2,7.4,3.7c5.7,3.6,8.7,8.8,8.2,15.9
		c-0.1,0.7-0.2,1.4-0.3,2.3c0.5-0.1,1-0.2,1.4-0.3c3.1-0.7,6.2-1,9.4-0.2c4.5,1,7.5,3.7,8.9,8.1c2.1,6.4,2,12.8-1.7,18.9
		c-1.7,2.8-4.2,4.7-6.8,6.1c1.1,1.7,2.3,3.3,3.1,5.1c1.6,3.7,1,7.5-0.3,11.2c-1.7,5-4.5,9.2-9,12.3c-7.6,5.2-17.9,4.9-25-0.8
		c-0.2-0.2-0.5-0.3-0.7-0.5c-0.7,1.8-1.2,3.5-1.4,5.4l-2.2,2c0,0,0,0,0,0c-0.3,0.2-0.5,0.2-0.7,0.4c-0.2,0.1-0.4,0.3-0.6,0.4
		c-1.2,1.2-2.5,2.4-3.7,3.6c0,0,0,0,0,0l-2.1,1.8c0-0.3-0.1-0.6-0.1-0.9c-3.9,2-8,2.7-12.3,2.4c-6.5-0.4-11.8-2.9-14.2-9.7
		c-0.7-1.9-1.1-4-1.5-5.8c-2.1,0.2-4.3,0.8-6.5,0.7c-7.9-0.3-14.1-4.1-18.8-10.5c-2.3-3.1-3.7-6.6-3.4-10.6c0.2-3.3,1.5-6.1,3.7-8.5
		c-0.8-1-1.6-1.9-2.3-3c-2.6-4.1-2.7-8.8-2.4-13.5C259.2,372.6,260.2,369.6,262.3,366.9z M309.9,352.5c0.1-0.3,0-0.7,0-1
		c-1.3-4-4.8-7.1-8.9-7.1c-7.6,0-14.3,2.6-19.7,8.2c-2.3,2.4-3.3,5.3-3.2,8.7c8.6,1.3,15.9,4.9,21.6,11.5c1.4-0.8,2.8-1.7,4.3-2.4
		c1.5-0.7,3-1.1,4.6-1.6c0-0.1,0.1-0.2,0.1-0.3C308,363.2,308.3,357.8,309.9,352.5z M298.7,393.2c2.8,4.2,6.9,6.6,11.6,7.9
		c4.8,1,9.4,0.7,13.9-1.6c7.3-3.8,9.7-12.2,5.5-19.3c-5.1-8.7-17.6-12.1-26.4-7.1C295.8,377.4,293.8,386,298.7,393.2z M342.8,348.5
		c-4-4.2-9-6.6-14.6-7.4c-7.1-0.9-12,2.1-15.1,8.7c-1.3,2.8-2.1,5.8-2.4,8.8c-0.4,3.3-0.4,6.7,0.1,10.1c6.2-0.4,11.8,1.3,16.6,5.3
		c0.4-0.4,0.8-0.7,1.1-1c0.4-0.3,0.7-0.7,1.1-1c4.6-3.9,9.8-6.8,15.3-9c0.4-0.2,1-0.5,1.1-0.9C347,357,346.4,352.3,342.8,348.5z
		 M363.7,387.2c3.1-5.7,3-11.6,0.8-17.4c-0.9-2.4-2.3-4.3-4.8-5.1c-1.5-0.5-3-1-4.6-1.1c-3.6-0.3-7,0.6-10.4,1.8
		c-6,2.2-11.2,5.7-15.7,10.3c2.9,3.3,4.7,7.1,4.8,11.4c3,0.4,5.8,0.6,8.5,1.1c4.9,0.9,9.7,2,14.1,4.5c0.3,0.2,0.8,0.2,1.1,0.1
		C360.2,391.5,362.3,389.7,363.7,387.2z M327.6,417.8c0,0.5,0.4,1,0.7,1.4c4.7,4.8,10.5,6.3,17,4.9c7.9-1.6,14-8.3,15.7-17.1
		c0.6-3.2,0.6-6.3-1.8-8.9c-1.5-1.6-3-3.2-4.9-4.2c-3.8-2-8-2.9-12.2-3.6c-2.7-0.4-5.4-0.7-8.2-1c-1.2,6.5-4.9,10.3-10.3,12.8
		c0.1,0.3,0.2,0.5,0.3,0.7C325.8,407.7,327.3,412.6,327.6,417.8z M301.1,434.3c8.7,1.8,16.7-1.1,22.3-8.9c0.9-1.2,1.7-2.8,1.9-4.2
		c0.8-6.6-1.3-12.5-3.8-18.3c-7.5,2-15.4,0.4-21.9-5.2c-3.5,6.3-6.1,13.3-8.2,20.1C289.7,423.6,293.1,432.7,301.1,434.3z
		 M264.3,409.2c0.1,0.2,0.2,0.3,0.4,0.5c0.1-0.2,0.2-0.4,0.2-0.3c1.8,1.8,3.4,3.9,5.4,5.6c5.1,4.4,10.9,6.1,17.5,3.6
		c1.1-0.4,1.9-0.9,2-2.2c0.1-0.8,0.4-1.6,0.6-2.3c1.8-6.1,4.4-11.7,7.3-17.4c0.2-0.3,0.1-1-0.1-1.3c-1.6-2.2-2.9-4.6-3.3-7.4
		c-0.1-0.7-0.5-1-1.1-1.1c-1.8-0.2-3.6-0.5-5.4-0.5c-6.3-0.2-12.4,0.6-18.1,3.7C262,394.3,259.8,402.2,264.3,409.2z M262.5,387.3
		c0.5,1.3,1.6,2.4,2.4,3.5c8.9-6.9,18.8-7.4,29.1-6.1c0.2-3.9,1.5-7.3,4.4-10.4c-1.9-1.8-3.8-3.5-5.7-5.2c0.3,0,0.5,0,1.1,0.1
		c-6.3-4-12.7-6.4-20-5.8c-7.1,0.6-11.1,4.2-12.8,11.4C260,379.1,260.8,383.3,262.5,387.3z"/>
	<path class="st6" d="M321.5,402.9c2.5,5.8,4.6,11.8,3.8,18.3c-0.2,1.5-1,3-1.9,4.2c-5.6,7.8-13.6,10.7-22.3,8.9
		c-7.9-1.7-11.3-10.8-9.6-16.6c2-6.8,4.6-13.8,8.2-20.1C306.1,403.3,314,404.9,321.5,402.9z"/>
</g>
<g>
	<path class="st6" d="M320,366.8c-5.7-5.1-12.5-7.7-19.9-9.2c-2.1-0.4-4.3-0.6-6.4-0.9c-0.8-0.1-1.2,0.1-1.6,0.9
		c-1.3,3-3.5,5.3-6,7.4c-0.3,0.3-0.6,1-0.5,1.4c1.7,7.1,3.2,14.2,3.5,21.5c0,0.9,0.2,1.9,0.1,2.8c-0.2,1.5,0.6,2.3,1.7,3.1
		c6.9,4.7,14.1,4.4,21.3,0.8c2.7-1.4,5.2-3.2,7.8-4.8c0-0.1,0,0.2,0.1,0.4c0.2-0.2,0.4-0.3,0.6-0.5C328,383.1,327.7,373.7,320,366.8
		z"/>
	<path class="st6" d="M322.9,335.7c-8.2-2.7-16.4-1.7-24.8,1c0.6,0.1,1,0.2,1.3,0.2c-2.6,1.4-5.3,2.8-8,4.3c2.4,4.2,3,8.4,2.1,12.9
		c12.2,1.4,23.5,4.6,31.9,14.8c1.2-1,2.7-1.9,3.7-3.3c3-4,5.2-8.5,5.3-13.7C334.5,343.5,330.9,338.3,322.9,335.7z"/>
	<path class="st6" d="M281.1,332.2c1.6,1,3.3,1.9,4.8,3.1c1.5,1.2,2.8,2.6,4.3,3.9c8.5-5.8,18-7.9,28.2-7c1.1-3.8,0.7-7.4-1.2-10.7
		c-4.7-7.8-11.6-12.6-20.4-14.7c-4.8-1.1-9.7,1.3-12.3,5.5c-0.2,0.3-0.3,0.7-0.3,1.1c0.3,6.4-0.8,12.6-3,18.5
		C281,332,281.1,332.1,281.1,332.2z"/>
	<path class="st8" d="M281.1,332.2c1.6,1,3.3,1.9,4.8,3.1c1.5,1.2,2.8,2.6,4.3,3.9c8.5-5.8,18-7.9,28.2-7c1.1-3.8,0.7-7.4-1.2-10.7
		c-4.7-7.8-11.6-12.6-20.4-14.7c-4.8-1.1-9.7,1.3-12.3,5.5c-0.2,0.3-0.4,0.7-0.3,1.1c0.3,6.4-0.8,12.6-3,18.5
		C281,332,281.1,332.1,281.1,332.2z"/>
	<path class="st8" d="M322.9,335.7c-8.2-2.7-16.4-1.7-24.8,1c0.6,0.1,1,0.2,1.3,0.2c-2.6,1.4-5.3,2.8-8,4.3c2.4,4.2,3,8.4,2.1,12.9
		c12.2,1.4,23.5,4.6,31.9,14.8c1.2-1,2.7-1.9,3.7-3.3c3-4,5.2-8.5,5.3-13.7C334.5,343.5,330.9,338.3,322.9,335.7z"/>
	<path class="st8" d="M320,366.8c-5.7-5.1-12.5-7.7-19.9-9.2c-2.1-0.4-4.3-0.6-6.4-0.9c-0.8-0.1-1.2,0.1-1.6,0.9
		c-1.3,3-3.5,5.3-6,7.4c-0.3,0.3-0.6,1-0.5,1.4c1.7,7.1,3.2,14.2,3.5,21.5c0,0.9,0.2,1.9,0.1,2.8c-0.2,1.5,0.6,2.3,1.7,3.1
		c6.9,4.7,14.1,4.4,21.3,0.8c2.7-1.4,5.2-3.2,7.8-4.8c0-0.1,0,0.2,0.1,0.4c0.2-0.2,0.4-0.3,0.6-0.5C328,383.1,327.7,373.7,320,366.8
		z"/>
	<g>
		<path class="st5" d="M250.9,392.4l-3.4,14.5l1.9-1.2l-6.9,29c0,0-8.7,35-8.1,45.2s-1.9,0-1.9,0s2,9.9-2.7,34.5l-1,14.2h4.3
			l6.8-51.3l5.9-34.5l7.5-34.6l2.8-9L250.9,392.4z"/>
		<path class="st5" d="M245.7,456.9c-0.2-1.1-0.1-3.6,0.3-6.9h-1.3c-0.2,3.1-0.4,6.2-0.6,9.3c0,0.3-0.2,0.6-0.3,0.9c0,0,0,0,0,0.1
			c-0.3,0.6-0.5,1.2-0.8,1.8c-0.4,1-0.8,2-1.2,3c-0.1,0.3-0.1,0.7-0.3,1.3c0-0.3-0.1-0.6-0.1-0.9v17.2c1-0.4,1.7,0,2.6,0.7
			c2.2,1.8,4.9,2.3,7.6,1.9c7-0.8,12.7-4.2,16.9-9.8c4.7-6.4,7.6-13.6,9.1-21.4c0.8-3.9,1.6-7.9,2.7-11.7c1.1-3.9,3.2-7.2,6.3-9.9
			c0.2-0.2,0.4-0.4,0.6-0.6c0,0,0-0.1,0.1-0.1C276.7,431.3,256.7,439.1,245.7,456.9z M280.6,435.7c-3.7,2.1-7.4,4.2-11.1,6.3
			c-3.9,2.1-7.8,4.1-10.9,7.3c-7.2,7.3-11.2,16.2-12.8,26.1c-0.4,2.3-0.5,4.6-0.7,7c-0.1,0.1-0.1,0.1-0.2,0.2
			c-0.6-0.8-1.3-1.5-1.8-2.4c-1.1-2.1-1.3-4.3-1.2-6.6c0.4-6.2,2.4-11.9,5.8-17c6.6-10,15.6-16.8,26.7-20.9c2.9-1.1,5.8-1.8,8.9-2.1
			C282.5,434.2,281.6,435.1,280.6,435.7z"/>
		<path class="st5" d="M228.5,500.1c0,0.4,0,0.8,0,1.2c0,0-0.1,0-0.1,0c-1-3.6-2.1-7.3-3.1-11c0.2,0.3,0.4,0.5,0.5,0.8
			c-0.3-0.7-0.6-1.4-0.9-2.1c0,0.2,0.1,0.4,0.1,0.7c-0.9-1.3-1.5-2.7-2.1-4.1c-0.1-0.2,0.1-0.4,0.1-0.7c-0.6-0.9-1.1-1.8-1.7-2.7
			c-0.5-0.8-1.1-1.6-1.7-2.3c-0.8-1.1-1.5-2.1-2.4-3.2c-0.9-1-1.9-2-2.8-3c-0.5-0.6-1-1.2-1.5-1.7c-1.2-1.1-2.5-2.1-3.7-3.2
			c0.2,0.2,0.3,0.4,0.5,0.7c-0.1,0.1-0.2,0.2-0.3,0.2c-0.6-0.7-1.1-1.3-1.7-2c-0.7-0.5-1.4-1.1-2.2-1.5c-0.6-0.4-1.3-0.7-2-1.1
			c-2-1.1-3.9-2.2-5.9-3.2c0.1,0.1,0.2,0.2,0.4,0.4c-0.5-0.1-0.8-0.1-1.1-0.2c-0.1,0.5-0.1,0.8-0.2,1.2c0,0,0,0,0,0
			c0.8,0.5,1.5,1,2.3,1.5c-0.1,0.1-0.1,0.2-0.2,0.2c-0.6-0.4-1.2-0.9-1.8-1.3c0.9,1.7,1.9,3.3,2.7,5c0.1,0.3,0.3,0.6,0.4,0.9
			c0.1,0.3,0.2,0.6,0.4,0.9c1.4,3.7,1.7,7.6,1.5,11.5c-0.3,5.9-0.9,11.8-1.2,17.7c-0.2,4.8-0.6,9.7,0.8,14.4
			c2.2,6.9,6.8,11.4,14,12.8c2.2,0.4,4.4,0,6.5-0.5c-0.3,0-0.6,0-0.9,0c0.8-0.5,1.6-0.8,2.3-1c0.1,0,0.2,0.2,0.3,0.3
			c0.5-0.5,1-0.9,1.4-1.4c0.8-1.1,1.6-2.3,2.4-3.4c0.3-0.5,0.7-0.9,1.1-1.3c-0.6-0.9,0.2-1.7,0.1-2.5c0.1,0,0.2,0,0.2,0
			c0,0.4,0,0.8,0,1.2c1-4.3,0.8-8.7,0.2-13.1C229,503.5,228.7,501.8,228.5,500.1z M204.5,470.3c-0.2-0.3-0.5-0.6-0.7-0.9
			c-1.1-0.9-2.2-1.9-3.4-2.8c0.1-0.1,0.2-0.2,0.3-0.3c1.1,1,2.1,2,3.1,3.1c0.3,0.3,0.6,0.5,0.9,0.8
			C204.6,470.2,204.5,470.3,204.5,470.3z M213.7,494.4c0,0,0.1,0,0.1,0c0,2.5,0,5,0,7.6c0,0-0.1,0-0.1,0
			C213.7,499.5,213.7,496.9,213.7,494.4z M212.5,522.5c-0.5-0.7-1-1.3-1.5-2c0,0-0.1-0.1-0.1-0.1l0,0c0,0,0,0,0,0l0,0
			c0-0.1-0.1-0.1-0.1-0.2c-0.6-0.9-1.2-1.7-1.7-2.6c-0.6-1-1-2.1-1.5-3.1c0,0,0,0,0,0c0,0,0,0,0,0c-0.2-1-0.3-1.9-0.5-2.9
			c0-0.1,0-0.1,0-0.2c0,0,0,0,0-0.1c-0.1-0.2-0.2-0.4-0.2-0.5c-0.1-1.8-0.2-3.7-0.2-5.5c0-0.9,0.1-1.7,0.2-2.6
			c0.2,0.2,0.2,0.4,0.2,0.5c0,2.1-0.1,4.2-0.1,6.4c0,0.6,0,1.1,0.1,1.7c0,0,0,0,0,0c0,0.1,0,0.1,0,0.2c0.2,0.8,0.7,1.6,0.6,2.5
			c0,0.1-0.1,0.3-0.1,0.4c0,0,0,0,0,0c0,0,0,0,0,0c0.3,0.3,0.6,0.6,0.8,0.9c0.5,0.9,1,1.9,1.4,2.9c0.3,0.6,0.6,1.3,1,1.9
			c0,0.1,0.1,0.1,0.1,0.2c0,0.1,0.1,0.1,0.1,0.2c0.6,0.6,1.2,1.2,1.8,1.7C212.7,522.3,212.6,522.4,212.5,522.5z M208.1,495.8
			C208.1,495.8,208.1,495.8,208.1,495.8C208.1,495.8,208.1,495.8,208.1,495.8L208.1,495.8C208.1,495.8,208.1,495.8,208.1,495.8
			c0.1-0.4,0.3-0.8,0.4-1.2c0.4-1.9,0.7-3.9,1-5.9c0.1,0.2,0.1,0.3,0.1,0.4c-0.3,2-0.6,4-1,6C208.6,495.4,208.3,495.6,208.1,495.8
			C208.1,495.8,208.1,495.8,208.1,495.8C208.1,495.8,208.1,495.8,208.1,495.8c0.4,1.1-0.1,2.1-0.4,3.2c-0.1,0.2-0.1,0.5-0.2,0.7
			c-0.1-0.3,0-0.5,0-0.8C207.7,497.9,207.9,496.9,208.1,495.8C208.1,495.8,208.1,495.8,208.1,495.8z M211.4,501c0-2.4,0-4.7,0-7.1
			c0,0,0.1,0,0.1,0c0,2.4,0,4.7,0,7.1C211.5,501,211.4,501,211.4,501z M214.2,523.8c1.6,0.9,2.6,2.6,4.8,2.8
			C217.7,527,216,526,214.2,523.8z M219,524.1c-0.4,0.2-0.8,0.3-1.1-0.2c-0.6-0.9-1.3-1.8-1.9-2.7c-0.8-1-1.4-2-1.3-3.4
			c-0.3,0.6-0.4,0.1-0.5-0.1c-0.3-0.7-0.5-1.3-0.7-2c-0.3-1-0.6-2-0.9-3c0.1,0,0.2,0,0.2-0.1c0.1,0.3,0.3,0.6,0.4,0.9
			c-0.3-0.9-0.7-1.9-1-2.9c0.2,0.1,0.3,0.2,0.4,0.3c-0.1-0.9-0.3-1.7-0.4-2.6c-0.2-4.1-0.4-8.2-0.5-12.3c0-2-0.2-3.9-0.6-5.9
			c-0.1-0.6-0.3-1.3-0.4-1.9c0,0.4,0.1,0.8,0.1,1.3c-0.7-0.5-0.1-1.8-1.3-1.7c0-0.8,0-1.5,0-2.3c0,0,0-0.1,0-0.1
			c0-0.2,0.1-0.5,0.4-0.1c-1.2-2.6-2.4-5.2-3.6-7.9c0.2-0.1,0.6-0.4,1-0.7c0.3,0.4,0.6,0.7,0.8,1.1c-0.5-1-0.9-2.1-1.4-3.1
			c-0.5-1-0.9-2.1-1.4-3.1c0,0,0.1,0,0.1,0.1c0.9,1.8,1.9,3.6,2.8,5.4c0,0,0,0.1,0,0.2c0,0.2-0.1,0.4-0.1,0.6
			c0.1,0.1,0.2,0.1,0.3,0.1c0,0,0.1,0.1,0.1,0.1c0.3,0.5,0.5,1.1,0.8,1.6c0.4,0.7,0.6,1.5,1.3,2.1c0.5,0.4,0.5,1.5,0.7,2.3
			c0.2,0.8,0.5,1.7,0.7,2.5c0.1-0.1,0.1-0.3,0.3-0.6c0.3,1.2,0.5,2.1,0.7,3c0,0-0.1,0-0.1,0c-0.3-0.8-0.6-1.6-0.9-2.5
			c1.1,4,1.5,8,1.4,12.1c-0.1,4.1,0.1,8.2,0.9,12.3c0-0.9-0.1-1.7-0.1-2.7c0.7,3,1.5,5.8,2.2,8.7c0,0-0.1,0-0.1,0
			c-0.1-0.2-0.2-0.3-0.3-0.5c0.4,0.8,0.7,1.6,1.1,2.4c0.1,0.3,0.3,0.6,0.5,0.9c0.5,1.1,1.2,2.1,1.8,3.1
			C219.6,523.5,219.4,523.9,219,524.1z"/>
		<path class="st6" d="M254.3,365.6c-5.5-4.3-8.7-9.6-8.3-17.2c-3.3-0.4-6.5-0.9-9.7-1.1c-5.1-0.4-10.2-0.5-15.2,0.7
			c-2.5,0.6-4.7,1.9-6.8,3.4c-3.5,2.3-4.4,5.8-4.7,9.6c-0.6,10.3,4.6,19.5,13.3,23.5c7.1,3.3,14.2,3.2,21-0.9c0.5-0.3,1-0.8,1.2-1.4
			c1.8-5.8,4.9-10.9,8.6-15.7C254,366.1,254.1,365.8,254.3,365.6z"/>
		<path class="st7" d="M253.3,339c-6.8,6.8-6.4,16.9,0.9,23.2c4.5,3.9,9.8,5.5,15.6,5.6c5.9-0.1,11.2-1.7,15.7-5.6
			c7.7-6.8,7.8-17,0.2-24C277.1,330.3,261.7,330.6,253.3,339z"/>
		<path class="st6" d="M240.7,315.4c5.8,4,11,8.7,15.2,14.4c0.4,0.5,0.7,1,1,1.5c0.3,0.5,0.6,1,1,1.5c6.8-3.1,13.6-3.5,20.7-1.4
			c1.5-3.7,2.4-7.4,2.9-11.3c0.5-3.5,0.4-7.1-0.3-10.6c-1.7-8.3-6.5-13-15-13.9c-6.7-0.7-13.2,0.6-19,4.3c-5.2,3.3-7.3,8.4-7.5,14.3
			C239.7,314.6,240.2,315.1,240.7,315.4z"/>
		<path class="st6" d="M217.4,345.6c0.3,0.3,0.9,0.3,1.3,0.2c5.8-1.6,11.7-1.5,17.6-1.1c3.3,0.2,6.6,0.7,10.2,1.1
			c1.4-4.9,4.5-8.6,8.8-11.6c-3.9-6.5-8.9-11.8-15.2-16c-3.5-2.3-7.2-4.3-11.5-4.9c-1.8-0.3-3.7-0.1-5.6,0c-3.1,0.2-5.3,2-7,4.4
			c-4.2,6-6,12.6-4,19.9C213,340.8,215,343.4,217.4,345.6z"/>
		<path class="st8" d="M217.4,345.6c0.3,0.3,0.9,0.3,1.3,0.2c5.8-1.6,11.7-1.5,17.6-1.1c3.3,0.2,6.6,0.7,10.2,1.1
			c1.3-4.9,4.5-8.6,8.8-11.6c-3.9-6.5-8.9-11.8-15.2-16c-3.5-2.3-7.2-4.3-11.5-4.9c-1.8-0.3-3.7-0.1-5.6,0c-3.1,0.2-5.3,2-7,4.4
			c-4.2,6-6,12.6-4,19.9C213,340.8,215,343.4,217.4,345.6z"/>
		<path class="st8" d="M240.7,315.4c5.8,4,11,8.7,15.2,14.4c0.4,0.5,0.7,1,1,1.5c0.3,0.5,0.6,1,1,1.5c6.8-3.1,13.6-3.5,20.7-1.4
			c1.5-3.7,2.4-7.4,2.9-11.3c0.5-3.5,0.4-7.1-0.3-10.6c-1.7-8.3-6.5-13-15-13.9c-6.7-0.7-13.2,0.6-19,4.3c-5.2,3.3-7.3,8.4-7.5,14.3
			C239.7,314.6,240.2,315.1,240.7,315.4z"/>
		<path class="st8" d="M248.7,391.9c-0.2-0.2-0.3-0.4-0.5-0.6c-0.1-0.1-0.3-0.3-0.6-0.5c0,0,0,0,0,0l4,5.6c0,0,0,0,0,0
			C250.6,394.9,249.6,393.4,248.7,391.9z"/>
		<path class="st8" d="M253.3,339c-6.8,6.8-6.4,16.9,0.9,23.2c4.5,3.9,9.8,5.5,15.6,5.6c5.9-0.1,11.2-1.7,15.7-5.6
			c7.7-6.8,7.8-17,0.2-24C277.1,330.3,261.7,330.6,253.3,339z"/>
		<path class="st8" d="M254.3,365.6c-5.5-4.3-8.7-9.6-8.3-17.2c-3.3-0.4-6.5-0.9-9.7-1.1c-5.1-0.4-10.2-0.5-15.2,0.7
			c-2.5,0.6-4.7,1.9-6.8,3.4c-3.5,2.3-4.4,5.8-4.7,9.6c-0.6,10.3,4.6,19.5,13.3,23.5c7.1,3.3,14.2,3.2,21-0.9c0.5-0.3,1-0.8,1.2-1.4
			c1.8-5.8,4.9-10.9,8.6-15.7C254,366.1,254.1,365.8,254.3,365.6z"/>
		<path class="st8" d="M251.5,396.4c-0.9-1.5-1.9-3-2.8-4.5c-0.2-0.2-0.3-0.4-0.5-0.6c0.2,0.2,0.3,0.4,0.5,0.6
			C249.6,393.4,250.6,394.9,251.5,396.4z"/>
		<path class="st9" d="M335.1,342.8c-2.4-5.2-6.8-7.9-12-9.5c-0.6-0.2-1.2-0.3-1.9-0.5c-0.1,0-0.2-0.1-0.1,0c0-2.5,0.3-5-0.1-7.4
			c-0.9-5.5-4.3-9.6-8.5-13.1c-4.4-3.6-9.1-6.6-14.8-7.7c-5.2-1-9.7,0.2-13.4,4c-0.2,0.2-0.5,0.4-0.6,0.5c-1.1-2.5-1.9-5.2-3.2-7.5
			c-3-5.1-7.7-7.6-13.4-8.3c-0.4-0.1-0.9-0.2-1.3-0.3c-1.6,0-3.2,0-4.7,0c-3.2,0.7-6.5,1.1-9.6,2.1c-7.6,2.5-12.6,7.5-14,15.6
			c-0.1,0.8-0.2,1.7-0.3,2.7c-0.6-0.3-1.1-0.5-1.6-0.7c-3.4-1.6-6.9-2.8-10.7-2.9c-5.5-0.1-9.7,2.1-12.6,6.6
			c-4.2,6.7-6,13.9-3.4,21.7c1.2,3.6,3.5,6.4,6.2,8.7c-1.7,1.6-3.6,3.1-5,4.9c-2.9,3.7-3.3,8.2-2.9,12.7c0.6,6.1,2.6,11.7,6.9,16.3
			c7.3,7.9,19.3,10.4,29.1,6c0.3-0.1,0.6-0.3,0.9-0.4c0.3,2.2,0.4,4.3,0,6.5l2,2.8c0,0,0,0,0,0c0.3,0.3,0.5,0.4,0.7,0.6
			c0.2,0.2,0.4,0.4,0.6,0.6c1.1,1.7,2.2,3.4,3.2,5.1c0,0,0,0,0,0l1.9,2.6c0.1-0.3,0.3-0.7,0.4-0.9c3.9,3.3,8.5,5.3,13.5,6.1
			c7.7,1.3,14.5,0,19.1-7c1.3-2,2.3-4.2,3.4-6.1c2.3,0.8,4.8,2.1,7.4,2.6c9.2,1.8,17.4-0.8,24.7-6.6c3.5-2.9,6.1-6.4,6.9-11
			c0.7-3.7,0-7.2-1.8-10.6c1.2-0.9,2.4-1.7,3.5-2.7c4.2-3.9,5.7-9.1,6.6-14.5C337,350,336.7,346.3,335.1,342.8z M284.1,313.4
			c0-0.4,0.1-0.8,0.3-1.1c2.6-4.2,7.6-6.6,12.3-5.5c8.8,2.1,15.7,6.9,20.4,14.7c2,3.3,2.3,6.9,1.2,10.7c-10.3-0.9-19.8,1.1-28.2,7
			c-1.4-1.3-2.8-2.7-4.3-3.9c-1.5-1.2-3.2-2.1-4.8-3.1c0-0.1,0-0.2,0-0.3C283.3,325.9,284.4,319.8,284.1,313.4z M285.6,362.3
			c-4.5,3.9-9.8,5.5-15.7,5.6c-5.8-0.2-11.1-1.8-15.6-5.6c-7.4-6.3-7.8-16.4-0.9-23.2c8.4-8.4,23.8-8.7,32.5-0.7
			C293.3,345.2,293.3,355.5,285.6,362.3z M247.2,299.9c5.8-3.7,12.3-5,19-4.3c8.5,0.9,13.3,5.6,15,13.9c0.7,3.5,0.8,7.1,0.3,10.6
			c-0.5,3.9-1.4,7.6-2.9,11.3c-7.1-2.1-14-1.7-20.7,1.4c-0.3-0.5-0.7-1-1-1.5c-0.3-0.5-0.6-1-1-1.5c-4.2-5.7-9.4-10.4-15.2-14.4
			c-0.4-0.3-1-0.9-1-1.3C239.9,308.2,242,303.2,247.2,299.9z M212.1,337.6c-2-7.3-0.2-13.8,4-19.9c1.7-2.4,3.9-4.2,7-4.4
			c1.9-0.1,3.8-0.2,5.6,0c4.2,0.6,7.9,2.6,11.5,4.9c6.3,4.1,11.3,9.5,15.2,16c-4.3,2.9-7.5,6.7-8.8,11.6c-3.5-0.4-6.9-0.9-10.2-1.1
			c-5.9-0.3-11.8-0.4-17.6,1.1c-0.4,0.1-1,0-1.3-0.2C215,343.4,213,340.8,212.1,337.6z M245.2,382c-0.2,0.5-0.7,1.1-1.2,1.4
			c-6.8,4.1-13.9,4.2-21,0.9c-8.7-4-13.9-13.2-13.3-23.5c0.2-3.8,1.1-7.2,4.7-9.6c2.2-1.4,4.3-2.8,6.8-3.4c5-1.2,10.1-1,15.2-0.7
			c3.2,0.2,6.4,0.7,9.7,1.1c-0.4,7.6,2.8,13,8.3,17.2c-0.2,0.3-0.4,0.5-0.6,0.8C250.1,371.1,247,376.2,245.2,382z M271.2,408
			c-10.6-0.3-19-5.9-23.3-16.2c-0.7-1.6-1.2-3.6-1-5.3c0.9-7.6,5-13.7,9.6-19.6c8.1,4.3,17.7,4.7,26.8,0.1
			c2.3,8.1,3.3,16.7,3.7,24.9C287.3,399,280.8,408.3,271.2,408z M320.8,389.8c-0.2,0.2-0.4,0.3-0.6,0.5c-0.1-0.3-0.1-0.5-0.1-0.4
			c-2.6,1.6-5.1,3.4-7.8,4.8c-7.2,3.5-14.3,3.9-21.3-0.8c-1.1-0.8-2-1.5-1.7-3.1c0.1-0.9,0-1.9-0.1-2.8c-0.3-7.3-1.8-14.4-3.5-21.5
			c-0.1-0.4,0.1-1.1,0.5-1.4c2.5-2.1,4.6-4.4,6-7.4c0.4-0.8,0.8-1,1.6-0.9c2.1,0.3,4.3,0.5,6.4,0.9c7.3,1.5,14.2,4.1,19.9,9.2
			C327.7,373.7,328,383.1,320.8,389.8z M329.1,365.6c-1,1.3-2.5,2.2-3.7,3.3c-8.4-10.3-19.6-13.5-31.9-14.8
			c0.8-4.4,0.3-8.7-2.1-12.9c2.7-1.5,5.4-2.9,8-4.3c-0.3-0.1-0.6-0.1-1.3-0.2c8.4-2.7,16.5-3.7,24.8-1c8.1,2.7,11.7,7.8,11.5,16.3
			C334.3,357.2,332.1,361.6,329.1,365.6z"/>
		<path class="st6" d="M256.4,366.9c-4.6,5.9-8.6,12-9.6,19.6c-0.2,1.7,0.4,3.6,1,5.3c4.2,10.3,12.7,15.8,23.3,16.2
			c9.7,0.3,16.1-9,15.8-16c-0.4-8.2-1.5-16.8-3.7-24.9C274.1,371.7,264.6,371.2,256.4,366.9z"/>
	</g>
</g>
<g>
	<path class="st5" d="M186.5,447.2l0.2,6.2l0.1,2.1c0,0-2.9,32.6,0.9,49.6l3.4,21.7l3.7-0.9l-1.9-22.1c0,0-4.3-30.2-0.7-40.6
		l-0.3-10.5L186.5,447.2z"/>
	<path class="st5" d="M156.2,473c13.4-3.8,25.7,4.9,32.3,18.5c-6.6-1.4-13-2.4-19.2-4.2C162.3,485.3,157.7,480.6,156.2,473z"/>
	<path class="st5" d="M192.7,520.6c-0.2-4.8-0.6-9.7-0.4-14.5c0.3-9.1,6.4-16.5,15.2-19.2c4.6,6.8,3.9,15.4-1,21
		c-4,4.6-8.7,8.7-13,13C193.2,520.9,192.9,520.7,192.7,520.6z"/>
	<path class="st6" d="M181.8,428.1c-4.2-1.9-7.2-4.9-8.1-9.9c-2.2,0.3-4.4,0.4-6.5,0.8c-3.3,0.5-6.7,1.3-9.7,2.8
		c-1.5,0.8-2.7,2-3.9,3.2c-1.9,2.1-2,4.4-1.5,6.9c1.2,6.8,6,11.9,12.3,13.2c5.1,1,9.7-0.1,13.5-3.8c0.3-0.3,0.5-0.7,0.6-1.1
		c0.3-4.1,1.5-7.9,3.1-11.5C181.6,428.5,181.7,428.4,181.8,428.1z"/>
	<path class="st6" d="M224.6,418.7c-4.5-2.4-9.3-3-14.3-2.9c-1.4,0-2.9,0.3-4.3,0.4c-0.5,0.1-0.8,0.3-0.9,0.8
		c-0.4,2.1-1.4,4-2.7,5.7c-0.2,0.2-0.2,0.7-0.1,1c2.2,4.3,4.3,8.7,5.6,13.4c0.2,0.6,0.4,1.2,0.5,1.8c0.1,1,0.8,1.4,1.6,1.7
		c5.2,2,9.8,0.6,13.9-2.8c1.6-1.3,2.9-2.9,4.3-4.3c0,0,0.1,0.1,0.1,0.3c0.1-0.1,0.2-0.3,0.3-0.4C232.2,428.1,230.6,422,224.6,418.7z
		"/>
	<path class="st7" d="M177,411.1c-3.4,5.5-1.5,12,4.2,14.9c3.5,1.8,7.2,2,11,1.2c3.8-1,7-2.9,9.3-6.1c3.9-5.6,2.4-12.2-3.6-15.6
		C191,401.8,181.1,404.4,177,411.1z"/>
	<path class="st6" d="M165.1,397.8c4.4,1.7,8.5,3.9,12.1,7c0.3,0.3,0.6,0.5,0.9,0.8c0.3,0.3,0.6,0.5,0.9,0.8
		c3.9-3.1,8.3-4.4,13.2-4.1c0.4-2.6,0.4-5.2,0.1-7.8c-0.3-2.4-0.8-4.7-1.9-6.8c-2.4-5.1-6.3-7.4-11.9-6.7c-4.5,0.6-8.4,2.5-11.6,5.7
		c-2.8,2.9-3.4,6.5-2.6,10.4C164.4,397.4,164.8,397.7,165.1,397.8z"/>
	<path class="st6" d="M154.8,420.9c0.2,0.1,0.6,0.1,0.9,0c3.5-1.9,7.4-2.8,11.2-3.5c2.2-0.4,4.4-0.6,6.8-0.9
		c0.1-3.4,1.5-6.3,3.9-8.9c-3.6-3.6-7.6-6.3-12.4-8c-2.6-1-5.4-1.6-8.2-1.4c-1.2,0.1-2.4,0.5-3.6,0.9c-2,0.6-3.1,2.1-3.8,3.9
		c-1.8,4.6-1.9,9.1,0.5,13.5C151.2,418.6,152.8,419.9,154.8,420.9z"/>
	<path class="st6" d="M221.5,398.1c-5.8-0.5-10.9,1.4-15.9,4.5c0.4,0,0.6,0,0.9-0.1c-1.5,1.3-3,2.6-4.5,4c2.2,2.3,3.2,5,3.4,8
		c8.1-1,15.9-0.7,23,4.7c0.6-0.9,1.5-1.7,1.9-2.7c1.3-3.1,2.1-6.3,1.3-9.7C230.3,401.3,227.2,398.6,221.5,398.1z"/>
	<path class="st6" d="M193.9,402.4c1.2,0.4,2.4,0.7,3.6,1.2c1.2,0.5,2.2,1.2,3.4,1.8c4.6-5.1,10.4-7.9,17.2-8.9
		c0.1-2.6-0.7-4.9-2.5-6.8c-4.2-4.3-9.5-6.4-15.5-6.3c-3.3,0-6.1,2.4-7.1,5.5c-0.1,0.2-0.1,0.5,0,0.8c1.2,4.1,1.4,8.3,0.9,12.5
		C193.9,402.2,193.9,402.3,193.9,402.4z"/>
	<path class="st8" d="M154.8,420.9c0.2,0.1,0.6,0.1,0.9,0c3.5-1.9,7.4-2.8,11.2-3.5c2.2-0.4,4.4-0.6,6.8-0.9
		c0.1-3.4,1.5-6.3,3.9-8.9c-3.6-3.6-7.6-6.3-12.4-8c-2.6-1-5.4-1.6-8.2-1.4c-1.2,0.1-2.4,0.5-3.6,0.9c-2,0.6-3.1,2.1-3.8,3.9
		c-1.8,4.6-1.9,9.1,0.5,13.5C151.2,418.6,152.8,419.9,154.8,420.9z"/>
	<path class="st8" d="M165.1,397.8c4.4,1.7,8.5,3.9,12.1,7c0.3,0.3,0.6,0.5,0.9,0.8c0.3,0.3,0.6,0.5,0.9,0.8
		c3.9-3.1,8.3-4.4,13.2-4.1c0.4-2.6,0.4-5.2,0.1-7.8c-0.3-2.4-0.8-4.7-1.9-6.8c-2.4-5.1-6.3-7.4-11.9-6.7c-4.5,0.6-8.4,2.5-11.6,5.7
		c-2.8,2.9-3.4,6.5-2.6,10.4C164.4,397.4,164.8,397.7,165.1,397.8z"/>
	<path class="st8" d="M177,411.1c-3.4,5.5-1.5,12,4.2,14.9c3.5,1.8,7.2,2,11,1.2c3.8-1,7-2.9,9.3-6.1c3.9-5.6,2.4-12.2-3.6-15.6
		C191,401.8,181.1,404.4,177,411.1z"/>
	<path class="st8" d="M181.8,428.1c-4.2-1.9-7.2-4.9-8.1-9.9c-2.2,0.3-4.4,0.4-6.5,0.8c-3.3,0.5-6.7,1.3-9.7,2.8
		c-1.5,0.8-2.7,2-3.9,3.2c-1.9,2.1-2,4.4-1.5,6.9c1.2,6.8,6,11.9,12.3,13.2c5.1,1,9.7-0.1,13.5-3.8c0.3-0.3,0.5-0.7,0.6-1.1
		c0.3-4.1,1.5-7.9,3.1-11.5C181.6,428.5,181.7,428.4,181.8,428.1z"/>
	<path class="st8" d="M193.9,402.4c1.2,0.4,2.4,0.7,3.6,1.2c1.2,0.5,2.2,1.2,3.4,1.8c4.6-5.1,10.4-7.9,17.2-8.9
		c0.1-2.6-0.7-4.9-2.5-6.8c-4.2-4.3-9.5-6.4-15.5-6.3c-3.3,0-6.1,2.4-7.1,5.5c-0.1,0.2-0.1,0.5,0,0.8c1.2,4.1,1.4,8.3,0.9,12.5
		C193.9,402.2,193.9,402.3,193.9,402.4z"/>
	<path class="st8" d="M221.5,398.1c-5.8-0.5-10.9,1.4-15.9,4.5c0.4,0,0.6,0,0.9-0.1c-1.5,1.3-3,2.6-4.5,4c2.2,2.3,3.2,5,3.4,8
		c8.1-1,15.9-0.7,23,4.7c0.6-0.9,1.5-1.7,1.9-2.7c1.3-3.1,2.1-6.3,1.3-9.7C230.3,401.3,227.2,398.6,221.5,398.1z"/>
	<path class="st8" d="M224.6,418.7c-4.5-2.4-9.3-3-14.3-2.9c-1.4,0-2.9,0.3-4.3,0.4c-0.5,0.1-0.8,0.3-0.9,0.8
		c-0.4,2.1-1.4,4-2.7,5.7c-0.2,0.2-0.2,0.7-0.1,1c2.2,4.3,4.3,8.7,5.6,13.4c0.2,0.6,0.4,1.2,0.5,1.8c0.1,1,0.8,1.4,1.6,1.7
		c5.2,2,9.8,0.6,13.9-2.8c1.6-1.3,2.9-2.9,4.3-4.3c0,0,0.1,0.1,0.1,0.3c0.1-0.1,0.2-0.3,0.3-0.4C232.2,428.1,230.6,422,224.6,418.7z
		"/>
	<path class="st9" d="M230.6,400.8c-2.3-3-5.6-4.1-9.3-4.3c-0.4,0-0.9,0-1.3,0c-0.1,0-0.1,0-0.1,0c-0.4-1.6-0.6-3.3-1.2-4.8
		c-1.5-3.4-4.3-5.6-7.6-7.2c-3.4-1.6-6.9-2.9-10.8-2.7c-3.5,0.1-6.2,1.6-8,4.7c-0.1,0.2-0.2,0.4-0.3,0.4c-1.1-1.5-2-3.1-3.3-4.4
		c-2.7-2.8-6.1-3.7-10-3.3c-0.3,0-0.6,0-0.9,0c-1,0.2-2,0.5-3.1,0.7c-2,0.9-4,1.7-5.9,2.9c-4.5,2.8-7,6.8-6.6,12.3
		c0,0.6,0.1,1.1,0.2,1.8c-0.4-0.1-0.8-0.2-1.1-0.2c-2.5-0.5-4.9-0.7-7.4-0.2c-3.6,0.8-6,2.9-7.1,6.3c-1.7,5-1.7,9.9,1.2,14.6
		c1.3,2.1,3.3,3.6,5.4,4.7c-0.8,1.3-1.9,2.5-2.5,4c-1.3,2.9-0.9,5.8,0.1,8.6c1.3,3.9,3.5,7.1,7,9.5c6,4,14.1,3.8,19.8-0.6
		c0.2-0.1,0.4-0.3,0.5-0.4c0.5,1.4,0.9,2.7,1,4.2l1.7,1.5c0,0,0,0,0,0c0.3,0.1,0.4,0.2,0.6,0.3c0.2,0.1,0.3,0.2,0.5,0.3
		c1,0.9,1.9,1.9,2.9,2.8c0,0,0,0,0,0l1.6,1.4c0-0.2,0.1-0.5,0.1-0.7c3.1,1.5,6.3,2.1,9.7,1.8c5.2-0.4,9.4-2.3,11.3-7.5
		c0.5-1.5,0.9-3.1,1.3-4.5c1.6,0.2,3.4,0.6,5.2,0.5c6.3-0.3,11.2-3.2,14.9-8.1c1.8-2.4,3-5.1,2.8-8.2c-0.1-2.5-1.2-4.7-2.8-6.6
		c0.6-0.8,1.3-1.5,1.8-2.3c2.1-3.2,2.2-6.8,2-10.4C233,405.2,232.2,402.8,230.6,400.8z M193,389.7c-0.1-0.2,0-0.5,0-0.8
		c1-3.1,3.9-5.5,7.1-5.5c6,0,11.3,2,15.5,6.3c1.8,1.8,2.6,4.1,2.5,6.8c-6.8,1-12.6,3.8-17.2,8.9c-1.1-0.6-2.2-1.3-3.4-1.8
		c-1.2-0.5-2.4-0.8-3.6-1.2c0-0.1-0.1-0.1,0-0.2C194.4,398,194.2,393.8,193,389.7z M201.5,421.2c-2.3,3.2-5.5,5.1-9.3,6.1
		c-3.8,0.8-7.5,0.6-11-1.2c-5.7-2.9-7.6-9.4-4.2-14.9c4.1-6.7,14-9.4,20.9-5.5C203.9,408.9,205.5,415.6,201.5,421.2z M167,386.7
		c3.2-3.3,7.2-5.2,11.6-5.7c5.6-0.7,9.5,1.6,11.9,6.7c1,2.2,1.6,4.4,1.9,6.8c0.3,2.6,0.3,5.2-0.1,7.8c-4.9-0.3-9.3,1.1-13.2,4.1
		c-0.3-0.3-0.6-0.5-0.9-0.8c-0.3-0.3-0.6-0.5-0.9-0.8c-3.6-3-7.7-5.2-12.1-7c-0.3-0.1-0.8-0.4-0.8-0.7
		C163.5,393.2,164.1,389.6,167,386.7z M150.1,416.6c-2.4-4.4-2.3-8.9-0.5-13.5c0.7-1.8,1.9-3.3,3.8-3.9c1.2-0.4,2.4-0.7,3.6-0.9
		c2.8-0.3,5.5,0.4,8.2,1.4c4.7,1.7,8.8,4.4,12.4,8c-2.4,2.6-3.8,5.5-3.9,8.9c-2.4,0.3-4.6,0.5-6.8,0.9c-3.9,0.7-7.7,1.6-11.2,3.5
		c-0.2,0.1-0.6,0.2-0.9,0C152.8,419.9,151.2,418.6,150.1,416.6z M178.4,440.3c0,0.4-0.3,0.8-0.6,1.1c-3.8,3.7-8.4,4.9-13.5,3.8
		c-6.3-1.3-11.1-6.4-12.3-13.2c-0.4-2.5-0.4-4.9,1.5-6.9c1.2-1.3,2.4-2.5,3.9-3.2c3.1-1.5,6.4-2.2,9.7-2.8c2.1-0.3,4.3-0.5,6.5-0.8
		c0.9,5,3.8,8,8.1,9.9c-0.1,0.2-0.2,0.4-0.2,0.6C179.9,432.4,178.7,436.2,178.4,440.3z M199.3,453c-6.9,1.4-13.2-0.8-17.6-6.8
		c-0.7-1-1.4-2.1-1.5-3.3c-0.6-5.1,1.1-9.7,3.1-14.2c5.9,1.5,12.2,0.3,17.4-4.1c2.7,4.9,4.7,10.3,6.3,15.5
		C208.4,444.7,205.6,451.7,199.3,453z M228.6,433.5c-0.1,0.1-0.2,0.3-0.3,0.4c-0.1-0.2-0.2-0.3-0.1-0.3c-1.4,1.4-2.7,3-4.3,4.3
		c-4.1,3.4-8.7,4.7-13.9,2.8c-0.9-0.3-1.5-0.7-1.6-1.7c-0.1-0.6-0.3-1.2-0.5-1.8c-1.3-4.7-3.4-9.1-5.6-13.4c-0.1-0.3-0.1-0.8,0.1-1
		c1.3-1.7,2.3-3.6,2.7-5.7c0.1-0.6,0.4-0.8,0.9-0.8c1.4-0.1,2.9-0.4,4.3-0.4c5-0.2,9.8,0.4,14.3,2.9
		C230.6,422,232.2,428.1,228.6,433.5z M230.2,416.6c-0.4,1-1.3,1.8-1.9,2.7c-7-5.3-14.8-5.7-23-4.7c-0.2-3-1.2-5.7-3.4-8
		c1.5-1.4,3-2.7,4.5-4c-0.2,0-0.4,0-0.9,0.1c5-3.1,10.1-5,15.9-4.5c5.7,0.5,8.8,3.2,10,8.8C232.3,410.3,231.6,413.5,230.2,416.6z"/>
	<path class="st6" d="M183.4,428.7c-2,4.5-3.7,9.1-3.1,14.2c0.1,1.1,0.8,2.3,1.5,3.3c4.4,6,10.7,8.3,17.6,6.8
		c6.3-1.3,9.1-8.3,7.7-12.8c-1.6-5.2-3.6-10.7-6.3-15.5C195.6,429,189.3,430.2,183.4,428.7z"/>
</g>
<g>
	<path class="st5" d="M422.3,444.3l0.2,6.9l0.1,2.4c0,0-3.2,36.1,1,55l3.7,24.1l4.1-1l-2.1-24.5c0,0-4.7-33.4-0.8-45l-0.3-11.7
		L422.3,444.3z"/>
	<path class="st5" d="M388.6,473c14.9-4.2,28.4,5.5,35.7,20.5c-7.3-1.5-14.4-2.7-21.2-4.6C395.4,486.6,390.3,481.4,388.6,473z"/>
	<path class="st5" d="M429.1,525.7c-0.2-5.3-0.6-10.7-0.4-16c0.4-10.1,7.1-18.3,16.8-21.2c5.1,7.5,4.3,17-1.1,23.3
		c-4.4,5.1-9.6,9.7-14.4,14.4C429.6,526,429.3,525.8,429.1,525.7z"/>
	<path class="st6" d="M417,423.3c-4.7-2.1-7.9-5.4-8.9-10.9c-2.5,0.3-4.8,0.5-7.2,0.9c-3.7,0.6-7.4,1.4-10.8,3.1
		c-1.7,0.9-3,2.2-4.3,3.6c-2.1,2.3-2.2,4.9-1.7,7.7c1.3,7.5,6.6,13.2,13.6,14.6c5.7,1.1,10.7-0.1,15-4.3c0.3-0.3,0.6-0.8,0.6-1.2
		c0.3-4.5,1.6-8.7,3.5-12.8C416.8,423.7,416.9,423.5,417,423.3z"/>
	<path class="st6" d="M464.4,412.9c-4.9-2.7-10.3-3.4-15.8-3.2c-1.6,0.1-3.2,0.3-4.8,0.5c-0.6,0.1-0.9,0.3-1,0.9
		c-0.5,2.4-1.6,4.4-3,6.4c-0.2,0.3-0.2,0.8-0.1,1.1c2.4,4.8,4.7,9.7,6.2,14.9c0.2,0.7,0.5,1.3,0.5,2c0.1,1.1,0.8,1.5,1.8,1.9
		c5.8,2.2,10.9,0.7,15.4-3.1c1.7-1.4,3.2-3.2,4.8-4.8c0,0,0.1,0.1,0.2,0.3c0.1-0.2,0.2-0.3,0.3-0.4
		C472.9,423.2,471,416.5,464.4,412.9z"/>
	<path class="st7" d="M411.7,404.4c-3.7,6.1-1.7,13.3,4.7,16.5c3.9,2,8,2.2,12.2,1.3c4.2-1.1,7.7-3.2,10.3-6.8
		c4.4-6.2,2.6-13.6-4-17.2C427.2,394.1,416.2,397,411.7,404.4z"/>
	<path class="st6" d="M398.6,389.7c4.8,1.9,9.4,4.3,13.4,7.7c0.3,0.3,0.6,0.6,1,0.9c0.3,0.3,0.6,0.6,1,0.9c4.3-3.4,9.2-4.9,14.6-4.6
		c0.5-2.9,0.5-5.8,0.2-8.6c-0.3-2.6-0.9-5.2-2.1-7.5c-2.6-5.7-6.9-8.2-13.2-7.4c-4.9,0.6-9.4,2.7-12.9,6.4
		c-3.2,3.3-3.8,7.3-2.9,11.6C397.7,389.2,398.2,389.6,398.6,389.7z"/>
	<path class="st6" d="M387.1,415.3c0.2,0.1,0.7,0.1,1-0.1c3.9-2.1,8.2-3.1,12.4-3.8c2.4-0.4,4.9-0.7,7.5-1c0.1-3.7,1.7-7,4.3-9.8
		c-3.9-4-8.5-6.9-13.7-8.8c-2.9-1.1-5.9-1.8-9.1-1.5c-1.4,0.1-2.7,0.5-4,0.9c-2.2,0.7-3.5,2.3-4.2,4.4c-2,5-2.1,10.1,0.5,14.9
		C383.1,412.7,384.9,414.2,387.1,415.3z"/>
	<path class="st6" d="M461,390c-6.4-0.5-12.1,1.6-17.6,5c0.5,0,0.7,0,1-0.1c-1.7,1.5-3.3,2.9-5,4.4c2.5,2.6,3.6,5.5,3.7,8.9
		c9-1.1,17.7-0.8,25.4,5.2c0.7-0.9,1.6-1.9,2.1-3c1.5-3.4,2.3-7,1.5-10.7C470.7,393.6,467.3,390.5,461,390z"/>
	<path class="st6" d="M430.4,394.7c1.3,0.4,2.7,0.8,4,1.4c1.3,0.6,2.5,1.3,3.7,2c5.1-5.6,11.5-8.7,19.1-9.9c0.1-2.9-0.7-5.5-2.7-7.5
		c-4.7-4.8-10.5-7.1-17.2-7c-3.6,0-6.8,2.6-7.9,6.1c-0.1,0.3-0.1,0.6-0.1,0.8c1.3,4.5,1.6,9.2,1,13.8
		C430.4,394.6,430.4,394.7,430.4,394.7z"/>
	<path class="st8" d="M387.1,415.3c0.2,0.1,0.7,0.1,1,0c3.9-2.1,8.2-3.1,12.4-3.8c2.4-0.4,4.9-0.7,7.5-1c0.1-3.7,1.7-7,4.3-9.8
		c-3.9-4-8.5-6.9-13.7-8.8c-2.9-1.1-5.9-1.8-9.1-1.5c-1.4,0.1-2.7,0.5-4,0.9c-2.2,0.7-3.5,2.3-4.2,4.4c-2,5-2.1,10.1,0.5,14.9
		C383.1,412.7,384.9,414.2,387.1,415.3z"/>
	<path class="st8" d="M398.6,389.7c4.8,1.9,9.4,4.3,13.4,7.7c0.3,0.3,0.6,0.6,1,0.9c0.3,0.3,0.6,0.6,1,0.9c4.3-3.4,9.2-4.9,14.6-4.6
		c0.5-2.9,0.5-5.8,0.2-8.6c-0.3-2.6-0.9-5.2-2.1-7.5c-2.6-5.7-6.9-8.2-13.2-7.4c-4.9,0.6-9.4,2.7-12.9,6.4
		c-3.2,3.3-3.8,7.3-2.9,11.6C397.7,389.2,398.2,389.6,398.6,389.7z"/>
	<path class="st8" d="M411.7,404.4c-3.7,6.1-1.7,13.3,4.7,16.5c3.9,2,8,2.2,12.2,1.3c4.2-1.1,7.7-3.2,10.3-6.8
		c4.4-6.2,2.6-13.6-4-17.2C427.2,394.1,416.2,397,411.7,404.4z"/>
	<path class="st8" d="M417,423.3c-4.7-2.1-7.9-5.4-8.9-10.9c-2.5,0.3-4.8,0.5-7.2,0.9c-3.7,0.6-7.4,1.4-10.8,3.1
		c-1.7,0.9-3,2.2-4.3,3.6c-2.1,2.3-2.2,4.9-1.7,7.7c1.3,7.5,6.6,13.2,13.6,14.6c5.7,1.1,10.7-0.1,15-4.3c0.3-0.3,0.6-0.8,0.6-1.2
		c0.3-4.5,1.6-8.7,3.5-12.8C416.8,423.7,416.9,423.5,417,423.3z"/>
	<path class="st8" d="M430.4,394.7c1.3,0.4,2.7,0.8,4,1.4c1.3,0.6,2.5,1.3,3.7,2c5.1-5.6,11.5-8.7,19.1-9.9c0.1-2.9-0.7-5.5-2.7-7.5
		c-4.7-4.8-10.5-7.1-17.2-7c-3.6,0-6.8,2.6-7.9,6.1c-0.1,0.3-0.1,0.6-0.1,0.8c1.3,4.5,1.6,9.2,1,13.8
		C430.4,394.6,430.4,394.7,430.4,394.7z"/>
	<path class="st8" d="M461,390c-6.4-0.5-12.1,1.6-17.6,5c0.5,0,0.7,0,1-0.1c-1.7,1.5-3.3,2.9-5,4.4c2.5,2.6,3.6,5.5,3.7,8.9
		c9-1.1,17.7-0.8,25.4,5.2c0.7-0.9,1.6-1.9,2.1-3c1.5-3.4,2.3-7,1.5-10.7C470.7,393.6,467.3,390.5,461,390z"/>
	<path class="st8" d="M464.4,412.9c-4.9-2.7-10.3-3.4-15.8-3.2c-1.6,0.1-3.2,0.3-4.8,0.5c-0.6,0.1-0.9,0.3-1,0.9
		c-0.5,2.4-1.6,4.4-3,6.4c-0.2,0.3-0.2,0.8-0.1,1.1c2.4,4.8,4.7,9.7,6.2,14.9c0.2,0.7,0.5,1.3,0.5,2c0.1,1.1,0.8,1.5,1.8,1.9
		c5.8,2.2,10.9,0.7,15.4-3.1c1.7-1.4,3.2-3.2,4.8-4.8c0,0,0.1,0.1,0.2,0.3c0.1-0.2,0.2-0.3,0.3-0.4
		C472.9,423.2,471,416.5,464.4,412.9z"/>
	<path class="st9" d="M471,393c-2.6-3.3-6.2-4.5-10.2-4.7c-0.5,0-0.9,0-1.4,0c-0.1,0-0.1,0-0.1,0c-0.4-1.8-0.6-3.6-1.3-5.3
		c-1.6-3.8-4.7-6.2-8.4-7.9c-3.8-1.8-7.7-3.2-11.9-3c-3.9,0.1-6.9,1.8-8.9,5.2c-0.1,0.2-0.3,0.4-0.3,0.5c-1.2-1.6-2.2-3.4-3.6-4.8
		c-3-3.1-6.8-4.1-11.1-3.7c-0.3,0-0.6,0-1,0c-1.1,0.3-2.3,0.5-3.4,0.8c-2.2,1-4.5,1.9-6.5,3.2c-5,3.1-7.7,7.6-7.3,13.6
		c0,0.6,0.2,1.2,0.3,2c-0.4-0.1-0.9-0.2-1.3-0.3c-2.7-0.6-5.4-0.8-8.2-0.2c-3.9,0.9-6.6,3.2-7.9,6.9c-1.9,5.5-1.9,11,1.3,16.1
		c1.5,2.4,3.6,4,5.9,5.2c-0.9,1.5-2.1,2.8-2.8,4.4c-1.4,3.2-1,6.4,0.1,9.6c1.5,4.3,3.9,7.9,7.7,10.5c6.6,4.4,15.6,4.2,21.9-0.7
		c0.2-0.2,0.4-0.3,0.6-0.4c0.6,1.5,1,3,1.2,4.6l1.9,1.7c0,0,0,0,0,0c0.3,0.1,0.5,0.2,0.6,0.3c0.2,0.1,0.4,0.2,0.5,0.4
		c1.1,1,2.1,2.1,3.2,3.1c0,0,0,0,0,0l1.8,1.6c0-0.3,0.1-0.5,0.1-0.7c3.4,1.7,7,2.3,10.8,2c5.7-0.4,10.4-2.5,12.5-8.3
		c0.6-1.7,1-3.4,1.4-5c1.8,0.2,3.8,0.7,5.7,0.6c7-0.3,12.4-3.6,16.6-9c2-2.7,3.3-5.7,3.1-9.1c-0.2-2.8-1.3-5.2-3.1-7.3
		c0.7-0.9,1.4-1.6,2-2.5c2.4-3.5,2.5-7.5,2.2-11.5C473.7,397.9,472.8,395.3,471,393z M429.4,380.7c-0.1-0.3,0-0.6,0.1-0.8
		c1.1-3.4,4.3-6.1,7.9-6.1c6.6,0,12.5,2.2,17.2,7c2,2,2.9,4.6,2.7,7.5c-7.5,1.1-14,4.2-19.1,9.9c-1.3-0.7-2.4-1.5-3.7-2
		c-1.3-0.6-2.7-0.9-4-1.4c0-0.1-0.1-0.1,0-0.2C431,389.9,430.7,385.2,429.4,380.7z M438.8,415.5c-2.5,3.6-6.1,5.6-10.3,6.8
		c-4.2,0.9-8.3,0.6-12.2-1.3c-6.4-3.2-8.4-10.4-4.7-16.5c4.6-7.5,15.5-10.4,23.2-6.1C441.5,402,443.2,409.4,438.8,415.5z
		 M400.6,377.4c3.5-3.6,7.9-5.7,12.9-6.4c6.2-0.8,10.5,1.7,13.2,7.4c1.1,2.4,1.8,4.9,2.1,7.5c0.3,2.9,0.3,5.7-0.2,8.6
		c-5.5-0.3-10.3,1.2-14.6,4.6c-0.3-0.3-0.7-0.6-1-0.9c-0.3-0.3-0.6-0.6-1-0.9c-4-3.4-8.5-5.8-13.4-7.7c-0.4-0.1-0.9-0.5-0.9-0.8
		C396.8,384.6,397.4,380.6,400.6,377.4z M381.9,410.5c-2.7-4.9-2.5-9.9-0.5-14.9c0.8-2,2.1-3.7,4.2-4.4c1.3-0.4,2.7-0.8,4-0.9
		c3.1-0.3,6.1,0.5,9.1,1.5c5.2,1.9,9.7,4.9,13.7,8.8c-2.6,2.9-4.2,6.1-4.3,9.8c-2.6,0.3-5.1,0.6-7.5,1c-4.3,0.8-8.6,1.7-12.4,3.8
		c-0.3,0.1-0.7,0.2-1,0C384.9,414.2,383.1,412.7,381.9,410.5z M413.3,436.7c0,0.4-0.3,0.9-0.6,1.2c-4.2,4.1-9.3,5.4-15,4.3
		c-6.9-1.4-12.2-7.1-13.6-14.6c-0.5-2.7-0.5-5.4,1.7-7.7c1.3-1.4,2.6-2.7,4.3-3.6c3.4-1.7,7.1-2.5,10.8-3.1c2.3-0.4,4.7-0.6,7.2-0.9
		c1,5.5,4.2,8.8,8.9,10.9c-0.1,0.3-0.2,0.4-0.3,0.6C414.9,428,413.6,432.2,413.3,436.7z M436.4,450.8c-7.6,1.6-14.7-0.9-19.5-7.6
		c-0.8-1.1-1.5-2.4-1.6-3.6c-0.6-5.6,1.2-10.7,3.5-15.7c6.6,1.7,13.5,0.3,19.2-4.5c3,5.4,5.3,11.4,7,17.2
		C446.4,441.6,443.4,449.4,436.4,450.8z M468.9,429.2c-0.1,0.1-0.2,0.3-0.3,0.4c-0.1-0.2-0.2-0.3-0.2-0.3c-1.6,1.6-3,3.3-4.8,4.8
		c-4.5,3.8-9.6,5.2-15.4,3.1c-0.9-0.4-1.7-0.8-1.8-1.9c-0.1-0.7-0.3-1.3-0.5-2c-1.5-5.2-3.8-10.1-6.2-14.9c-0.1-0.3-0.1-0.8,0.1-1.1
		c1.4-1.9,2.6-4,3-6.4c0.1-0.6,0.4-0.9,1-0.9c1.6-0.2,3.2-0.4,4.8-0.5c5.5-0.2,10.9,0.5,15.8,3.2C471,416.5,472.9,423.2,468.9,429.2
		z M470.6,410.5c-0.5,1.1-1.4,2-2.1,3c-7.8-5.9-16.4-6.3-25.4-5.2c-0.2-3.3-1.3-6.3-3.7-8.9c1.7-1.5,3.4-3,5-4.4c-0.2,0-0.5,0-1,0.1
		c5.5-3.4,11.2-5.5,17.6-5c6.3,0.5,9.7,3.6,11.1,9.7C472.9,403.5,472.1,407,470.6,410.5z"/>
	<path class="st6" d="M418.7,423.9c-2.3,5-4.1,10.1-3.5,15.7c0.1,1.3,0.9,2.6,1.6,3.6c4.8,6.7,11.8,9.2,19.5,7.6
		c7-1.5,10-9.2,8.6-14.2c-1.7-5.8-3.9-11.8-7-17.2C432.3,424.3,425.3,425.6,418.7,423.9z"/>
</g>
<g>
	<path class="st5" d="M382,451.4l-0.4,6.2l-0.1,2.1c0,0,1.7,32.7-2.6,49.6l-4.1,21.6l-3.6-1l2.6-22c0,0,5.3-30,2.1-40.5l0.6-10.5
		L382,451.4z"/>
	<path class="st5" d="M411.4,478.3c-13.3-4.2-25.8,4-32.9,17.4c6.6-1.2,13-2,19.3-3.5C404.9,490.4,409.6,485.8,411.4,478.3z"/>
	<path class="st5" d="M373.3,524.5c0.3-4.8,0.9-9.6,0.9-14.5c0-9.1-5.8-16.7-14.5-19.7c-4.8,6.6-4.4,15.2,0.3,21.1
		c3.8,4.8,8.3,9,12.6,13.5C372.8,524.8,373,524.7,373.3,524.5z"/>
	<path class="st6" d="M387.3,432.5c4.3-1.7,7.3-4.6,8.4-9.6c2.2,0.3,4.3,0.6,6.5,1c3.3,0.7,6.6,1.5,9.6,3.1c1.5,0.8,2.7,2.1,3.8,3.4
		c1.9,2.1,1.8,4.5,1.3,7c-1.4,6.7-6.4,11.7-12.7,12.7c-5.2,0.8-9.7-0.4-13.4-4.3c-0.3-0.3-0.5-0.7-0.5-1.1
		c-0.1-4.1-1.2-7.9-2.7-11.6C387.5,432.9,387.4,432.8,387.3,432.5z"/>
	<path class="st6" d="M344.9,421.6c4.5-2.3,9.4-2.7,14.4-2.4c1.4,0.1,2.9,0.4,4.3,0.6c0.5,0.1,0.8,0.3,0.9,0.9
		c0.3,2.2,1.3,4.1,2.5,5.8c0.2,0.2,0.2,0.7,0,1c-2.3,4.3-4.6,8.6-6.1,13.2c-0.2,0.6-0.5,1.2-0.5,1.8c-0.1,1-0.8,1.4-1.7,1.7
		c-5.3,1.8-9.8,0.3-13.8-3.3c-1.5-1.4-2.8-3-4.2-4.5c0,0-0.1,0.1-0.1,0.3c-0.1-0.1-0.2-0.3-0.3-0.4
		C336.9,430.7,338.8,424.7,344.9,421.6z"/>
	<path class="st7" d="M392.7,415.7c3.2,5.6,1.1,12-4.7,14.7c-3.6,1.7-7.3,1.8-11,0.8c-3.7-1.1-6.9-3.1-9.1-6.4
		c-3.7-5.7-2-12.3,4.1-15.4C379,405.9,388.8,408.8,392.7,415.7z"/>
	<path class="st6" d="M405,402.8c-4.4,1.6-8.6,3.6-12.3,6.5c-0.3,0.2-0.6,0.5-0.9,0.8c-0.3,0.3-0.6,0.5-0.9,0.8
		c-3.8-3.2-8.1-4.7-13.1-4.6c-0.3-2.6-0.2-5.2,0.1-7.8c0.3-2.4,1-4.6,2.1-6.7c2.6-5,6.5-7.2,12.1-6.3c4.4,0.7,8.4,2.7,11.4,6.1
		c2.7,3,3.2,6.7,2.3,10.5C405.8,402.4,405.4,402.7,405,402.8z"/>
	<path class="st6" d="M414.6,426.3c-0.2,0.1-0.6,0.1-0.9-0.1c-3.4-2-7.3-3-11.1-3.9c-2.2-0.5-4.4-0.7-6.7-1.1c0-3.4-1.3-6.3-3.6-9
		c3.7-3.5,7.9-6,12.6-7.5c2.7-0.9,5.4-1.5,8.2-1.1c1.2,0.2,2.4,0.6,3.6,1c2,0.7,3,2.2,3.7,4.1c1.6,4.6,1.6,9.2-1,13.5
		C418.3,424,416.6,425.3,414.6,426.3z"/>
	<path class="st6" d="M348.7,401.1c5.8-0.3,10.8,1.8,15.7,5.1c-0.4,0-0.6-0.1-0.9-0.1c1.4,1.4,2.9,2.7,4.4,4.2
		c-2.3,2.3-3.4,4.9-3.7,7.9c-8.1-1.3-15.9-1.2-23.1,3.9c-0.6-0.9-1.4-1.7-1.8-2.8c-1.2-3.1-1.8-6.4-1-9.7
		C339.8,404.1,343,401.4,348.7,401.1z"/>
	<path class="st6" d="M376.1,406.4c-1.2,0.4-2.5,0.6-3.6,1.1c-1.2,0.5-2.3,1.1-3.4,1.7c-4.4-5.3-10.1-8.2-16.9-9.5
		c0-2.6,0.8-4.9,2.7-6.7c4.4-4.2,9.7-6,15.7-5.8c3.3,0.1,6,2.6,6.9,5.7c0.1,0.2,0.1,0.5,0,0.8c-1.4,4.1-1.7,8.2-1.3,12.4
		C376.2,406.2,376.1,406.3,376.1,406.4z"/>
	<path class="st8" d="M414.6,426.3c-0.2,0.1-0.6,0.1-0.9-0.1c-3.4-2-7.3-3-11.1-3.9c-2.2-0.5-4.4-0.7-6.7-1.1c0-3.4-1.3-6.3-3.6-9
		c3.7-3.5,7.9-6,12.6-7.5c2.7-0.9,5.4-1.5,8.2-1.1c1.2,0.2,2.4,0.6,3.6,1c2,0.7,3,2.2,3.7,4.1c1.6,4.6,1.6,9.2-1,13.5
		C418.3,424,416.6,425.3,414.6,426.3z"/>
	<path class="st8" d="M405,402.8c-4.4,1.6-8.6,3.6-12.3,6.5c-0.3,0.2-0.6,0.5-0.9,0.8c-0.3,0.3-0.6,0.5-0.9,0.8
		c-3.8-3.2-8.1-4.7-13.1-4.6c-0.3-2.6-0.2-5.2,0.1-7.8c0.3-2.4,1-4.6,2.1-6.7c2.6-5,6.5-7.2,12.1-6.3c4.4,0.7,8.4,2.7,11.4,6.1
		c2.7,3,3.2,6.7,2.3,10.5C405.8,402.4,405.4,402.7,405,402.8z"/>
	<path class="st8" d="M392.7,415.7c3.2,5.6,1.1,12-4.7,14.7c-3.6,1.7-7.3,1.8-11,0.8c-3.7-1.1-6.9-3.1-9.1-6.4
		c-3.7-5.7-2-12.3,4.1-15.4C379,405.9,388.8,408.8,392.7,415.7z"/>
	<path class="st8" d="M387.3,432.5c4.3-1.7,7.3-4.6,8.4-9.6c2.2,0.3,4.3,0.6,6.5,1c3.3,0.7,6.6,1.5,9.6,3.1c1.5,0.8,2.7,2.1,3.8,3.4
		c1.9,2.1,1.8,4.5,1.3,7c-1.4,6.7-6.4,11.7-12.7,12.7c-5.2,0.8-9.7-0.4-13.4-4.3c-0.3-0.3-0.5-0.7-0.5-1.1
		c-0.1-4.1-1.2-7.9-2.7-11.6C387.5,432.9,387.4,432.8,387.3,432.5z"/>
	<path class="st8" d="M376.1,406.4c-1.2,0.4-2.5,0.6-3.6,1.1c-1.2,0.5-2.3,1.1-3.4,1.7c-4.4-5.3-10.1-8.2-16.9-9.5
		c0-2.6,0.8-4.9,2.7-6.7c4.4-4.2,9.7-6,15.7-5.8c3.3,0.1,6,2.6,6.9,5.7c0.1,0.2,0.1,0.5,0,0.8c-1.4,4.1-1.7,8.2-1.3,12.4
		C376.2,406.2,376.1,406.3,376.1,406.4z"/>
	<path class="st8" d="M348.7,401.1c5.8-0.3,10.8,1.8,15.7,5.1c-0.4,0-0.6-0.1-0.9-0.1c1.4,1.4,2.9,2.7,4.4,4.2
		c-2.3,2.3-3.4,4.9-3.7,7.9c-8.1-1.3-15.9-1.2-23.1,3.9c-0.6-0.9-1.4-1.7-1.8-2.8c-1.2-3.1-1.8-6.4-1-9.7
		C339.8,404.1,343,401.4,348.7,401.1z"/>
	<path class="st8" d="M344.9,421.6c4.5-2.3,9.4-2.7,14.4-2.4c1.4,0.1,2.9,0.4,4.3,0.6c0.5,0.1,0.8,0.3,0.9,0.9
		c0.3,2.2,1.3,4.1,2.5,5.8c0.2,0.2,0.2,0.7,0,1c-2.3,4.3-4.6,8.6-6.1,13.2c-0.2,0.6-0.5,1.2-0.5,1.8c-0.1,1-0.8,1.4-1.7,1.7
		c-5.3,1.8-9.8,0.3-13.8-3.3c-1.5-1.4-2.8-3-4.2-4.5c0,0-0.1,0.1-0.1,0.3c-0.1-0.1-0.2-0.3-0.3-0.4
		C336.9,430.7,338.8,424.7,344.9,421.6z"/>
	<path class="st9" d="M336.7,410.4c-0.4,3.6-0.4,7.2,1.6,10.5c0.5,0.8,1.2,1.6,1.7,2.4c-1.7,1.8-2.8,3.9-3.1,6.5
		c-0.3,3.1,0.7,5.8,2.5,8.3c3.6,5,8.4,8.2,14.7,8.6c1.8,0.1,3.5-0.2,5.2-0.3c0.3,1.5,0.6,3,1.1,4.6c1.7,5.3,5.9,7.4,11,7.9
		c3.4,0.3,6.7-0.1,9.8-1.5c0,0.2,0.1,0.4,0.1,0.7l1.7-1.4c0,0,0,0,0,0c1-0.9,2-1.8,3-2.7c0.2-0.1,0.3-0.2,0.5-0.3
		c0.1-0.1,0.3-0.1,0.6-0.3c0,0,0,0,0,0l1.8-1.5c0.2-1.4,0.6-2.8,1.2-4.2c0.2,0.1,0.4,0.3,0.5,0.4c5.5,4.6,13.7,5.1,19.8,1.3
		c3.6-2.2,5.9-5.4,7.3-9.2c1.1-2.8,1.6-5.7,0.4-8.6c-0.6-1.4-1.6-2.7-2.4-4c2.1-1,4.1-2.4,5.5-4.5c3.1-4.5,3.2-9.5,1.7-14.5
		c-1-3.4-3.4-5.6-6.9-6.5c-2.5-0.6-4.9-0.5-7.4-0.1c-0.4,0.1-0.7,0.1-1.1,0.2c0.1-0.7,0.2-1.2,0.3-1.8c0.5-5.5-1.7-9.6-6.2-12.5
		c-1.8-1.2-3.8-2.1-5.8-3.1c-1-0.3-2-0.6-3-0.8c-0.3,0-0.6,0-0.9-0.1c-3.8-0.6-7.3,0.2-10.1,3c-1.3,1.3-2.3,2.8-3.4,4.2
		c0-0.1-0.2-0.2-0.3-0.4c-1.7-3.1-4.4-4.7-7.9-5c-3.8-0.3-7.4,0.8-10.9,2.3c-3.3,1.5-6.2,3.5-7.8,6.9c-0.7,1.4-0.9,3.1-1.4,4.7
		c0.1,0,0,0-0.1,0c-0.4,0-0.9,0-1.3,0c-3.6,0.1-6.9,1-9.4,4C337.9,405.5,337,407.9,336.7,410.4z M376.2,406.2c0,0.1,0,0.1-0.1,0.2
		c-1.2,0.4-2.5,0.6-3.6,1.1c-1.2,0.5-2.3,1.1-3.4,1.7c-4.4-5.3-10.1-8.2-16.9-9.5c0-2.6,0.8-4.9,2.7-6.7c4.4-4.2,9.7-6,15.7-5.8
		c3.3,0.1,6,2.6,6.9,5.7c0.1,0.2,0.1,0.5,0,0.8C376.2,397.8,375.8,401.9,376.2,406.2z M372,409.4c7-3.6,16.9-0.6,20.7,6.2
		c3.2,5.6,1.1,12-4.7,14.7c-3.6,1.7-7.3,1.8-11,0.8c-3.7-1.1-6.9-3.1-9.1-6.4C364.1,419.2,365.9,412.6,372,409.4z M405.9,402.1
		c-0.1,0.3-0.5,0.5-0.9,0.7c-4.4,1.6-8.6,3.6-12.3,6.5c-0.3,0.2-0.6,0.5-0.9,0.8c-0.3,0.3-0.6,0.5-0.9,0.8
		c-3.8-3.2-8.1-4.7-13.1-4.6c-0.3-2.6-0.2-5.2,0.1-7.8c0.3-2.4,1-4.6,2.1-6.7c2.6-5,6.5-7.2,12.1-6.3c4.4,0.7,8.4,2.7,11.4,6.1
		C406.4,394.7,406.8,398.3,405.9,402.1z M414.6,426.3c-0.2,0.1-0.6,0.1-0.9-0.1c-3.4-2-7.3-3-11.1-3.9c-2.2-0.5-4.4-0.7-6.7-1.1
		c0-3.4-1.3-6.3-3.6-9c3.7-3.5,7.9-6,12.6-7.5c2.7-0.9,5.4-1.5,8.2-1.1c1.2,0.2,2.4,0.6,3.6,1c2,0.7,3,2.2,3.7,4.1
		c1.6,4.6,1.6,9.2-1,13.5C418.3,424,416.6,425.3,414.6,426.3z M387.6,433.1c-0.1-0.2-0.1-0.4-0.2-0.6c4.3-1.7,7.3-4.6,8.4-9.6
		c2.2,0.3,4.3,0.6,6.5,1c3.3,0.7,6.6,1.5,9.6,3.1c1.5,0.8,2.7,2.1,3.8,3.4c1.9,2.1,1.8,4.5,1.3,7c-1.4,6.7-6.4,11.7-12.7,12.7
		c-5.2,0.8-9.7-0.4-13.4-4.3c-0.3-0.3-0.5-0.7-0.5-1.1C390.2,440.7,389.1,436.9,387.6,433.1z M361.7,443.7
		c1.7-5.2,3.9-10.5,6.8-15.3c5,4.6,11.2,6,17.2,4.7c1.9,4.6,3.4,9.2,2.6,14.3c-0.2,1.1-0.9,2.3-1.6,3.2c-4.6,5.9-11,7.9-17.8,6.2
		C362.7,455.2,360.2,448.1,361.7,443.7z M344.9,421.6c4.5-2.3,9.4-2.7,14.4-2.4c1.4,0.1,2.9,0.4,4.3,0.6c0.5,0.1,0.8,0.3,0.9,0.9
		c0.3,2.2,1.3,4.1,2.5,5.8c0.2,0.2,0.2,0.7,0,1c-2.3,4.3-4.6,8.6-6.1,13.2c-0.2,0.6-0.5,1.2-0.5,1.8c-0.1,1-0.8,1.4-1.7,1.7
		c-5.3,1.8-9.8,0.3-13.8-3.3c-1.5-1.4-2.8-3-4.2-4.5c0,0-0.1,0.1-0.1,0.3c-0.1-0.1-0.2-0.3-0.3-0.4
		C336.9,430.7,338.8,424.7,344.9,421.6z M338.4,409.6c1.4-5.5,4.6-8.1,10.3-8.4c5.8-0.3,10.8,1.8,15.7,5.1c-0.4,0-0.6-0.1-0.9-0.1
		c1.4,1.4,2.9,2.7,4.4,4.2c-2.3,2.3-3.4,4.9-3.7,7.9c-8.1-1.3-15.9-1.2-23.1,3.9c-0.6-0.9-1.4-1.7-1.8-2.8
		C338.1,416.2,337.5,412.9,338.4,409.6z"/>
	<path class="st6" d="M385.8,433c1.9,4.6,3.4,9.2,2.6,14.3c-0.2,1.1-0.9,2.3-1.6,3.2c-4.6,5.9-11,7.9-17.8,6.2
		c-6.3-1.5-8.8-8.6-7.3-13.1c1.7-5.2,3.9-10.5,6.8-15.3C373.6,432.9,379.8,434.4,385.8,433z"/>
</g>
<g>
	<path class="st5" d="M160,433.1l-0.5,7.2l-0.2,2.5c0,0,2,38.2-3,57.9l-4.8,25.2l-4.3-1.2l3.1-25.7c0,0,6.2-35.1,2.4-47.4l0.7-12.3
		L160,433.1z"/>
	<path class="st5" d="M194.4,464.5c-15.5-5-30.2,4.7-38.4,20.3c7.7-1.4,15.2-2.3,22.5-4.1C186.8,478.7,192.3,473.3,194.4,464.5z"/>
	<path class="st5" d="M149.8,518.6c0.4-5.6,1.1-11.3,1.1-16.9c0-10.6-6.8-19.6-17-23c-5.6,7.8-5.1,17.8,0.3,24.6
		c4.5,5.6,9.7,10.5,14.7,15.8C149.2,518.9,149.5,518.7,149.8,518.6z"/>
	<path class="st6" d="M166.3,411.1c5-2,8.6-5.4,9.8-11.2c2.6,0.4,5.1,0.7,7.5,1.2c3.9,0.8,7.7,1.7,11.2,3.7c1.8,1,3.1,2.4,4.4,3.9
		c2.2,2.5,2.1,5.3,1.5,8.1c-1.7,7.8-7.5,13.7-14.8,14.9c-6,1-11.3-0.5-15.6-5c-0.3-0.3-0.6-0.8-0.6-1.3c-0.1-4.8-1.4-9.2-3.2-13.6
		C166.5,411.6,166.4,411.4,166.3,411.1z"/>
	<path class="st6" d="M116.7,398.4c5.3-2.7,11-3.2,16.8-2.8c1.7,0.1,3.3,0.4,5,0.7c0.6,0.1,0.9,0.3,1,1c0.4,2.5,1.5,4.7,2.9,6.8
		c0.2,0.3,0.2,0.9,0.1,1.2c-2.7,5-5.3,10-7.1,15.4c-0.2,0.7-0.5,1.4-0.6,2.1c-0.2,1.2-0.9,1.6-1.9,1.9c-6.2,2.1-11.5,0.4-16.1-3.8
		c-1.8-1.6-3.3-3.5-4.9-5.2c0,0-0.1,0.1-0.2,0.3c-0.1-0.2-0.2-0.3-0.3-0.5C107.4,409,109.6,402,116.7,398.4z"/>
	<path class="st7" d="M172.6,391.4c3.7,6.5,1.3,14-5.5,17.2c-4.2,2-8.5,2.1-12.9,1c-4.4-1.3-8-3.6-10.6-7.5
		c-4.4-6.7-2.3-14.4,4.8-18C156.6,379.9,168,383.4,172.6,391.4z"/>
	<path class="st6" d="M186.9,376.4c-5.2,1.8-10,4.2-14.4,7.6c-0.4,0.3-0.7,0.6-1,0.9c-0.3,0.3-0.7,0.6-1.1,0.9
		c-4.4-3.8-9.5-5.5-15.3-5.4c-0.4-3.1-0.3-6.1,0.1-9.1c0.4-2.8,1.2-5.4,2.4-7.9c3-5.9,7.6-8.4,14.2-7.3c5.2,0.9,9.8,3.2,13.3,7.2
		c3.2,3.6,3.7,7.8,2.7,12.3C187.9,375.9,187.3,376.2,186.9,376.4z"/>
	<path class="st6" d="M198.1,403.8c-0.3,0.1-0.7,0.1-1-0.1c-4-2.4-8.5-3.5-13-4.5c-2.5-0.6-5.1-0.9-7.9-1.3c0-3.9-1.6-7.4-4.2-10.5
		c4.3-4.1,9.2-7,14.7-8.8c3.1-1,6.3-1.7,9.6-1.3c1.4,0.2,2.8,0.7,4.2,1.1c2.3,0.8,3.6,2.6,4.3,4.7c1.9,5.4,1.9,10.7-1.1,15.7
		C202.4,401.1,200.4,402.7,198.1,403.8z"/>
	<path class="st6" d="M121.1,374.4c6.8-0.3,12.7,2.1,18.4,5.9c-0.5-0.1-0.7-0.1-1-0.1c1.7,1.6,3.4,3.2,5.1,4.9
		c-2.7,2.6-4,5.7-4.3,9.2c-9.5-1.5-18.6-1.4-27,4.5c-0.7-1-1.7-2-2.1-3.2c-1.4-3.7-2.2-7.4-1.1-11.4
		C110.7,377.9,114.5,374.8,121.1,374.4z"/>
	<path class="st6" d="M153.2,380.5c-1.4,0.4-2.9,0.7-4.3,1.3c-1.4,0.6-2.7,1.3-4,2c-5.1-6.1-11.8-9.6-19.7-11.1c0-3.1,1-5.7,3.2-7.8
		c5.1-4.9,11.4-7.1,18.4-6.8c3.8,0.2,7,3,8.1,6.7c0.1,0.3,0.1,0.6,0,0.9c-1.6,4.7-2,9.6-1.6,14.5
		C153.2,380.4,153.2,380.5,153.2,380.5z"/>
	<path class="st8" d="M198.1,403.8c-0.3,0.1-0.7,0.1-1-0.1c-4-2.4-8.5-3.5-13-4.5c-2.5-0.6-5.1-0.9-7.9-1.3c0-3.9-1.6-7.4-4.2-10.5
		c4.3-4.1,9.2-7,14.7-8.8c3.1-1,6.3-1.7,9.6-1.3c1.4,0.2,2.8,0.7,4.2,1.1c2.3,0.8,3.6,2.6,4.3,4.7c1.9,5.4,1.9,10.7-1.1,15.7
		C202.4,401.1,200.4,402.7,198.1,403.8z"/>
	<path class="st8" d="M186.9,376.4c-5.2,1.8-10,4.2-14.4,7.6c-0.4,0.3-0.7,0.6-1,0.9c-0.3,0.3-0.7,0.6-1.1,0.9
		c-4.4-3.8-9.5-5.5-15.3-5.4c-0.4-3.1-0.3-6.1,0.1-9.1c0.4-2.8,1.2-5.4,2.4-7.9c3-5.9,7.6-8.4,14.2-7.3c5.2,0.9,9.8,3.2,13.3,7.2
		c3.2,3.6,3.7,7.8,2.7,12.3C187.9,375.9,187.3,376.2,186.9,376.4z"/>
	<path class="st8" d="M172.6,391.4c3.7,6.5,1.3,14-5.5,17.2c-4.2,2-8.5,2.1-12.9,1c-4.4-1.3-8-3.6-10.6-7.5
		c-4.4-6.7-2.3-14.4,4.8-18C156.6,379.9,168,383.4,172.6,391.4z"/>
	<path class="st8" d="M166.3,411.1c5-2,8.6-5.4,9.8-11.2c2.6,0.4,5.1,0.7,7.5,1.2c3.9,0.8,7.7,1.7,11.2,3.7c1.8,1,3.1,2.4,4.4,3.9
		c2.2,2.5,2.1,5.3,1.5,8.1c-1.7,7.8-7.5,13.7-14.8,14.9c-6,1-11.3-0.5-15.6-5c-0.3-0.3-0.6-0.8-0.6-1.3c-0.1-4.8-1.4-9.2-3.2-13.6
		C166.5,411.6,166.4,411.4,166.3,411.1z"/>
	<path class="st8" d="M153.2,380.5c-1.4,0.4-2.9,0.7-4.3,1.3c-1.4,0.6-2.7,1.3-4,2c-5.1-6.1-11.8-9.6-19.7-11.1c0-3.1,1-5.7,3.2-7.8
		c5.1-4.9,11.4-7.1,18.4-6.8c3.8,0.2,7,3,8.1,6.7c0.1,0.3,0.1,0.6,0,0.9c-1.6,4.7-2,9.6-1.6,14.5
		C153.2,380.4,153.2,380.5,153.2,380.5z"/>
	<path class="st8" d="M121.1,374.4c6.8-0.3,12.7,2.1,18.4,5.9c-0.5-0.1-0.7-0.1-1-0.1c1.7,1.6,3.4,3.2,5.1,4.9
		c-2.7,2.6-4,5.7-4.3,9.2c-9.5-1.5-18.6-1.4-27,4.5c-0.7-1-1.7-2-2.1-3.2c-1.4-3.7-2.2-7.4-1.1-11.4
		C110.7,377.9,114.5,374.8,121.1,374.4z"/>
	<path class="st8" d="M116.7,398.4c5.3-2.7,11-3.2,16.8-2.8c1.7,0.1,3.3,0.4,5,0.7c0.6,0.1,0.9,0.3,1,1c0.4,2.5,1.5,4.7,2.9,6.8
		c0.2,0.3,0.2,0.9,0.1,1.2c-2.7,5-5.3,10-7.1,15.4c-0.2,0.7-0.5,1.4-0.6,2.1c-0.2,1.2-0.9,1.6-1.9,1.9c-6.2,2.1-11.5,0.4-16.1-3.8
		c-1.8-1.6-3.3-3.5-4.9-5.2c0,0-0.1,0.1-0.2,0.3c-0.1-0.2-0.2-0.3-0.3-0.5C107.4,409,109.6,402,116.7,398.4z"/>
	<path class="st9" d="M107.2,385.3c-0.4,4.2-0.4,8.4,1.9,12.2c0.6,1,1.3,1.8,2,2.8c-2,2.1-3.3,4.6-3.6,7.5c-0.3,3.6,0.9,6.8,2.9,9.7
		c4.2,5.9,9.8,9.5,17.1,10.1c2.1,0.2,4.1-0.3,6.1-0.4c0.4,1.7,0.7,3.6,1.3,5.3c2,6.2,6.9,8.6,12.9,9.2c3.9,0.4,7.8-0.1,11.4-1.8
		c0,0.2,0.1,0.5,0.1,0.8l2-1.6c0,0,0,0,0,0c1.2-1.1,2.3-2.1,3.5-3.2c0.2-0.1,0.4-0.2,0.6-0.4c0.2-0.1,0.3-0.2,0.7-0.3c0,0,0,0,0,0
		l2.1-1.7c0.2-1.7,0.7-3.2,1.4-4.8c0.2,0.2,0.4,0.3,0.6,0.5c6.5,5.4,16,6,23.1,1.6c4.1-2.6,6.8-6.3,8.5-10.8
		c1.3-3.3,1.9-6.7,0.5-10.1c-0.7-1.7-1.8-3.1-2.8-4.7c2.5-1.1,4.8-2.8,6.4-5.2c3.6-5.3,3.8-11.1,2-17c-1.2-4-3.9-6.5-8.1-7.6
		c-2.9-0.7-5.8-0.6-8.6-0.1c-0.4,0.1-0.9,0.2-1.3,0.2c0.1-0.8,0.3-1.4,0.3-2.1c0.6-6.4-2-11.2-7.2-14.6c-2.1-1.4-4.5-2.4-6.7-3.6
		c-1.2-0.3-2.4-0.7-3.6-1c-0.3,0-0.7,0-1-0.1c-4.5-0.7-8.5,0.3-11.8,3.5c-1.5,1.5-2.7,3.3-4,5c-0.1-0.1-0.2-0.3-0.3-0.5
		c-2-3.6-5.1-5.5-9.2-5.8c-4.5-0.3-8.6,1-12.7,2.7c-3.9,1.7-7.3,4.1-9.1,8c-0.8,1.7-1.1,3.6-1.6,5.5c0.1,0,0,0-0.1,0
		c-0.5,0-1,0-1.5,0c-4.3,0.1-8.1,1.2-11,4.6C108.5,379.5,107.5,382.3,107.2,385.3z M153.2,380.3c0,0.1,0,0.1-0.1,0.2
		c-1.4,0.4-2.9,0.7-4.3,1.3c-1.4,0.6-2.7,1.3-4,2c-5.1-6.1-11.8-9.6-19.7-11.1c0-3.1,1-5.7,3.2-7.8c5.1-4.9,11.4-7.1,18.4-6.8
		c3.8,0.2,7,3,8.1,6.7c0.1,0.3,0.1,0.6,0,0.9C153.2,370.5,152.8,375.4,153.2,380.3z M148.3,384.1c8.2-4.2,19.7-0.7,24.2,7.3
		c3.7,6.5,1.3,14-5.5,17.2c-4.2,2-8.5,2.1-12.9,1c-4.4-1.3-8-3.6-10.6-7.5C139.2,395.5,141.2,387.8,148.3,384.1z M187.9,375.6
		c-0.1,0.3-0.6,0.6-1,0.8c-5.2,1.8-10,4.2-14.4,7.6c-0.4,0.3-0.7,0.6-1,0.9c-0.3,0.3-0.7,0.6-1.1,0.9c-4.4-3.8-9.5-5.5-15.3-5.4
		c-0.4-3.1-0.3-6.1,0.1-9.1c0.4-2.8,1.2-5.4,2.4-7.9c3-5.9,7.6-8.4,14.2-7.3c5.2,0.9,9.8,3.2,13.3,7.2
		C188.5,366.9,189,371.1,187.9,375.6z M198.1,403.8c-0.3,0.1-0.7,0.1-1-0.1c-4-2.4-8.5-3.5-13-4.5c-2.5-0.6-5.1-0.9-7.9-1.3
		c0-3.9-1.6-7.4-4.2-10.5c4.3-4.1,9.2-7,14.7-8.8c3.1-1,6.3-1.7,9.6-1.3c1.4,0.2,2.8,0.7,4.2,1.1c2.3,0.8,3.6,2.6,4.3,4.7
		c1.9,5.4,1.9,10.7-1.1,15.7C202.4,401.1,200.4,402.7,198.1,403.8z M166.5,411.8c-0.1-0.2-0.2-0.4-0.3-0.7c5-2,8.6-5.4,9.8-11.2
		c2.6,0.4,5.1,0.7,7.5,1.2c3.9,0.8,7.7,1.7,11.2,3.7c1.8,1,3.1,2.4,4.4,3.9c2.2,2.5,2.1,5.3,1.5,8.1c-1.7,7.8-7.5,13.7-14.8,14.9
		c-6,1-11.3-0.5-15.6-5c-0.3-0.3-0.6-0.8-0.6-1.3C169.6,420.6,168.3,416.2,166.5,411.8z M136.3,424.1c2-6.1,4.6-12.3,8-17.9
		c5.9,5.3,13.1,7,20.1,5.5c2.2,5.3,4,10.8,3.1,16.7c-0.2,1.3-1,2.7-1.9,3.7c-5.3,6.8-12.8,9.2-20.8,7.3
		C137.5,437.6,134.6,429.3,136.3,424.1z M116.7,398.4c5.3-2.7,11-3.2,16.8-2.8c1.7,0.1,3.3,0.4,5,0.7c0.6,0.1,0.9,0.3,1,1
		c0.4,2.5,1.5,4.7,2.9,6.8c0.2,0.3,0.2,0.9,0.1,1.2c-2.7,5-5.3,10-7.1,15.4c-0.2,0.7-0.5,1.4-0.6,2.1c-0.2,1.2-0.9,1.6-1.9,1.9
		c-6.2,2.1-11.5,0.4-16.1-3.8c-1.8-1.6-3.3-3.5-4.9-5.2c0,0-0.1,0.1-0.2,0.3c-0.1-0.2-0.2-0.3-0.3-0.5
		C107.4,409,109.6,402,116.7,398.4z M109.1,384.3c1.7-6.4,5.4-9.5,12-9.8c6.8-0.3,12.7,2.1,18.4,5.9c-0.5-0.1-0.7-0.1-1-0.1
		c1.7,1.6,3.4,3.2,5.1,4.9c-2.7,2.6-4,5.7-4.3,9.2c-9.5-1.5-18.6-1.4-27,4.5c-0.7-1-1.7-2-2.1-3.2
		C108.8,392,108.1,388.2,109.1,384.3z"/>
	<path class="st6" d="M164.4,411.7c2.2,5.3,4,10.8,3.1,16.7c-0.2,1.3-1,2.7-1.9,3.7c-5.3,6.8-12.8,9.2-20.8,7.3
		c-7.3-1.8-10.2-10.1-8.5-15.3c2-6.1,4.6-12.3,8-17.9C150.2,411.6,157.4,413.2,164.4,411.7z"/>
</g>
<g>
	<path class="st10" d="M402.9,259.1c1.9-2,3.7-4.2,5.8-6c5.4-4.7,11.6-8,18.7-9.3c9.3-1.7,18.1-0.5,25.9,5c2.1,1.5,3.7,3.7,5.5,5.6
		c0.3,0.3,0.5,0.7,0.8,1.1c1.3-2.5,2.5-4.8,3.8-7.3c1.1,2.8,0.9,9.3-0.4,12.5c0-2.9,0-5.7,0-9c-1.2,1.4-2.1,2.6-3,3.8
		c-0.2,0.2,0,0.7,0.1,1c1.6,3.7,2.5,7.6,2.6,11.7c0.1,5.7-1.8,10.7-5,15.2c-4.4,6.3-10.2,10.8-17.6,13.1c-14.5,4.5-27.6-1.9-34.3-12
		c-0.1-0.2-0.2-0.3-0.4-0.6c-0.2,0.2-0.4,0.4-0.5,0.6c-4.6,6-10.7,9.5-18.3,10.1c-4.3,0.4-8.5-0.6-11.9-3.5
		c-7.1-6.2-9.9-14.1-8-23.4c1.8-8.8,7-14.8,15.6-17.8c2.2-0.7,4.5-1,6.8-0.6c-4.8,0.4-9.2,2.1-12.8,5.3c-8,7.1-11.2,19.5-5.3,29.7
		c1.6,2.9,3.9,5.1,6.6,7c1.3,0.9,4.2,0.2,5.1-1.3c0.6-1,1.1-2,1.6-3c0.3,3.1-1.3,4.8-5.1,5.1c2,0.9,3.8,1.5,5.8,1.5
		c6.8-0.1,12-3.3,16-8.5c4.9-6.4,5.1-13.4,2.3-20.7c-2.1-5.5-5.7-9.8-10.8-12.9c-0.2-0.1-0.3-0.2-0.5-0.4c3.4,1.1,6.4,2.9,8.8,5.7
		c0.7,0.7,1.3,1.5,2,2.3c0.1,0.3,0.2,0.6,0.3,0.9c2.1,3.4,3.7,7,4.3,11c0.5,3.3,0.7,6.5-0.5,9.7c-0.5,1.2-0.2,1.9,0.5,2.8
		c4.9,5.9,11.4,8.7,18.7,10c0.2,0,0.8-0.4,0.8-0.6c0.4-1.5,0.8-3.1,1-4.6c0.9-6.8-0.3-13.2-3.9-19.1c-4.1-6.6-10.1-10.6-17.6-12.3
		c-0.3-0.1-0.7,0.1-0.9,0.3C404.6,257.8,403.8,258.4,402.9,259.1z M429,294c5.6,0.2,10.8-0.8,15.7-3c0.3-0.1,0.6-0.6,0.7-0.9
		c0.2-1.5,0.4-3.1,0.4-4.6c0-4.1-0.3-8.2-1.5-12.2c-3.6-12.2-12-19.7-23.6-24.1c-0.4-0.2-1-0.1-1.4,0.1c-2.7,1.3-5.3,2.7-8,4.1
		c-0.8,0.4-1.5,1-2.5,1.6c0.5,0.1,0.8,0.1,1.1,0.2c6.1,1.2,11.9,3.2,16.4,7.8c5.6,5.6,8.6,12.4,8.1,20.5
		C434.1,287.4,432.6,291.2,429,294z M446.9,289.7c0.2,0,0.4,0,0.5-0.1c3-1.7,5.6-3.9,7.8-6.5c0.3-0.4,0.5-0.9,0.5-1.4
		c0.2-3.4,0.7-6.8,0.2-10.3c-1.4-10.1-6-18.2-13.9-24.6c-1-0.8-2-1.3-3.3-1.3c-1.4,0-2.8-0.2-4.2-0.1c-4.5,0.1-8.8,1.1-13.2,2.9
		c4.9,0.1,9.4,1.1,13.5,3.4c6.9,3.8,11.6,9.7,14.3,17c1.7,4.4,2.2,9,1.5,13.6C450.2,285.2,448.9,287.6,446.9,289.7z M458.9,277.3
		c6.5-13.5-0.3-25.4-10.2-28.9C458.5,255.8,460.8,265.9,458.9,277.3z"/>
	<path class="st11" d="M402.9,259.1c0.9-0.7,1.7-1.3,2.6-1.9c0.2-0.2,0.6-0.3,0.9-0.3c7.5,1.7,13.6,5.7,17.6,12.3
		c3.6,5.9,4.8,12.3,3.9,19.1c-0.2,1.6-0.6,3.1-1,4.6c-0.1,0.3-0.6,0.7-0.8,0.6c-7.3-1.3-13.8-4.1-18.7-10c-0.7-0.9-1-1.6-0.5-2.8
		c1.2-3.1,1-6.4,0.5-9.7c-0.6-4-2.2-7.6-4.3-11c-0.2-0.3-0.2-0.6-0.3-0.9C402.8,259.3,402.9,259.2,402.9,259.1z"/>
	<path class="st12" d="M451.2,200.3c1.2,3.8,1.9,7.6,2,11.5c0.1,5.8-1.5,11-4.6,15.9c-4.1,6.3-8.9,11.8-15.4,15.9
		c-0.5,0.3-1.2,0.4-1.8,0.3c1.7-1.5,3.5-3,5.2-4.6c5.3-5.2,9.7-11.1,11.9-18.3c1.5-4.9,2-10,1.5-15.1c0-0.4-0.2-0.8-0.3-1.3
		c-10.6,4.8-23,15.5-20.9,37.9c-0.2-2.5-0.6-4.9-0.7-7.4c-0.2-5.8,0.8-11.3,3.6-16.4c3.5-6.5,8.6-11.4,14.9-15.3
		C448,202.3,449.5,201.4,451.2,200.3z"/>
	<path class="st13" d="M422.3,245.6c-8.7-6-14.1-14-14.7-24.8c-0.3-5.6,0.9-10.9,2.1-16.2c0-0.1,0.1-0.2,0.2-0.4
		c3.9,2,7.3,4.5,10.2,7.8c3.1,3.6,5,7.7,5.9,12.4c1.3,6.4,1.7,12.9,0.3,19.3c-0.1,0.6-0.5,1.2-0.7,1.7c-0.1,0-0.2-0.1-0.4-0.1
		c0.1-1.4,0.2-2.8,0.3-4.2c0.5-9.6-1.3-18.7-7.2-26.5c-1.9-2.6-4.1-4.9-6.8-6.7C407.6,218,407.4,233.2,422.3,245.6z"/>
	<path d="M390.6,248.2c-2.5-8.9,3-18,10.8-22.5c-0.8,0.9-1.7,1.9-2.5,2.8c-4.4,5.1-7.6,10.8-8.2,17.6
		C390.6,246.8,390.6,247.4,390.6,248.2z"/>
	<path d="M391.9,248.7c2.6-8.8,8.8-14.1,16.8-17.8C402.4,236.2,396.3,241.7,391.9,248.7z"/>
	<path d="M377.4,279.4c1.4-0.1,2.5,0.9,2.6,2.3c0.1,1.4-1,2.6-2.3,2.7c-1.3,0.1-2.5-1-2.6-2.4C375,280.6,376,279.5,377.4,279.4z"/>
	<path d="M382.1,279.1c-1.9-4-4.5-4.7-7.9-2.2c0.6-1.7,2.9-2.9,4.8-2.4C381,275,382.3,277,382.1,279.1z"/>
	<path class="st11" d="M429,294c3.5-2.8,5-6.5,5.3-10.6c0.5-8-2.5-14.9-8.1-20.5c-4.5-4.5-10.2-6.6-16.4-7.8c-0.3,0-0.5-0.1-1.1-0.2
		c1-0.6,1.7-1.2,2.5-1.6c2.6-1.4,5.3-2.8,8-4.1c0.4-0.2,1-0.2,1.4-0.1c11.6,4.3,20,11.9,23.6,24.1c1.2,4,1.5,8.1,1.5,12.2
		c0,1.5-0.2,3.1-0.4,4.6c0,0.3-0.4,0.8-0.7,0.9C439.8,293.2,434.6,294.1,429,294z"/>
	<path class="st11" d="M446.9,289.7c2-2.1,3.3-4.6,3.8-7.4c0.7-4.7,0.2-9.2-1.5-13.6c-2.8-7.4-7.4-13.2-14.3-17
		c-4.1-2.3-8.6-3.3-13.5-3.4c4.4-1.8,8.7-2.8,13.2-2.9c1.4,0,2.8,0.1,4.2,0.1c1.3,0,2.3,0.5,3.3,1.3c7.9,6.3,12.6,14.5,13.9,24.6
		c0.5,3.5,0,6.9-0.2,10.3c0,0.5-0.2,1-0.5,1.4c-2.2,2.7-4.8,4.9-7.8,6.5C447.3,289.7,447.1,289.7,446.9,289.7z"/>
	<path class="st11" d="M458.9,277.3c1.8-11.4-0.5-21.4-10.2-28.9C458.6,251.9,465.4,263.8,458.9,277.3z"/>
</g>
<path class="st5" d="M414.8,513.8c-0.5-0.2-1-0.4-1.3-0.2c-2.9,2-5.7,4-8.5,6c-0.3,0.2-0.6,0.5-1,0.8c-0.2-3.2-1.9-5.2-4.8-6.8
	c0.2,1.8,0.2,3.2,0.5,4.5c0.5,2.6,1,5.3,0.2,7.9c-0.4,1.4-0.6,2.9-0.8,4.3c0,0.2-0.1,0.4-0.1,0.6c0.3,0,0.6,0,0.9,0
	C401.8,522.5,407.9,517.9,414.8,513.8z"/>
<path class="st5" d="M464.7,514.8c-0.5-0.2-1-0.4-1.3-0.2c-2.9,2-5.7,4-8.5,6c-0.3,0.2-0.6,0.5-1,0.8c-0.2-3.2-1.9-5.2-4.8-6.8
	c0.2,1.8,0.2,3.2,0.5,4.5c0.5,2.6,1,5.3,0.2,7.9c-0.4,1.4-0.6,2.9-0.8,4.3c0,0.2-0.1,0.4-0.1,0.6c0.3,0,0.6,0,0.9,0
	C451.6,523.4,457.8,518.9,464.7,514.8z"/>
<path class="st5" d="M336.3,512.6c-0.5-0.2-1-0.4-1.3-0.2c-2.9,2-5.7,4-8.5,6c-0.3,0.2-0.6,0.5-1,0.8c-0.2-3.2-1.9-5.2-4.8-6.8
	c0.2,1.8,0.2,3.2,0.5,4.5c0.5,2.6,1,5.3,0.2,7.9c-0.4,1.4-0.6,2.9-0.8,4.3c0,0.2-0.1,0.4-0.1,0.6c0.3,0,0.6,0,0.9,0
	C323.3,521.2,329.4,516.7,336.3,512.6z"/>
<path class="st5" d="M171.5,509.5c0.4-0.2,0.9-0.4,1.2-0.2c2.6,2,5.2,4,7.9,6c0.3,0.2,0.5,0.5,0.9,0.8c0.2-3.2,1.7-5.2,4.4-6.8
	c-0.2,1.8-0.2,3.2-0.4,4.5c-0.5,2.6-0.9,5.3-0.1,7.9c0.4,1.4,0.6,2.9,0.7,4.3c0,0.2,0,0.4,0.1,0.6c-0.3,0-0.6,0-0.8,0
	C183.5,518.2,177.9,513.6,171.5,509.5z"/>
<path class="st5" d="M234.1,510.5c0.4-0.2,0.9-0.4,1.2-0.2c2.6,2,5.2,4,7.9,6c0.3,0.2,0.5,0.5,0.9,0.8c0.2-3.2,1.7-5.2,4.4-6.8
	c-0.2,1.8-0.2,3.2-0.4,4.5c-0.5,2.6-0.9,5.3-0.1,7.9c0.4,1.4,0.6,2.9,0.7,4.3c0,0.2,0,0.4,0.1,0.6c-0.3,0-0.6,0-0.8,0
	C246.1,519.2,240.5,514.6,234.1,510.5z"/>
<path class="st5" d="M239.5,510.7c0.4-0.2,0.9-0.4,1.2-0.2c2.6,2,5.2,4,7.9,6c0.3,0.2,0.5,0.5,0.9,0.8c0.2-3.2,1.7-5.2,4.4-6.8
	c-0.2,1.8-0.2,3.2-0.4,4.5c-0.5,2.6-0.9,5.3-0.1,7.9c0.4,1.4,0.6,2.9,0.7,4.3c0,0.2,0,0.4,0.1,0.6c-0.3,0-0.6,0-0.8,0
	C251.5,519.3,245.9,514.7,239.5,510.7z"/>
<path class="st5" d="M154.7,508.5c0.4-0.2,0.9-0.4,1.2-0.2c2.6,2,5.2,4,7.9,6c0.3,0.2,0.5,0.5,0.9,0.8c0.2-3.2,1.7-5.2,4.4-6.8
	c-0.2,1.8-0.2,3.2-0.4,4.5c-0.5,2.6-0.9,5.3-0.1,7.9c0.4,1.4,0.6,2.9,0.7,4.3c0,0.2,0,0.4,0.1,0.6c-0.3,0-0.6,0-0.8,0
	C166.7,517.2,161,512.6,154.7,508.5z"/>
<path class="st5" d="M283.7,511.5c0.4-0.2,0.9-0.4,1.2-0.2c2.6,2,5.2,4,7.9,6c0.3,0.2,0.5,0.5,0.9,0.8c0.2-3.2,1.7-5.2,4.4-6.8
	c-0.2,1.8-0.2,3.2-0.4,4.5c-0.5,2.6-0.9,5.3-0.1,7.9c0.4,1.4,0.6,2.9,0.7,4.3c0,0.2,0,0.4,0.1,0.6c-0.3,0-0.6,0-0.8,0
	C295.7,520.2,290.1,515.6,283.7,511.5z"/>
<g>
	<path class="st5" d="M257.7,510.5c0.4-0.2,0.9-0.4,1.2-0.2c2.6,2,5.2,4,7.9,6c0.3,0.2,0.5,0.5,0.9,0.8c0.2-3.2,1.7-5.2,4.4-6.8
		c-0.2,1.8-0.2,3.2-0.4,4.5c-0.5,2.6-0.9,5.3-0.1,7.9c0.4,1.4,0.6,2.9,0.7,4.3c0,0.2,0,0.4,0.1,0.6c-0.3,0-0.6,0-0.8,0
		C269.7,519.2,264.1,514.6,257.7,510.5z"/>
	<path class="st5" d="M286.2,510.7c-0.4-0.2-0.9-0.4-1.2-0.2c-2.6,2-5.3,4-7.9,6c-0.3,0.2-0.5,0.5-0.9,0.8c-0.2-3.2-1.7-5.2-4.4-6.8
		c0.2,1.8,0.2,3.2,0.4,4.5c0.5,2.6,0.9,5.3,0.1,7.9c-0.4,1.4-0.6,2.9-0.7,4.3c0,0.2,0,0.4-0.1,0.6c0.3,0,0.6,0,0.8,0
		C274.2,519.3,279.8,514.7,286.2,510.7z"/>
</g>
<g>
	<path class="st5" d="M246.3,510.4c0.4-0.2,0.9-0.4,1.2-0.2c2.6,2,5.2,4,7.9,6c0.3,0.2,0.5,0.5,0.9,0.8c0.2-3.2,1.7-5.2,4.4-6.8
		c-0.2,1.8-0.2,3.2-0.4,4.5c-0.5,2.6-0.9,5.3-0.1,7.9c0.4,1.4,0.6,2.9,0.7,4.3c0,0.2,0,0.4,0.1,0.6c-0.3,0-0.6,0-0.8,0
		C258.3,519.1,252.6,514.5,246.3,510.4z"/>
	<path class="st5" d="M274.8,510.6c-0.4-0.2-0.9-0.4-1.2-0.2c-2.6,2-5.3,4-7.9,6c-0.3,0.2-0.5,0.5-0.9,0.8c-0.2-3.2-1.7-5.2-4.4-6.8
		c0.2,1.8,0.2,3.2,0.4,4.5c0.5,2.6,0.9,5.3,0.1,7.9c-0.4,1.4-0.6,2.9-0.7,4.3c0,0.2,0,0.4-0.1,0.6c0.3,0,0.6,0,0.8,0
		C262.8,519.2,268.4,514.7,274.8,510.6z"/>
</g>
<path class="st5" d="M350.5,513.8c0.4-0.2,0.9-0.4,1.2-0.2c2.6,2,5.2,4,7.9,6c0.3,0.2,0.5,0.5,0.9,0.8c0.2-3.2,1.7-5.2,4.4-6.8
	c-0.2,1.8-0.2,3.2-0.4,4.5c-0.5,2.6-0.9,5.3-0.1,7.9c0.4,1.4,0.6,2.9,0.7,4.3c0,0.2,0,0.4,0.1,0.6c-0.3,0-0.6,0-0.8,0
	C362.4,522.5,356.8,517.9,350.5,513.8z"/>
<path class="st5" d="M355.9,514c0.4-0.2,0.9-0.4,1.2-0.2c2.6,2,5.2,4,7.9,6c0.3,0.2,0.5,0.5,0.9,0.8c0.2-3.2,1.7-5.2,4.4-6.8
	c-0.2,1.8-0.2,3.2-0.4,4.5c-0.5,2.6-0.9,5.3-0.1,7.9c0.4,1.4,0.6,2.9,0.7,4.3c0,0.2,0,0.4,0.1,0.6c-0.3,0-0.6,0-0.8,0
	C367.8,522.6,362.2,518.1,355.9,514z"/>
<g>
	<path class="st5" d="M374,513.8c0.4-0.2,0.9-0.4,1.2-0.2c2.6,2,5.2,4,7.9,6c0.3,0.2,0.5,0.5,0.9,0.8c0.2-3.2,1.7-5.2,4.4-6.8
		c-0.2,1.8-0.2,3.2-0.4,4.5c-0.5,2.6-0.9,5.3-0.1,7.9c0.4,1.4,0.6,2.9,0.7,4.3c0,0.2,0,0.4,0.1,0.6c-0.3,0-0.6,0-0.8,0
		C386,522.5,380.4,517.9,374,513.8z"/>
	<path class="st5" d="M402.6,514c-0.4-0.2-0.9-0.4-1.2-0.2c-2.6,2-5.3,4-7.9,6c-0.3,0.2-0.5,0.5-0.9,0.8c-0.2-3.2-1.7-5.2-4.4-6.8
		c0.2,1.8,0.2,3.2,0.4,4.5c0.5,2.6,0.9,5.3,0.1,7.9c-0.4,1.4-0.6,2.9-0.7,4.3c0,0.2,0,0.4-0.1,0.6c0.3,0,0.6,0,0.8,0
		C390.5,522.6,396.2,518.1,402.6,514z"/>
</g>
<g>
	<path class="st5" d="M362.6,513.7c0.4-0.2,0.9-0.4,1.2-0.2c2.6,2,5.2,4,7.9,6c0.3,0.2,0.5,0.5,0.9,0.8c0.2-3.2,1.7-5.2,4.4-6.8
		c-0.2,1.8-0.2,3.2-0.4,4.5c-0.5,2.6-0.9,5.3-0.1,7.9c0.4,1.4,0.6,2.9,0.7,4.3c0,0.2,0,0.4,0.1,0.6c-0.3,0-0.6,0-0.8,0
		C374.6,522.4,369,517.8,362.6,513.7z"/>
	<path class="st5" d="M391.1,513.9c-0.4-0.2-0.9-0.4-1.2-0.2c-2.6,2-5.3,4-7.9,6c-0.3,0.2-0.5,0.5-0.9,0.8c-0.2-3.2-1.7-5.2-4.4-6.8
		c0.2,1.8,0.2,3.2,0.4,4.5c0.5,2.6,0.9,5.3,0.1,7.9c-0.4,1.4-0.6,2.9-0.7,4.3c0,0.2,0,0.4-0.1,0.6c0.3,0,0.6,0,0.8,0
		C379.1,522.6,384.8,518,391.1,513.9z"/>
</g>
<g>
	<path class="st5" d="M338.7,513.9c0.4-0.2,0.9-0.4,1.2-0.2c2.6,2,5.2,4,7.9,6c0.3,0.2,0.5,0.5,0.9,0.8c0.2-3.2,1.7-5.2,4.4-6.8
		c-0.2,1.8-0.2,3.2-0.4,4.5c-0.5,2.6-0.9,5.3-0.1,7.9c0.4,1.4,0.6,2.9,0.7,4.3c0,0.2,0,0.4,0.1,0.6c-0.3,0-0.6,0-0.8,0
		C350.7,522.6,345,518,338.7,513.9z"/>
	<path class="st5" d="M367.2,514.1c-0.4-0.2-0.9-0.4-1.2-0.2c-2.6,2-5.3,4-7.9,6c-0.3,0.2-0.5,0.5-0.9,0.8c-0.2-3.2-1.7-5.2-4.4-6.8
		c0.2,1.8,0.2,3.2,0.4,4.5c0.5,2.6,0.9,5.3,0.1,7.9c-0.4,1.4-0.6,2.9-0.7,4.3c0,0.2,0,0.4-0.1,0.6c0.3,0,0.6,0,0.8,0
		C355.2,522.8,360.8,518.2,367.2,514.1z"/>
</g>
<g>
	<path class="st5" d="M416.8,515.3c0.4-0.2,0.9-0.4,1.2-0.2c2.6,2,5.2,4,7.9,6c0.3,0.2,0.5,0.5,0.9,0.8c0.2-3.2,1.7-5.2,4.4-6.8
		c-0.2,1.8-0.2,3.2-0.4,4.5c-0.5,2.6-0.9,5.3-0.1,7.9c0.4,1.4,0.6,2.9,0.7,4.3c0,0.2,0,0.4,0.1,0.6c-0.3,0-0.6,0-0.8,0
		C428.8,524,423.2,519.4,416.8,515.3z"/>
	<path class="st5" d="M445.3,515.5c-0.4-0.2-0.9-0.4-1.2-0.2c-2.6,2-5.3,4-7.9,6c-0.3,0.2-0.5,0.5-0.9,0.8c-0.2-3.2-1.7-5.2-4.4-6.8
		c0.2,1.8,0.2,3.2,0.4,4.5c0.5,2.6,0.9,5.3,0.1,7.9c-0.4,1.4-0.6,2.9-0.7,4.3c0,0.2,0,0.4-0.1,0.6c0.3,0,0.6,0,0.8,0
		C433.3,524.1,439,519.6,445.3,515.5z"/>
</g>
<line class="st14" x1="140.9" y1="526" x2="461.9" y2="533.1"/>
</svg>
